ply
format ascii 1.0
comment Exported by Aspose.3D 23.9.0
element vertex 80
property float x
property float y
property float z
property float nx
property float ny
property float nz
element face 160
property list uchar int vertex_index
end_header
1.4704322814941406 1.2738494873046875 -0.7667162418365479 0.3996604280313477 -0.03470246382057667 0.5929639935493469
-1.5294036865234375 1.3050804138183594 -0.7667162418365479 -0.3996604323154316 0.034702442958950995 0.5929639935493469
1.4680061340332031 1.040863037109375 -0.7307162284851074 0.5015564097411698 0.14688791858498007 0.4696007884490143
-1.5334243774414062 0.9191017150878906 -1.2037161588668823 -0.40157427405938506 -0.14913390018045902 -0.5732606739125913
-1.5294036865234375 1.3050804138183594 -1.2647161483764648 -0.6666305342029469 0.006941318977624178 -0.32924673611777655
1.4704322814941406 1.2738494873046875 -1.2647161483764648 0.4999729112314526 -0.005205994471907616 -0.49387052535027465
-1.5368576049804688 0.5891189575195312 -0.24771618843078613 -0.5960579004138709 0.381776724383235 0.12250968290813945
1.4629783630371094 0.5578880310058594 -0.24771618843078613 0.43413334419684746 0.5320093228614756 0.17501434400425556
-1.5357437133789062 0.6961135864257812 -0.45671606063842773 -0.3277725726366043 0.5358516280539334 0.38760755544050574
-1.5340080261230469 0.8631057739257812 -0.6237161159515381 -0.49716446067517 0.2749433174418906 0.414560600606895
-1.531829833984375 1.0720939636230469 -0.7307162284851074 -0.6655749050745119 0.10833805116514364 0.31306599468280183
-1.5170249938964844 2.4940147399902344 0.37128400802612305 -0.3940105054527521 0.5773954054340721 0.15330759466812652
1.4834442138671875 2.5237808227539062 -0.014716148376464844 0.5051142631564289 0.4886392012704164 -1.8625996744958684E-08
-1.5163917541503906 2.555011749267578 -0.014716148376464844 -0.663202972151339 0.33616964270671207 -9.934334836240547E-09
-1.5170249938964844 2.4940147399902344 -0.40071606636047363 -0.3267964293869833 0.6296257277329762 -0.20348054320595566
-1.5217514038085938 2.0400390625 -1.0257161855697632 -0.597549245133996 0.23852443974465132 -0.31958720143984465
-1.5188789367675781 2.3160247802734375 -0.7497162818908691 -0.5679695675415651 0.3352225724873798 -0.26693704982536864
1.4780845642089844 2.008808135986328 -1.0257161855697632 0.4320028043085975 0.3273649846336671 -0.4565500143729488
-1.5253868103027344 1.6910591125488281 -1.2037161588668823 -0.3311969534261152 0.20693947095423937 -0.6261875381527489
1.4750328063964844 1.7158241271972656 0.5942838191986084 0.4250893180391618 -0.33667707483151127 -0.45635327458168307
-1.5248031616210938 1.7470588684082031 0.5942838191986084 -0.6023888420313597 -0.22630494125187398 -0.31944509207910415
-1.5230636596679688 1.9140472412109375 0.42728376388549805 -0.40477630216628313 -0.4566791964694858 -0.37398542002875956
-1.5269775390625 1.5380668640136719 0.7012839317321777 -0.5018264670701076 -0.17282687763993937 -0.4613143926737848
1.4640922546386719 0.6648826599121094 -0.45671606063842773 0.5041298512369394 0.3940824829041958 0.2907047062400636
1.4658317565917969 0.8318710327148438 -0.6237161159515381 0.503217566292733 0.3064318308606744 0.38405580675085577
1.4680061340332031 1.040863037109375 0.7012839317321777 0.43037021442848655 0.17054085912449019 -0.5365016270856618
-1.531829833984375 1.0720939636230469 0.7012839317321777 -0.5986921191681177 0.12875013519078493 -0.37554971732265585
-1.5294036865234375 1.3050804138183594 0.7382838726043701 -0.49997291099862196 0.005205932538956404 -0.49381336715137536
-1.5340080261230469 0.8631057739257812 0.5942838191986084 -0.4971644503530115 0.27494332256416476 -0.4145606547936798
-1.5417823791503906 0.11614608764648438 0.37128400802612305 -0.6038792544975877 -0.369445213675499 0.12208926609407628
-1.5399284362792969 0.29413604736328125 0.7202839851379395 -0.5041319218580611 -0.394257482374087 0.2903630279526368
-1.5368576049804688 0.5891189575195312 0.21828389167785645 -0.5960579007863999 0.381776737049222 -0.12250963699273143
-1.5334243774414062 0.9191017150878906 1.1742839813232422 -0.5013028787604222 -0.12254277632261315 0.4777170685878976
-1.5372428894042969 0.5521202087402344 -0.014716148376464844 -0.494832141790539 0.4989923732355237 5.626330334962404E-08
-1.5399284362792969 0.29413604736328125 -0.7497162818908691 -0.575099041818508 -0.34956967551261187 -0.23082867599974372
-1.5417823791503906 0.11614608764648438 -0.40071606636047363 -0.6038792282342911 -0.36944521423429255 -0.12208919037689157
-1.54241943359375 0.055149078369140625 -0.014716148376464844 -0.34017120286201435 -0.6549871636865039 -2.7319250269404922E-08
-1.5370559692382812 0.5701217651367188 -1.0257161855697632 -0.4320030187788818 -0.3273645183071494 -0.45655279361673295
-1.5269775390625 1.5380668640136719 -0.7307162284851074 -0.5725295030778007 -0.10277369179363761 0.4095255943894764
-1.5230636596679688 1.9140472412109375 -0.45671606063842773 -0.33885800768621266 -0.528912423333774 0.387606596245746
-1.5248031616210938 1.7470588684082031 -0.6237161159515381 -0.5027813947914789 -0.2645354075357318 0.4145587538669891
-1.5219497680664062 2.0210418701171875 -0.24771618843078613 -0.5756610703787634 -0.4035537814987557 0.10872709101671976
-1.5188789367675781 2.3160247802734375 0.7202839851379395 -0.49581417435547337 0.4046668780501932 0.29036314017594833
-1.5217514038085938 2.0400390625 0.996283769607544 -0.4971693982370198 0.27449093603839475 0.41479337759009616
-1.521575927734375 2.0570411682128906 -0.014716148376464844 -0.5051176743581891 -0.48890451970510185 0
1.4704322814941406 1.2738494873046875 1.2352838516235352 0.33331526317245636 -0.0034704580903053284 0.6584948400656382
1.4704322814941406 1.2738494873046875 0.7382838726043701 0.6666305346104006 -0.006941405590623617 -0.32920963024961714
1.4744529724121094 1.6598281860351562 1.1742839813232422 0.5018203560030088 0.17224906260768572 0.46156388455653996
1.4664154052734375 0.8878707885742188 1.1742839813232422 0.4981253474834375 -0.18266007211059332 0.46156380785896545
1.4627799987792969 0.5388870239257812 0.996283769607544 0.49673060700297356 -0.3166151032783091 0.3841735975025434
1.4728584289550781 1.5068359375 0.7012839317321777 0.4986379873007536 -0.1334276812461515 -0.4775651105269768
1.4625930786132812 0.5208892822265625 -0.014716148376464844 0.6700577149167657 0.32225044863298535 -4.547473508864641E-13
1.4580535888671875 0.08491134643554688 -0.40071606636047363 0.4229601394119007 -0.5411656670538442 -0.17441298048070816
1.4728584289550781 1.5068359375 -0.7307162284851074 0.5698149755397545 -0.1579571420859013 0.3955062309914865
1.4750328063964844 1.7158241271972656 -0.6237161159515381 0.49672820908017457 -0.316842925734818 0.3840571982956741
1.4767723083496094 1.8828163146972656 -0.45671606063842773 0.4958159897942096 -0.40449169953353703 0.29070449729738357
1.48095703125 2.2847938537597656 -0.7497162818908691 0.5750988502321498 0.3495680773630738 -0.23082871761372253
1.4629783630371094 0.5578880310058594 0.21828389167785645 0.4341333358149443 0.5320093225953834 -0.17501439679592423
-1.5357437133789062 0.6961135864257812 0.42728376388549805 -0.32777257240377367 0.5358516482325891 -0.3876075753087207
1.4599075317382812 0.2629051208496094 -0.7497162818908691 0.5679694493966443 -0.3352226988811578 -0.26693732367654577
1.4627799987792969 0.5388870239257812 -1.0257161855697632 0.5975489610806107 -0.23852461501955988 -0.319586822676456
1.4782600402832031 2.025806427001953 -0.014716148376464844 0.3264560277263323 -0.6622835020534694 -4.967053731282552E-09
-1.5219497680664062 2.0210418701171875 0.21828389167785645 -0.5048617540160194 -0.46436939656268805 -0.15210036241446545
1.4778861999511719 1.9898109436035156 0.21828389167785645 0.663371441885829 -0.3199904365465045 -0.10140057848104789
1.4767723083496094 1.8828163146972656 0.42728376388549805 0.39479949548840526 -0.5016090808436274 -0.3237062224545298
1.48095703125 2.2847938537597656 0.7202839851379395 0.6694030485426385 0.25936651167770225 0.19357605272629522
1.4658317565917969 0.8318710327148438 0.5942838191986084 0.5032175763044506 0.30643181704605615 -0.38405579281637375
1.4640922546386719 0.6648826599121094 0.42728376388549805 0.5041298511205241 0.3940825713798404 -0.29070454059993267
1.4599075317382812 0.2629051208496094 0.7202839851379395 0.663858040391157 -0.2732485276646912 0.1935756223131572
1.4664154052734375 0.8878707885742188 -1.2037161588668823 0.3977612524526194 -0.21710950303822757 -0.5538770210091116
1.4580535888671875 0.08491134643554688 0.37128400802612305 0.4229601199871727 -0.5411656500239457 0.17441298942203176
1.4780845642089844 2.008808135986328 0.996283769607544 0.5032149331333736 0.30620537186041474 0.3841709817920673
1.4828109741210938 2.4627838134765625 0.37128400802612305 0.40574438478797675 0.5496840575709939 0.2129566758738747
1.4828109741210938 2.4627838134765625 -0.40071606636047363 0.5048619923181832 0.4644108093343675 -0.15260938925754886
1.4744529724121094 1.6598281860351562 -1.2037161588668823 0.5015615958254784 0.14739603083580732 -0.46964004259473313
1.4778861999511719 1.9898109436035156 -0.24771618843078613 0.567280293708401 -0.4014315775462559 0.15201661370729522
-1.5294036865234375 1.3050804138183594 1.2352838516235352 -0.4999729096889496 0.005205734865739942 0.49387115240097046
-1.5253868103027344 1.6910591125488281 1.1742839813232422 -0.49864292643421015 0.13295436184853315 0.4777164432198333
-1.5370559692382812 0.5701217651367188 0.996283769607544 -0.5027766365092248 -0.2640800137693683 0.41479435943339615
1.4574203491210938 0.023914337158203125 -0.014716148376464844 0.49483095039613545 -0.49904820462688804 -2.6077714210259728E-08
3 0 1 2
3 3 4 5
3 6 7 8
3 9 2 10
3 11 12 13
3 13 12 14
3 10 2 1
3 15 16 17
3 4 18 5
3 19 20 21
3 22 20 19
3 7 23 8
3 23 24 8
3 9 8 24
3 9 24 2
3 25 26 27
3 26 25 28
3 29 30 31
3 26 32 27
3 29 31 33
3 8 9 34
3 35 36 33
3 37 34 9
3 4 38 18
3 39 16 40
3 15 40 16
3 18 38 15
3 16 39 41
3 42 21 20
3 20 43 42
3 20 22 43
3 41 44 13
3 13 14 41
3 16 41 14
3 45 46 47
3 48 46 45
3 49 25 48
3 46 50 47
3 7 51 52
3 0 5 53
3 54 53 17
3 55 54 56
3 57 31 58
3 52 59 7
3 57 33 31
3 23 59 24
3 2 24 60
3 44 61 62
3 63 62 61
3 6 33 7
3 64 21 62
3 64 62 63
3 21 64 19
3 0 38 1
3 50 22 19
3 22 50 27
3 46 27 50
3 64 65 19
3 46 48 25
3 25 27 46
3 66 28 25
3 28 66 58
3 67 58 66
3 67 68 57
3 69 3 5
3 3 69 37
3 60 37 69
3 57 58 67
3 60 59 37
3 34 37 59
3 52 34 59
3 30 29 70
3 68 30 70
3 71 65 42
3 11 42 72
3 65 72 42
3 72 12 11
3 12 73 14
3 16 14 56
3 73 56 14
3 33 57 51
3 17 16 56
3 15 17 18
3 74 18 17
3 5 18 74
3 53 38 0
3 38 53 40
3 54 40 53
3 68 67 66
3 25 49 66
3 68 66 49
3 71 47 50
3 50 19 71
3 40 54 39
3 55 39 54
3 55 75 39
3 41 39 75
3 61 41 75
3 44 41 61
3 51 7 33
3 76 27 32
3 77 27 76
3 26 28 78
3 32 26 78
3 29 33 36
3 1 38 4
3 40 15 38
3 79 52 51
3 60 24 59
3 23 7 59
3 70 79 51
3 51 57 70
3 68 70 57
3 8 34 6
3 34 35 6
3 33 6 35
3 45 76 32
3 77 76 45
3 3 37 10
3 9 10 37
3 4 3 10
3 10 1 4
3 44 62 13
3 11 13 62
3 21 42 62
3 11 62 42
3 77 43 22
3 74 17 53
3 60 69 2
3 69 5 2
3 0 2 5
3 74 53 5
3 27 77 22
3 28 58 30
3 30 78 28
3 58 31 30
3 63 65 64
3 61 75 12
3 56 73 75
3 75 55 56
3 56 54 17
3 73 12 75
3 63 61 12
3 12 72 63
3 65 63 72
3 71 19 65
3 78 30 49
3 49 30 68
3 32 78 48
3 49 48 78
3 48 45 32
3 77 45 47
3 47 71 43
3 47 43 77
3 42 43 71
3 34 52 35
3 35 52 36
3 79 36 52
3 70 29 36
3 70 36 79
