ply
format ascii 1.0
comment Exported by Aspose.3D 23.9.0
element vertex 24
property float x
property float y
property float z
property float nx
property float ny
property float nz
element face 44
property list uchar int vertex_index
end_header
-1.3006038665771484 -10.86623764038086 -1.224480152130127 -0.512841981370002 -0.5103893399238587 -0.20000020031172883
-2.581317901611328 -8.747562408447266 -1.224480152130127 -0.2863216223971297 0.16089258591334024 -0.333333500259774
1.2003765106201172 -10.858306884765625 -1.224480152130127 0.348626843187958 -0.5362396240234375 -0.28571462341489806
2.7332725524902344 -8.730709075927734 -1.224480152130127 0.40488201210973784 -0.04228182137012482 -0.25000059097607163
2.7332725524902344 -8.730709075927734 1.083219051361084 0.40488216024823487 -0.042281651224881145 0.2500002954884337
-2.581317901611328 -8.747562408447266 1.083219051361084 -0.2863218222046271 0.16089286808629427 0.33333341679669576
1.2003765106201172 -10.858306884765625 1.083219051361084 0.32517364546656613 -0.4338239621584464 0.400000236390747
-1.3006038665771484 -10.86623764038086 1.083219051361084 -0.3410491232760251 -0.6069249512409499 0.20000010015603495
2.6080760955810547 0.06308746337890625 -0.8398633003234863 0.49915656924713403 0.2571164797005776 -0.25
2.6080760955810547 0.06308746337890625 0.31398630142211914 0.248389104322996 0.5035563623532653 0.25
2.7332725524902344 -8.730709075927734 0.31398630142211914 0.42274497389896876 0.16201491832240755 0.3333333333333333
2.7332725524902344 -8.730709075927734 -0.8398633003234863 0.422744934912771 0.16201457520804208 -0.3333333333333333
-2.7065162658691406 0.046234130859375 0.31398630142211914 -0.40059370636008684 0.19430472627282144 0.4
-2.7065162658691406 0.046234130859375 -0.8398633003234863 -0.2012481973040849 0.39715086435642366 -0.4
-2.581317901611328 -8.747562408447266 -0.8398633003234863 -0.5512372775868113 0.0628532556031559 -0.2857142857142857
-2.581317901611328 -8.747562408447266 0.31398630142211914 -0.5512374483514577 0.06285403189914567 0.2857142857142857
-2.3983592987060547 -9.050230026245117 -0.8398633003234863 -0.42683735974909115 -0.5919903638927716 -0.16666683359310733
-2.3983592987060547 -9.050230026245117 0.31398630142211914 -0.569998811930418 -0.5115437110265095 0.1666667501300291
-2.5770015716552734 -9.050797462463379 -0.8398633003234863 -0.4991558993351646 -0.2571152815827844 -0.25
-2.5770015716552734 -9.050797462463379 0.31398630142211914 -0.24838543665828183 -0.5035556529182941 0.25
2.737588882446289 -9.033945083618164 -0.8398633003234863 0.2515588535461575 -0.4964392913971096 -0.25
2.5142879486083984 -9.034652709960938 -0.8398633003234863 0.48744323188439015 -0.5507359623908997 -0.2000004727808573
2.5142879486083984 -9.034652709960938 0.31398630142211914 0.4645334132281797 -0.6197480919594721 0.1428573117076764
2.737588882446289 -9.033945083618164 0.31398630142211914 0.5007414511637762 -0.24288236041729894 0.25
3 0 1 2
3 3 2 1
3 4 5 6
3 7 6 5
3 8 9 10
3 8 10 11
3 12 13 14
3 12 14 15
3 9 12 10
3 15 10 12
3 13 8 11
3 13 11 14
3 14 1 16
3 1 0 16
3 9 8 13
3 9 13 12
3 0 17 16
3 15 5 10
3 4 10 5
3 7 0 2
3 7 2 6
3 18 19 15
3 18 15 14
3 20 21 11
3 19 17 15
3 1 14 11
3 1 11 3
3 22 21 20
3 22 20 23
3 14 16 18
3 19 18 16
3 19 16 17
3 6 2 22
3 10 4 22
3 6 22 4
3 5 15 17
3 0 7 17
3 5 17 7
3 2 3 21
3 11 21 3
3 23 20 11
3 23 11 10
3 22 23 10
3 21 22 2
