ply
format ascii 1.0
comment Exported by Aspose.3D 23.9.0
element vertex 80
property float x
property float y
property float z
property float nx
property float ny
property float nz
element face 156
property list uchar int vertex_index
end_header
3.3097095489501953 -1.6961822509765625 -0.9611430168151855 0.38488960825870394 -0.08844241014742504 -0.5970390491187573
-1.692281723022461 3.260967254638672 -0.9611430168151855 -0.13630214465539975 0.2963935248676282 -0.6711727637383672
3.713235855102539 -0.19360733032226562 -0.9611449241638184 0.587652633285478 -0.05889110044745394 -0.4097866915166378
3.5494823455810547 0.9388008117675781 -0.9611449241638184 0.5724587637053162 0.1588788688708064 -0.3996664606034756
3.035623550415039 1.9727325439453125 -0.9611449241638184 0.46489902898379115 0.36710742635800675 -0.40714084506034853
3.713235855102539 -0.19360733032226562 0.961937427520752 0.4918889005978902 0.028519695003827412 0.5063926732788483
3.359994888305664 1.4787025451660156 0.961937427520752 0.5263170003890991 0.2602412997080066 0.4081218831241131
2.793210983276367 0.7498664855957031 0.961937427520752 0.2034321013838053 0.09644200841728577 0.699999988079071
2.7560253143310547 -1.3759040832519531 0.961937427520752 0.09305940493941307 -0.20162908060204093 0.699999988079071
3.5100879669189453 -1.3133049011230469 0.961937427520752 0.6144594351450602 -0.2312623116168429 0.35501872034122545
2.6802196502685547 -2.6841049194335938 0.961937427520752 0.3987794876098633 -0.40900113329004917 0.4229935646057129
3.1326656341552734 -2.07635498046875 0.5773205757141113 0.681869125366211 -0.3420532286167145 0.19941544346511364
-2.5477657318115234 -1.1921424865722656 1.3465542793273926 -0.21381997615098955 -0.39626211568062786 0.4
-2.5477657318115234 -1.1921424865722656 0.961937427520752 -0.2542900540865958 -0.12055250540854656 0.6249999925494194
2.7560253143310547 -1.3759040832519531 1.3465542793273926 0.49126685690134764 -0.25859514492682223 0.25
2.2217159271240234 2.8079986572265625 0.961937427520752 0.36892833113670354 0.45978147406156467 0.4112162090837956
2.258108139038086 -11.99395751953125 0.19270563125610352 0.49846623092889786 -0.028755906620025584 0.5099025823874399
-2.733694076538086 -11.821002960205078 0.19270563125610352 -0.24976424127817154 -0.005423469195498076 0.7499999925494194
-0.12429618835449219 -14.342338562011719 0.19270563125610352 0.044798945387204483 0.4861182301415757 0.4918239489197731
1.1457538604736328 -14.707437515258789 0.19270563125610352 0.3549068927764893 0.45622415579861414 0.40132980262860657
-2.510580062866211 0.9336318969726562 0.961937427520752 -0.13294181121247153 0.2880415242092817 0.5714285458837236
-2.179807662963867 2.9605026245117188 0.961937427520752 -0.29497844477494556 0.39543670923514773 0.5062836123009522
-3.0219249725341797 2.1826133728027344 -0.9611449241638184 -0.4459342358827854 0.3891995067007173 -0.4072135522961617
-1.2688655853271484 -14.550008773803711 0.19270563125610352 -0.26105512082576754 0.5178355482936621 0.38836511820554737
-1.1268444061279297 3.4418067932128906 0.961937427520752 -0.13069372326135636 0.5778269052505494 0.4071418806910515
0.6197185516357422 3.5401611328125 0.961937427520752 0.12116962522268296 0.5746556851749006 0.40758028328418733
0.03312873840332031 3.5802879333496094 -0.9611449241638184 0.002240598127091431 0.7369246589670411 -0.2640313655138016
-2.2903194427490234 -15.457229614257812 0.19270563125610352 -0.4886169314384461 0.32570741043207585 0.3786439374089241
-2.8112316131591797 -16.694690704345703 0.19270563125610352 -0.8437790444919041 0.06268156262980616 0.14621666486241988
1.7415103912353516 3.1441421508789062 -0.9611430168151855 0.2665265689574227 0.5232844310822656 -0.4076023049652577
2.6104907989501953 -8.359777450561523 -0.9611430168151855 0.4215226726154399 -0.1849476572548888 -0.42905556532548417
2.6261844635009766 -8.360321044921875 0.5773205757141113 0.21305548730823728 -0.24257011479489815 0.5649163204456045
2.793210983276367 0.7498664855957031 1.3465542793273926 0.21382025033235552 0.396262099153347 0.4
2.6026439666748047 -8.359504699707031 0.19270563125610352 0.14859741119047004 -0.515428527438474 0.33446550692222365
2.219938278198242 -16.07398223876953 -0.9611430168151855 0.5471121505927761 0.0975304499298204 -0.4256160094269684
2.258108139038086 -11.99395751953125 -0.9611449241638184 0.39905763073527717 -0.021173028042721854 -0.5999999880790711
-2.510580062866211 0.9336318969726562 1.3465542793273926 -0.4912667041644454 0.2585951234214008 0.25
2.142141342163086 -15.872247695922852 0.19270563125610352 0.6526423841714859 0.2849628455006332 0.25880085106473416
-3.096860885620117 -2.101123809814453 0.961937427520752 -0.47047636508941654 -0.3578877727345095 0.381366965174675
-2.282949447631836 -2.9357833862304688 0.5773205757141113 -0.38124988675117494 -0.44807080330612714 0.36651425063610077
-2.282949447631836 -2.9357833862304688 0.961937427520752 -0.2670218348503113 -0.41509497022914543 0.5050661570082108
-1.051870346069336 -3.5509586334228516 0.5773205757141113 -0.3770504117012024 -0.3561526364362102 0.4143794633448124
-1.0358333587646484 -3.5457820892333984 0.961937427520752 -0.34830417377608164 -0.12437834510845797 0.5816996166748659
-3.4236812591552734 -1.463836669921875 -0.9611430168151855 -0.5541183925323888 -0.1072542567565881 -0.4258900045949433
-3.774465560913086 0.065826416015625 -0.9611449241638184 -0.5894384074872804 -0.037570823497821954 -0.409713414311409
-3.571317672729492 1.1855201721191406 -0.9611449241638184 -0.5656844961567827 0.18075258559240126 -0.3995988391339779
-3.774465560913086 0.065826416015625 0.961937427520752 -0.49048061172167456 0.046398888100135594 0.5065152241537968
-3.3609752655029297 1.7151565551757812 0.961937427520752 -0.5138959884643555 0.28257547308199094 0.40826651602983477
-1.0993785858154297 -7.623506546020508 0.5773205757141113 -0.29545744029538973 -0.2816520563740111 0.434500053524971
-1.0993785858154297 -7.623506546020508 0.961937427520752 -0.34483493243654567 -0.32793958826611436 0.3333333333333333
-3.610715866088867 -1.0665817260742188 0.961937427520752 -0.6280602912108103 -0.20337008188168207 0.3369571010116488
-2.0177745819091797 -15.099315643310547 0.961937427520752 -0.33192803462346393 0.3516324311494827 0.5211078797777493
1.009714126586914 -14.627805709838867 0.961937427520752 0.23698534071445465 0.5220146775245667 0.42456837669014935
-0.6176128387451172 -14.344730377197266 0.961937427520752 -0.1187724694609642 0.7062934339046478 0.2914941646158695
-2.6812801361083984 -16.24892807006836 0.961937427520752 -0.5545061945915223 0.1946044206619263 0.42431285232305527
2.2362804412841797 -15.977640151977539 0.961937427520752 0.4803873499234517 0.24031427668200597 0.4495804992297457
-2.0894603729248047 -19.226299285888672 0.961937427520752 -0.3134380749293736 -0.2764108704721165 0.5788315428154809
-1.042043685913086 -19.942996978759766 0.961937427520752 -0.2434614859521389 -0.693875948188392 0.26175523176789284
0.19196510314941406 -20.110239028930664 0.961937427520752 0.10374029576778412 -0.5722420411091548 0.4112764745950699
1.0845317840576172 -7.6991729736328125 0.961937427520752 0.1861188404262066 -0.4032580260187388 0.4
1.157491683959961 -3.5281410217285156 0.961937427520752 0.412883813892092 -0.25714654855923336 0.4580878870827811
-3.286100387573242 -1.784515380859375 0.5773205757141113 -0.7088198423385621 -0.3100342566909278 0.1963564488105476
-2.974271774291992 -8.166276931762695 0.5773205757141113 -0.23302870781885252 -0.346165446287849 0.45236555265717016
1.058176040649414 -19.834842681884766 -0.9611430168151855 0.2763004051365897 -0.510338108823089 -0.40954750627279285
-0.22522544860839844 -20.11229133605957 -0.9611449241638184 -0.04968434364616314 -0.7319131407705299 -0.26176265627145767
1.6858196258544922 -19.372150421142578 0.961937427520752 0.4138592600822449 -0.4017527878284455 0.41217596232891085
2.176168441772461 -18.63872528076172 -0.9611430168151855 0.37165335507110137 -0.19095296819382057 -0.5787776421223367
2.4537181854248047 -17.779911041259766 0.961937427520752 0.47749764720598853 -0.08933575462068313 0.5105411962916453
1.0845317840576172 -7.6991729736328125 0.5773205757141113 0.3930134817957878 -0.20687582567334176 0.4
2.477132797241211 -17.319196701049805 -0.9611449241638184 0.5890527825583263 0.01994730838475789 -0.4038143187761307
2.1185741424560547 -3.0882835388183594 0.5773205757141113 0.3138653695583344 -0.4890664577484131 0.3860433518886566
1.157491683959961 -3.5281410217285156 0.5773205757141113 0.354000560939312 -0.2316957269795239 0.5
-2.9625072479248047 -8.166683197021484 -0.9611430168151855 -0.3383839436309831 -0.18842069480751888 -0.49957534691818256
-2.950735092163086 -8.167093276977539 0.19270563125610352 -0.4131116732954979 -0.4241164615676789 0.2020320917574054
-2.808218002319336 -17.684715270996094 0.961937427520752 -0.5928303152322769 -0.037549843626210055 0.39043760986533016
-2.7821102142333984 -17.590225219726562 0.19270563125610352 -0.9695416688919067 0.11586892604827881 0.0022555701434612274
-2.810598373413086 -17.59781265258789 -0.9611430168151855 -0.48099343246800963 0.005959122130754224 -0.49759684526361525
-2.3496456146240234 -18.84874725341797 -0.9611449241638184 -0.5136541588534442 -0.29126247252406756 -0.4023922083899379
-1.4951763153076172 -19.748004913330078 -0.9611430168151855 -0.260672929457229 -0.4122262972680346 -0.5033810343593359
-2.733694076538086 -11.821002960205078 -0.9611449241638184 -0.570851294337269 -0.01322374645377522 -0.4286867346880691
3 0 1 2
3 3 2 1
3 1 4 3
3 5 6 7
3 7 8 5
3 9 5 8
3 9 8 10
3 9 11 0
3 2 5 9
3 2 9 0
3 2 3 5
3 12 13 8
3 12 8 14
3 6 15 7
3 10 11 9
3 16 17 18
3 16 18 19
3 20 7 21
3 1 22 21
3 18 17 23
3 6 5 3
3 24 21 7
3 25 24 7
3 15 25 7
3 4 6 3
3 4 15 6
3 26 24 25
3 23 17 27
3 27 17 28
3 24 1 21
3 29 15 4
3 25 15 29
3 30 0 31
3 11 31 0
3 29 26 25
3 24 26 1
3 14 7 32
3 8 7 14
3 31 33 30
3 34 35 16
3 32 7 20
3 32 20 36
3 37 34 16
3 38 39 40
3 41 42 40
3 41 40 39
3 43 44 0
3 45 0 44
3 22 0 45
3 1 0 22
3 13 20 46
3 47 46 20
3 21 47 20
3 48 49 42
3 48 42 41
3 13 46 50
3 38 13 50
3 30 33 16
3 30 16 35
3 51 52 53
3 54 55 51
3 56 57 58
3 38 40 13
3 49 59 42
3 59 60 42
3 8 42 60
3 38 50 61
3 61 39 38
3 39 61 62
3 63 58 64
3 47 21 22
3 65 66 67
3 58 57 64
3 48 68 59
3 48 59 49
3 67 66 69
3 55 69 34
3 70 71 31
3 34 37 55
3 52 55 19
3 48 41 62
3 50 43 61
3 61 43 62
3 63 65 58
3 39 62 41
3 66 65 63
3 72 73 62
3 33 62 73
3 62 31 48
3 33 73 17
3 74 75 76
3 68 48 31
3 68 31 71
3 74 76 77
3 47 22 45
3 45 46 47
3 11 70 31
3 46 45 44
3 56 78 57
3 44 50 46
3 78 64 57
3 44 43 50
3 69 66 76
3 34 69 76
3 64 78 63
3 76 79 34
3 35 34 79
3 79 72 35
3 35 72 30
3 72 43 30
3 53 52 18
3 19 18 52
3 1 26 29
3 1 29 4
3 18 23 53
3 62 43 72
3 43 0 30
3 52 51 55
3 79 17 73
3 79 73 72
3 55 74 67
3 65 56 58
3 67 56 65
3 23 27 51
3 75 28 76
3 17 79 28
3 60 10 8
3 27 28 54
3 76 28 79
3 36 13 12
3 20 13 36
3 36 12 32
3 12 14 32
3 31 62 33
3 19 37 16
3 63 78 66
3 78 77 66
3 77 76 66
3 33 17 16
3 55 67 69
3 37 19 55
3 70 10 60
3 70 60 71
3 70 11 10
3 59 68 60
3 71 60 68
3 74 55 54
3 56 67 74
3 8 13 40
3 42 8 40
3 53 23 51
3 27 54 51
3 54 28 74
3 28 75 74
3 74 77 56
3 77 78 56
