ply
format ascii 1.0
comment Exported by Aspose.3D 23.9.0
element vertex 305
property float x
property float y
property float z
property float nx
property float ny
property float nz
element face 622
property list uchar int vertex_index
end_header
-0.3583984375 1.4101148843765259 0.47444915771484375 -0.33333332339922583 0.33276321141359705 0.3339033110869754
-0.3583984375 0.7449029684066772 0.4733123779296875 -0.33333325129213637 0.4888956535141915 0.37462053000612944
2.0436019897460938 0.7449029684066772 0.4733123779296875 0.12498651118272974 0.5497930873851828 0.5473734881379642
2.0436019897460938 1.4101148843765259 0.47444915771484375 0.3999858617782593 0.4015137851280088 0.20217046259749624
2.0472984313964844 1.0132371187210083 -0.02472686767578125 0.7142505720699514 0.2543964949003826 0.000509498885938748
2.061603546142578 0.21142041683197021 1.4634819030761719 0.16736052795353845 0.7940481680755813 0.16508127906126902
-7.6033935546875 0.10949885845184326 0.21623611450195312 -0.42512029485910063 -0.29173036771161215 -0.4430907089708528
-7.6033935546875 0.2983318567276001 0.35836029052734375 -0.5013325180237491 0.29556459188461304 0.37840550459844735
-7.6033935546875 0.2253955602645874 0.011829376220703125 -0.5683248923825366 -0.3999162146023341 -0.013581454333737902
0.9386024475097656 -0.17065489292144775 3.259746551513672 0.3337437786622104 -0.002102077007293701 0.47371212134003804
0.15148162841796875 -0.48359763622283936 2.9484710693359375 0.012333492375910284 -0.6367393553256989 0.7564035415649415
0.9386024475097656 -1.1349998712539673 2.2920989990234375 0.17644573437670866 -0.5839179555575053 0.11877975353837181
-0.018310546875 -0.5095088481903076 2.937713623046875 0.0008884748385753483 -0.6162648126482964 0.7708155959844589
-7.6033935546875 0.4492908716201782 0.08596420288085938 -0.40135513953864577 0.5544492721557618 0.16775361718357545
-7.6033935546875 0.4292067289352417 -0.16422653198242188 -0.501489669860651 0.4729931056499481 -0.12872669134882622
-7.6033935546875 0.15180814266204834 -0.17518234252929688 -0.49729773309081793 -0.38505523403485614 0.288739480803315
-7.6033935546875 0.30678021907806396 -0.368133544921875 -0.5024042266110579 0.35100246469179786 -0.34133495887120563
-7.6033935546875 0.10775673389434814 -0.48577880859375 -0.5023884152372677 0.16611213982105255 -0.4624118222648879
-7.6033935546875 0.04433739185333252 -0.24088668823242188 -0.49925879784859717 -0.17559849843382835 0.4576847453912099
-0.41139984130859375 -0.16965317726135254 3.2587661743164062 -0.3333346963651517 0.18373888731002808 0.3563881798181683
-0.8833999633789062 -0.17065489292144775 3.259746551513672 -0.250266677890977 -0.0020141229033470154 0.5334934815764427
0.3296051025390625 -0.16965317726135254 3.2587661743164062 0.25000079231062955 0.10024154186248779 0.35640675330068916
-0.41139984130859375 -0.16938436031341553 3.1017532348632812 -0.2856311036905806 0.018341634954724993 -0.30252102984109436
-0.41139984130859375 -0.1691277027130127 2.951751708984375 -0.16634259223398354 -0.1669983099369953 0.6663806512563799
0.3296051025390625 -0.1691277027130127 2.951751708984375 0.12480572288194303 -0.2500951112160692 0.6245716167322826
0.3296051025390625 -0.16938436031341553 3.1017532348632812 0.285622647859522 0.26271396023886545 -0.40278932345764973
-0.41139984130859375 -0.16968393325805664 3.276752471923828 -0.4 -0.40034146241378044 0.19931574668735266
0.3296051025390625 -0.16968393325805664 3.276752471923828 0.4 -0.20068378313444557 0.39965756457764884
-6.6033935546875 -0.20287060737609863 0.4646873474121094 0.5015268952120095 -0.1320418156683445 0.47264587603304636
-6.6033935546875 -0.012122273445129395 0.3788642883300781 0.49996190841920907 0.03198304399847984 0.48553482883388216
-6.6033935546875 0.04288280010223389 0.4869041442871094 0.5011662129157533 0.13478638852636018 0.4636047985097017
-6.6033935546875 -0.40558481216430664 0.3434562683105469 0.5735068100371531 -0.29304369006838116 0.3002196480453481
-6.6033935546875 -0.176690936088562 0.3597373962402344 0.49979898237264325 -0.17569153135021526 0.4595034388976652
-0.8833999633789062 0.19931399822235107 3.27838134765625 -0.1434223298481681 -0.06482800841331482 0.653908542224339
-0.8833999633789062 1.1659659147262573 2.314037322998047 -0.2862746687938592 0.5066273212432861 0.1026952862739563
-0.8833999633789062 0.11945068836212158 3.1982421875 -0.2856594504471884 -0.5045478514262608 -0.10223965985434395
-0.41139984130859375 0.2058175802230835 3.274890899658203 -0.0011264128455271323 0.6185634235541025 0.7705666621526082
0.3296051025390625 0.20551812648773193 3.2745895385742188 0.0007807635236531497 0.616873449087143 0.7744014620780946
0.9386024475097656 0.19931399822235107 3.27838134765625 0.20055798333833083 -0.037616634368896486 0.5947478645618162
-0.41139984130859375 -0.09051978588104248 3.1808853149414062 -0.6666666666666666 0.23495763540267944 0.0011363989914627837
-0.41139984130859375 0.11945068836212158 3.1982421875 -0.6666666666666666 -0.2357030113538106 -0.00040909647941589355
-0.41139984130859375 0.20860302448272705 3.1093978881835938 -0.3334887548602031 -0.18548443913459778 -0.3546642099328873
-0.41139984130859375 0.2088717222213745 2.9523963928222656 -0.42856678985013524 0.2851790362536641 0.2862027691784062
0.3296051025390625 0.11945068836212158 3.1982421875 0.6666666666666666 -0.2357030113538106 -0.00040879250736717643
0.3296051025390625 0.20860302448272705 3.1093978881835938 0.25012950476957485 -0.10196945071220398 -0.3547018486668989
0.3296051025390625 -0.09051978588104248 3.1808853149414062 0.6666666666666666 0.23495800296465555 0.001135981822519246
0.3296051025390625 0.2088717222213745 2.9523963928222656 0.3332711062729585 0.11393627598105618 0.5557295002808852
-7.6033935546875 -0.29411470890045166 0.009929656982421875 -0.4976465833024122 0.4723350405693054 -0.006322644212332307
-7.6033935546875 -0.4525604248046875 0.28326416015625 -0.5020847353152931 -0.4095689058303833 0.27281589119502314
-7.6033935546875 -0.21524977684020996 0.178741455078125 -0.4971805529979368 0.3449201534191767 -0.3377471349648052
-0.46552276611328125 0.21455132961273193 2.9524078369140625 -0.44971073316514776 0.09973064649966545 0.5017340822669212
-0.5195693969726562 -0.08099961280822754 2.9519004821777344 -0.5787403985650599 -0.06224299899768085 0.40305825714021926
-7.6033935546875 0.014417767524719238 0.4913139343261719 -0.5026758005066464 0.02416820451617241 0.48056179844233304
0.42742156982421875 0.21487128734588623 2.9524078369140625 0.4506663617657196 0.18824415830507252 0.5010560646187514
0.4829063415527344 -0.07758188247680664 2.9519081115722656 0.6432576851514089 -0.024724274951343734 0.33568381277533865
0.4313926696777344 0.20578229427337646 1.8493919372558594 0.486116641788224 0.45048380678053945 0.17706824041670188
-7.6033935546875 -0.07452309131622314 -0.2516365051269531 -0.49826047026241815 0.0813989428182443 0.4805828418478389
-7.6033935546875 -0.12722182273864746 -0.5073127746582031 -0.5023134375611941 -0.07314223299423853 -0.4814285698887488
-7.6033935546875 -0.21657001972198486 -0.18170928955078125 -0.5689013599018965 0.2972755900451115 0.28195185324960087
-7.6033935546875 -0.40576934814453125 -0.36998748779296875 -0.3323187518399209 -0.4498693893353144 -0.45496565098581715
-0.41139984130859375 0.21777737140655518 -3.34771728515625 -0.0008324951534935583 0.6552043159802754 -0.7490124305089314
-0.8863983154296875 1.1740092039108276 -2.3849563598632812 -0.2005836854572408 0.5667094111442567 -0.2813355207443237
0.3296051025390625 0.217551589012146 -3.347492218017578 0.0005899841722566635 0.6542494416236878 -0.7509346127510071
0.9356040954589844 1.1740092039108276 -2.3849563598632812 0.20041974699124696 0.5659696817398071 0.0012415051460266113
-7.6033935546875 -0.5227917432785034 -0.16585922241210938 -0.6007123425602914 -0.372639000415802 -0.11773276776075364
-7.6033935546875 -0.5443254709243774 0.06885910034179688 -0.40203329268842936 -0.582324743270874 0.07655178755521774
-0.5155258178710938 0.06754696369171143 1.8491554260253906 -0.48506324756792313 0.07499653058281788 0.4997455951912949
-7.6033935546875 -0.07925915718078613 0.251373291015625 -0.49776967257882154 0.08620387067397435 -0.47306824400845926
-7.6033935546875 -0.2896244525909424 0.43277740478515625 -0.5017302449171741 -0.22971161703268686 0.42945148704340375
-6.6033935546875 0.3187326192855835 0.3381309509277344 0.5013727094046772 0.37502517799536383 0.2998180264671267
-0.8833999633789062 -0.09051978588104248 3.1808853149414062 -0.16675527607488522 0.5882529318332672 -0.1150822639465332
0.9386024475097656 -0.09051978588104248 3.1808853149414062 0.16676441817101778 0.5882950226465861 -0.11503968636194864
-6.6033935546875 0.4539247751235962 0.05756378173828125 0.5027242686289052 0.4802641769250234 0.029397850235303242
-0.41139984130859375 0.19831550121307373 3.2773818969726562 -0.16666728869305794 -0.3546198197873309 0.686389148235321
0.9386024475097656 0.11945068836212158 3.1982421875 0.2856373738347559 -0.5045042889458792 -0.1022827459534434
0.3296051025390625 0.19831550121307373 3.2773818969726562 0.16666714672267818 -0.4722588950729308 0.63750087816346
-6.69439697265625 0.20605838298797607 -0.077606201171875 -0.40114998472854496 -0.5576102614402771 0.18223114460706713
-0.17339706420898438 -0.48502862453460693 -0.027294158935546875 -0.00013776021114608739 -0.0004895766323897988 -8.195638656616211E-07
-0.018402099609375 -0.5090285539627075 -0.027332305908203125 -6.094402730620155E-07 -0.000756763998651877 -1.2715657552083333E-06
-1.9823989868164062 -0.9970290064811707 -0.027667999267578125 -0.20009673383747784 -0.352097447183769 -0.2117545035278454
2.061603546142578 -0.9970290064811707 -0.027667999267578125 0.09991036917493262 -0.3522407240816392 -0.3114474679605337
-0.45940399169921875 0.21075975894927979 1.8493995666503906 -0.3715490514412523 0.39341572576668116 0.20514945827890188
-1.9833984375 0.21075975894927979 1.8493995666503906 -0.3839212931061896 0.3253309163847007 0.33370022985544995
0.275604248046875 0.3929973840713501 1.12646484375 0.3165452492923862 0.8484279751777649 0.19073881518561395
0.4260673522949219 0.22444164752960205 1.4393157958984375 0.41267598537014766 0.7269807557264963 0.16630152201590437
0.3376045227050781 1.1833583116531372 -0.1409759521484375 -0.4023391774855554 0.5371477961540222 0.21326166173685124
-0.3583984375 1.1899529695510864 -0.15377426147460938 -0.4991682921536267 0.39644945661226905 0.27594988698751877
-0.3583984375 1.1599780321121216 -0.02997589111328125 -0.4989285344878832 0.48930718501408893 0.025044800926707467
2.0436019897460938 0.7448612451553345 -0.5266876220703125 0.1428545305837271 0.63015206072045 -0.4806926094128617
-0.3583984375 0.7448612451553345 -0.5266876220703125 -0.2997142975506392 0.44121904292842373 -0.43585383594036103
2.0436019897460938 1.411826491355896 -0.5255470275878906 0.28570422955921715 0.43038886443277335 -0.2860309615209969
0.05768585205078125 0.4866112470626831 0.9527130126953125 0.0511202950298582 0.9099765539169312 0.28435818130383267
-0.234527587890625 0.4454606771469116 1.0290908813476562 -0.2065645608135266 0.8869737216404505 0.2026275728546482
0.2775077819824219 0.3983215093612671 -3.0051345825195312 0.21270399207176321 -0.0662079135266443 0.09167013388489269
0.42742156982421875 0.22506582736968994 -3.005584716796875 0.4489655843456906 0.19041837466647848 -0.5004350471132805
0.3296051025390625 0.21907007694244385 -3.0055923461914062 0.12500233051122223 0.2514321820344776 -0.6245703662462763
-0.41139984130859375 0.21907007694244385 -3.0055923461914062 -0.19999940938287183 0.20102743026800454 -0.5996567210301749
-0.42339324951171875 0.29006993770599365 -3.0054702758789062 -0.42046787939322405 0.2573661239778933 -0.5005443902919069
-0.31433868408203125 0.39830052852630615 -3.005138397216797 -0.18614454117200696 -0.12227144956123084 0.15450158519670368
-1.9823989868164062 0.21142041683197021 1.4634819030761719 -0.14571643737303297 0.8176101252643598 0.2676276610000059
0.3376045227050781 1.1613198518753052 0.013641357421875 -0.4041094765067101 0.5652882218360901 -0.11813504382080851
-0.35939788818359375 1.6855732202529907 -0.442840576171875 -0.5003675962410246 0.27450715005397797 -0.412535185246926
-0.35939788818359375 1.5269395112991333 -0.5108909606933594 -0.40014620730653405 0.1421992227435112 -0.5776290904461149
-0.35939788818359375 1.4192553758621216 -0.286163330078125 -0.5998383668251336 -0.2781467139720917 0.1887139828093865
-0.35939788818359375 1.4138180017471313 -0.5205421447753906 -0.25130917358910665 -0.4786637704819441 -0.24051570682786405
0.3376045227050781 1.2907131910324097 -0.25362396240234375 -0.4009932339191437 0.32596442401409154 0.4790347941802793
-0.35939788818359375 1.5881370306015015 -0.21441650390625 -0.5708502460537211 -0.24573075345584322 0.32283709173055236
0.3376045227050781 1.4114083051681519 -0.2812385559082031 -0.1675124371734758 0.5690871477127075 0.32690442850192386
-0.3583984375 1.4114083051681519 -0.2812385559082031 -0.3333333333333333 0.3971652636925379 0.32773503674614324
-0.3583984375 1.3038543462753296 -0.26025390625 -0.49985660309903324 0.1829036275545756 0.44779743511206976
-0.46376800537109375 0.22477519512176514 1.4386940002441406 -0.4785564681070355 0.5682757377624512 0.09996038093231618
0.3376045227050781 1.410544991493225 0.22311782836914062 -0.40124399159103635 0.449571330845356 -0.1929323493353451
-1.9804000854492188 0.21651828289031982 -1.5148811340332031 -0.09360348498737872 0.8218559420460627 -0.26588671711700346
-1.979339599609375 1.0132371187210083 -0.02472686767578125 -0.6935569720808417 0.14899762278704048 -0.0038301517918929067
-1.9773941040039062 0.9985207319259644 -0.05225372314453125 -0.19562976427841933 0.32094257898570505 -0.6000598147511482
-0.931396484375 1.0106228590011597 -0.032073974609375 0.30155817779595967 0.34023073092103007 -0.20336507234735565
-0.3583984375 1.0129696130752563 -0.025226593017578125 -0.572904412844634 0.13724591955542564 0.2178976488292262
-6.69439697265625 0.14150917530059814 -0.18557357788085938 -0.6259199171327055 -0.22772715985774994 0.2829179212401982
-6.6033935546875 0.27089059352874756 0.18706130981445312 0.4998169599372583 0.42916793624560035 0.229962415937545
-6.6033935546875 0.3986903429031372 -0.2483367919921875 0.5729299220921737 0.3687364203589303 -0.19498280610527477
-6.6033935546875 0.31489765644073486 -0.0413360595703125 0.4280885567422956 0.5248797961643764 0.0793977106877719
-6.69439697265625 0.21110761165618896 0.08056640625 -0.5724667539553983 -0.3752020852906363 -0.1591400255721445
-1.9804000854492188 -0.9970272779464722 -0.028667449951171875 -0.19995061479555717 -0.35354172424413266 0.20901161198098564
-6.6033935546875 -0.11596846580505371 -0.3721199035644531 0.49974773605936207 -0.07905873190611601 -0.47101471026437025
-1.98211669921875 -0.16043829917907715 -0.3595085144042969 -0.5396351576394711 -0.22504862385003813 -0.3157563744171057
-1.9804000854492188 -0.2805609703063965 -0.3004417419433594 -0.4003188828006387 -0.33316667489707474 -0.4890297974692658
-0.8863983154296875 -1.0471537113189697 -2.2917556762695312 -0.24968846638276432 0.17550088465213776 0.5309958972965987
-0.8863983154296875 -1.127016544342041 -2.3718910217285156 -0.25081081374082714 -0.5305862575769424 -0.17712078988552094
0.9356040954589844 -1.127016544342041 -2.3718910217285156 0.20059026293456556 -0.5661310434341431 -0.000516568900115999
0.9356040954589844 -1.0471537113189697 -2.2917556762695312 0.285259915545339 0.3016431927680969 0.506123917953622
-6.6033935546875 -0.20124280452728271 -0.4863090515136719 0.4009433422237635 -0.20798096358776094 -0.5506283672602422
-6.6033935546875 -0.5435097217559814 -0.10633468627929688 0.5019414111156948 -0.4674505367875099 -0.12292199674993753
-1.981903076171875 -0.4315178394317627 -0.026004791259765625 -0.28518583814314163 -0.42350857235058875 -0.026638484826045375
-1.9804000854492188 -0.40295636653900146 -0.15948867797851562 -0.4998478785952708 -0.4323574329804008 -0.2315508936133798
-1.9804000854492188 -0.16137266159057617 -1.578857421875 -0.404941541039193 -0.5932909015100449 -0.11918054874911466
-6.6033935546875 -0.5233206748962402 0.1431427001953125 0.40300453789532187 -0.5555982947349548 0.1961593717336655
-0.2802467346191406 -0.43045151233673096 -0.02719879150390625 -8.863035691319965E-05 -0.0006152658024802804 -1.9669532775878906E-06
0.13560104370117188 -0.48502862453460693 -0.027294158935546875 0.00013304180538398214 -0.0004754358669742942 -8.195638656616211E-07
0.24321746826171875 -0.43045151233673096 -0.02719879150390625 0.00019398125995166994 -0.19766015047207475 -0.031036469340324405
1.83160400390625 -0.4305298328399658 -0.026699066162109375 0.19976902571332858 -0.1970183215045836 -0.6310356348752976
1.83160400390625 -0.43037283420562744 -0.027698516845703125 0.19976682421228134 -0.19907521675340834 0.5689613848924637
2.062103271484375 -0.16402935981750488 -0.02674102783203125 0.22189431109413563 -0.33388321037960444 -0.000499985374820729
2.062602996826172 -0.9970272779464722 -0.028667449951171875 0.09991073938959971 -0.3531375510559883 0.3102262181957485
-6.69439697265625 -0.15035784244537354 -0.22959518432617188 -0.402490084245801 0.2581867277622223 0.5178266048431397
-0.8863983154296875 -0.1593647003173828 -3.3362388610839844 -0.2861772860034242 0.10259469917842319 -0.5053742790863274
-6.69439697265625 -0.15124189853668213 0.22549819946289062 -0.4018061999231577 0.2785557568073273 -0.5153256872952625
-6.69439697265625 -0.2575263977050781 0.123443603515625 -0.5722091072904212 0.36730204309735975 -0.19663535884787312
2.0365982055664062 1.4150253534317017 -0.5259933471679688 0.5456117887515575 -0.243921659886837 -0.17884709552112873
0.3376045227050781 1.4167460203170776 -0.29045867919921875 -0.28683753887058366 -0.5457153107438768 0.2642310723396284
2.0365982055664062 1.6301268339157104 -0.4747467041015625 0.25112130696652457 0.30403419211506844 -0.6747643500566483
-0.01833343505859375 -0.5005449056625366 -3.0001983642578125 -7.298507262021303E-05 -0.7054116427898407 -0.7087868899106979
0.9356040954589844 -0.1593647003173828 -3.3362388610839844 0.333824926844026 0.0015954275925954182 -0.4720000221339925
-6.69439697265625 0.007797360420227051 -0.2514457702636719 -0.2529993075877428 -0.09878396429121494 0.7208607643842697
0.0613555908203125 -0.5045946836471558 -0.9421653747558594 0.08175010613244163 -0.920396089553833 -0.23680386156775057
-0.018398284912109375 -0.5042266845703125 -2.8328285217285156 -0.022184366536104484 -0.137101411819458 0.35256164614111185
0.22467803955078125 -0.44779181480407715 -2.8890724182128906 0.33032108090075474 -0.3240624964237213 0.23577761960526306
-0.23431015014648438 -0.46494007110595703 -1.0157241821289062 -0.20298630164575115 -0.8958914399147034 -0.18929402166977527
-0.35939788818359375 1.8033994436264038 -0.33858489990234375 -0.4003877660026774 0.47553721666336063 -0.35527132643914006
2.0365982055664062 1.7832103967666626 -0.3628387451171875 0.4005151028046385 0.419227933883667 -0.41871931826940456
-6.6033935546875 0.159399151802063 0.30731201171875 0.5001191310196493 0.268807644645373 0.4119939780660312
-0.3583984375 1.411826491355896 -0.5255470275878906 -0.4 0.4003414473962039 -0.19931497265425835
-0.2600250244140625 -0.4486767053604126 -2.8881874084472656 -0.3057304934793592 -0.21520888805389404 0.2839799787383527
-6.69439697265625 -0.03450798988342285 0.2529792785644531 -0.3992512000259012 -0.03717653453350067 -0.5858213419662207
-6.69439697265625 0.08762133121490479 0.223846435546875 -0.33673500230846304 -0.3298196792602539 -0.5418297475055927
-6.6033935546875 0.24329602718353271 -0.21654510498046875 0.40054968395270407 0.5023658871650696 -0.30690464473009343
-6.6033935546875 0.123207688331604 -0.3279304504394531 0.5712975165307788 0.2140096915619714 -0.3554192015102931
-0.4637603759765625 0.22981011867523193 -1.490020751953125 -0.4679831156507135 0.7360131204128266 -0.09953983016312123
-6.69439697265625 -0.2590698003768921 -0.11919021606445312 -0.4004631207324565 0.5225193023681641 0.2612277754514253
0.9356040954589844 -0.07950162887573242 -3.256103515625 0.16696249508563216 0.589905301729838 0.11799576878547668
0.3645744323730469 -0.3261442184448242 -3.0077896118164062 0.27140021487785915 0.13475106232282189 0.09021274807552496
0.275604248046875 -0.4121694564819336 -1.113616943359375 0.2766318955391398 -0.8462656438350677 -0.23704226594418287
2.062602996826172 -0.16137266159057617 -1.578857421875 0.16666683547943723 -0.7933150995037673 -0.1589738600256775
0.3856048583984375 -0.3008157014846802 -1.3201866149902344 0.4483965462722251 -0.7176204068320138 -0.20446737948805094
0.42606353759765625 0.22945177555084229 -1.490692138671875 0.4106438883526238 0.7300075193246205 -0.16372869236482282
0.4313926696777344 0.212243914604187 -1.9256057739257812 0.48607350188700593 0.4512574843247421 -0.1751538149252904
-0.465576171875 0.21403682231903076 -1.9256019592285156 -0.46614038886536946 0.5104478844247448 -0.17251263293049607
-0.23452377319335938 0.4490700960159302 -1.079925537109375 -0.2015603745650927 0.8903498564447675 -0.1995731895856027
-0.17339706420898438 0.47094452381134033 -2.932159423828125 -0.1427356917920406 0.11661142110824585 0.35376175586134195
0.9386024475097656 1.1659659147262573 2.314037322998047 0.400557407271117 0.42522945404052737 0.14271861250950907
0.9386024475097656 1.0871027708053589 2.2339019775390625 0.16678930906346068 -0.11562158664067586 -0.5877115627129872
-6.6033935546875 -0.43625450134277344 0.0626373291015625 0.5712591291438521 -0.4100093926702227 0.07133743064696318
-6.6033935546875 -0.4027092456817627 -0.36692047119140625 0.6016697441227734 -0.2779160141944885 -0.26713009794070786
-6.6033935546875 -0.32681596279144287 -0.2645301818847656 0.499599343088145 -0.34469882150491077 -0.34316674868265784
0.05768585205078125 0.48995935916900635 -1.003448486328125 0.05111671892213963 0.9108840942382813 -0.281369354063645
0.05860137939453125 0.49745023250579834 -2.905567169189453 0.07918725061088999 0.2411267842565264 0.30489400622900575
-6.6033935546875 0.24763500690460205 -0.4145393371582031 0.40252491962164644 0.32907769680023197 -0.4902556419372559
-0.8833999633789062 1.0871027708053589 2.2339019775390625 -0.16689719377806492 -0.35206130146980286 -0.5888598958651224
-6.6033935546875 0.03352844715118408 -0.5070419311523438 0.5016550165601075 0.06664649893840154 -0.484947790702184
0.275604248046875 0.39694106578826904 -1.1774253845214844 0.3106369412573884 0.8520109772682191 -0.1873573194257915
-0.33568572998046875 0.36868083477020264 2.950885772705078 -0.19586768345543534 -0.12755291648209097 -0.15435910746455195
0.298431396484375 0.3689333200454712 2.950836181640625 0.21726845672512554 -0.06615589300377502 -0.09202213978601827
0.05860137939453125 0.4876304864883423 2.8313217163085938 0.08347062154786856 0.24007044519696916 -0.3032698285616269
2.085601806640625 -0.16077804565429688 -1.926239013671875 0.16666644918938306 -0.49943212159754086 -0.3341886872658506
2.085601806640625 0.21722137928009033 -1.9255943298339844 0.2852840572816961 0.4290563097789085 -0.28500435709221555
2.085601806640625 -0.16723966598510742 1.8487548828125 0.2857141236803581 -0.42905702510116883 0.28498030432300375
2.062602996826172 0.21651828289031982 -1.5148811340332031 0.16737763637345893 0.794590013101697 -0.16189664417955402
2.0509986877441406 0.21397006511688232 -0.026096343994140625 0.39998429666594576 0.6018506463617087 0.0011651659617200494
-0.17339706420898438 0.4610339403152466 2.857830047607422 -0.15194879448540632 0.11284883320331573 -0.3526874417439103
2.061603546142578 -0.16668760776519775 1.5262031555175781 0.1666667609740955 -0.7940907658873281 0.15629680595884565
-6.6033935546875 -0.4168809652328491 -0.11367416381835938 0.3994603601400741 -0.5660997152328492 -0.16621286869049073
-6.6033935546875 -0.3281693458557129 0.27010345458984375 0.3993782274192199 -0.43070961236953736 0.3951080278151494
1.83160400390625 -0.16402935981750488 -0.02674102783203125 0.3333333333333333 -0.0012507924014547218 -2.125898996988932E-06
0.9356040954589844 0.21066415309906006 -3.3526077270507812 0.33368246637178345 -0.016383161147435505 -0.48889518777529395
0.3296051025390625 -0.1589294672012329 -3.006237030029297 0.3995645890161541 -0.09708270925329998 -0.5001588992715099
-0.41139984130859375 0.21937644481658936 -3.1845932006835938 -0.28572423162300503 -0.017801616873059953 0.30306439877501085
0.3296051025390625 0.21937644481658936 -3.1845932006835938 0.2857260255675231 -0.2618144750595093 0.4036942254543041
-0.8863983154296875 0.13052880764007568 -3.2737464904785156 -0.1666601809902204 -0.5879321495691935 0.11539089658448157
0.9356040954589844 0.13052880764007568 -3.2737464904785156 0.1666582124278193 -0.587928056716919 0.11539512872695923
0.4829063415527344 -0.06738400459289551 -3.006084442138672 0.6415640297821785 -0.02567080350127071 -0.33608540184407804
0.0613555908203125 -0.5077275037765503 0.8879890441894531 0.08175548711604581 -0.9212487240632374 0.23353595954055587
-0.018398284912109375 -0.5137933492660522 2.75616455078125 -0.02219205399948502 -0.13589683175086975 -0.353022803280813
-0.23431015014648438 -0.4683248996734619 0.9617271423339844 -0.20299723588323104 -0.8965679526329041 0.18612874899990858
0.9356040954589844 1.0948737859725952 -2.3060874938964844 0.3333467503543943 -0.23653070131937662 0.4709722598393758
-0.8863983154296875 1.0948737859725952 -2.3060874938964844 -0.25001924740809045 -0.177699513733387 0.5300026087357779
0.3856048583984375 -0.30524396896362305 1.2669105529785156 0.4512599517293389 -0.7152547325406755 0.20207762287048223
0.45660400390625 -0.16723966598510742 1.8487548828125 0.526173072201865 -0.49621195904910564 0.1423066983157436
0.3783760070800781 -0.31782472133636475 2.9519309997558594 0.2751611631255299 0.13795313484863275 -0.09026287225424312
0.45660400390625 -0.16668760776519775 1.5262031555175781 0.29685072104136145 -0.778951495885849 0.15626835561124608
0.3296051025390625 -0.07950162887573242 -3.256103515625 0.6000000000000001 0.2828401207923889 0.00048126729126352075
0.3296051025390625 -0.15863680839538574 -3.1772384643554688 0.14261253487867567 0.11977021183286393 0.40213998927279293
0.3296051025390625 -0.15836632251739502 -3.335235595703125 0.24999978079891605 0.10426005721092224 -0.35327283819788136
0.3296051025390625 0.13052880764007568 -3.2737464904785156 0.714285705770765 -0.20138917650495256 -0.0009818012995594927
0.3296051025390625 0.2076207399368286 -3.349609375 0.16666601054574431 -0.467444432588915 -0.6417177145411822
0.3296051025390625 -0.1583406925201416 -3.3502349853515625 0.4 -0.19931604340672493 -0.4003411781885404
-0.4944000244140625 -0.16668760776519775 1.5262031555175781 -0.2968441049257914 -0.7789644400278727 0.15626828205616522
-0.42339324951171875 -0.30524396896362305 1.2669105529785156 -0.443892281504897 -0.7221288893904004 0.20081957358550945
-0.4944000244140625 -0.16723966598510742 1.8487548828125 -0.5273049729210989 -0.48650677892978167 0.14155703422563548
-0.415985107421875 -0.31803154945373535 2.951862335205078 -0.22474942502859366 0.1770403969567269 -0.04697388552118686
-0.8863983154296875 0.21066415309906006 -3.3526077270507812 -0.25036533839056574 -0.03158596158027649 -0.5603448005125742
-0.41139984130859375 0.2076207399368286 -3.349609375 -0.1666658295974533 -0.35018418791393435 -0.6896636982758839
0.275604248046875 -0.4158897399902344 1.0598526000976562 0.27663543916150957 -0.8471303880214691 0.23403314786264673
0.22468185424804688 -0.45755040645599365 2.8125953674316406 0.3337679255146213 -0.3204011519749959 -0.23593931237701327
-0.41139984130859375 -0.1583406925201416 -3.3502349853515625 -0.4 -0.3996575746685267 -0.20068319686688485
-0.26003265380859375 -0.4584313631057739 2.8117141723632812 -0.30987829869554845 -0.21084939241409303 -0.28367537828162315
2.0365982055664062 1.9172800779342651 -0.0177001953125 0.40072247106581926 0.5883128166198731 -0.009532146155834198
2.0365982055664062 1.8574753999710083 0.20981597900390625 0.40100062442943457 0.5228229403495789 0.2679686464893791
2.0365982055664062 1.6813260316848755 0.3994903564453125 0.3338753495772835 0.3277425716320673 0.5559593867947635
0.9386024475097656 -1.0548648834228516 2.213237762451172 0.28559618417421007 0.30438406126839773 -0.505355115539345
-0.8833999633789062 -1.0548648834228516 2.213237762451172 -0.24992379510331375 0.17869063466787338 -0.5312473326921463
-0.18922805786132812 -0.4835689067840576 2.949115753173828 -0.013697354588657618 -0.6210219189524651 0.766997218132019
-0.8833999633789062 -1.1349998712539673 2.2920989990234375 -0.211556494794786 -0.5615389704704284 0.284078323841095
-1.9823989868164062 -0.16668760776519775 1.5262031555175781 -0.3640768990575296 -0.5952993237660849 0.11724487427318309
-1.9833984375 -0.16723966598510742 1.8487548828125 -0.31876833010366684 -0.3339657318817141 0.33272461006732357
0.4816017150878906 -0.012239933013916016 1.8490180969238281 0.39232321082417915 0.012014720798470081 0.6003074992448092
-1.9833984375 0.21722137928009033 -1.9255943298339844 -0.40476440040259015 0.2864531133033097 -0.2851281152938359
2.085601806640625 0.21075975894927979 1.8493995666503906 0.16616592260698818 0.4994285415741615 0.3342198899675471
-0.42339324951171875 -0.3008157014846802 -1.3201866149902344 -0.44092152251255357 -0.7245910252843584 -0.20324157545941748
-0.40183258056640625 -0.32673656940460205 -3.0075950622558594 -0.2213540511491539 0.1743265785784884 0.047035031973130324
0.45660400390625 -0.16077804565429688 -1.926239013671875 0.5245530775615147 -0.49917059684438364 -0.1445381015572431
-0.4944000244140625 -0.16077804565429688 -1.926239013671875 -0.5240224259240286 -0.49973104026035536 -0.14455756498500705
0.45660400390625 -0.16137266159057617 -1.578857421875 0.29685078064600623 -0.7783746520678202 -0.15900302065225938
-1.9828338623046875 0.2123492956161499 0.2599067687988281 -0.47126359737012535 0.43594699382915025 0.2942785525145674
-1.9833984375 0.009101271629333496 0.3755531311035156 -0.49946224850524834 0.13337398751173168 0.4646983412824355
-1.9826583862304688 -0.16503417491912842 0.3619880676269531 -0.31851415900018765 -0.2708787133839602 0.4819441140692409
-1.9823989868164062 -0.2815999984741211 0.30655670166015625 -0.3997055675252341 -0.3396807590805111 0.48336329417506935
-1.9824066162109375 -0.40313756465911865 0.165557861328125 -0.4996037877863273 -0.43875866138841957 0.20978858017103144
-1.9804000854492188 0.3164018392562866 -0.030338287353515625 -0.1568233084763051 0.4197896757541457 0.42974935748497956
-1.9824066162109375 0.31167328357696533 -0.02458953857421875 -0.15313160842716958 0.36349062618059436 -0.23092927293120216
-0.4944000244140625 -0.16137266159057617 -1.578857421875 -0.29684416453043616 -0.7783874869346619 -0.1590032655512914
-0.3979949951171875 0.3101383447647095 -0.02593231201171875 -0.0006442896497901529 0.15428555328398944 0.12710230350494386
2.0365982055664062 1.876381754875183 -0.21662521362304688 0.4005158422747627 0.5389068365097046 -0.24576408839097896
-1.9810028076171875 0.21598947048187256 -0.24541091918945312 -0.40461495237624534 0.46182879141997546 -0.27486699573845336
-1.9833984375 0.10392725467681885 -0.3378562927246094 -0.3993268351070583 0.18300765436142685 -0.5500636442331598
0.4816017150878906 -0.005778312683105469 -1.9259757995605469 0.39232269878099263 0.014059230429120363 -0.6002689631655813
-1.9833984375 -0.16077804565429688 -1.926239013671875 -0.24792890618882668 -0.393491077803742 -0.4000968490145169
-0.5183944702148438 -0.005778312683105469 -1.9259757995605469 -0.4927320531258677 0.029207046919812758 -0.49808325727159775
-6.69439697265625 -0.28707456588745117 -0.000453948974609375 -0.5037747347960249 0.48648808896541595 -0.0006040506162889869
-0.8863983154296875 -0.07950162887573242 -3.256103515625 -0.1669336914666625 0.5897958278656006 0.11810653321415998
-0.5155258178710938 -0.08498942852020264 -3.006114959716797 -0.5768401016874123 -0.09577457252889872 -0.4025454599410296
-0.41139984130859375 -0.1589294672012329 -3.006237030029297 -0.3995179574235408 -0.1980116041027941 -0.40033404827713925
-1.9823989868164062 0.2957206964492798 0.11954498291015625 -0.39987140751909467 0.5688271394930781 0.16195680758683012
-1.9773941040039062 0.9925130605697632 0.013736724853515625 -0.24960574647411704 0.4397341230578604 0.4997636266052723
-0.931396484375 0.926967978477478 -0.02437591552734375 0.14473126074917023 -0.15509552484062233 -0.7139081555984116
-0.931396484375 0.9269696474075317 -0.0253753662109375 0.14069639726465408 -0.13352979134236062 0.7135733764984512
-1.9774017333984375 0.9269689321517944 -0.024875640869140625 -0.0651063854117183 -0.2033394703670638 -0.00645472186151892
-0.35939788818359375 1.818867802619934 0.266448974609375 -0.5004352699615993 0.3877448538939158 0.3032189934283854
-0.35939788818359375 1.6753243207931519 0.3993873596191406 -0.50062303415325 0.24147116392850876 0.42294960822973593
-0.35939788818359375 1.5747073888778687 0.174468994140625 -0.5678867901276264 -0.27373060158320833 -0.295366557969215
-0.35939788818359375 1.4165347814559937 0.47674560546875 -0.3333961308332315 -0.24092733363310495 0.32501556103428203
-0.3583984375 0.3493860960006714 -0.0258636474609375 -0.20021816874650541 0.00047572664916515354 -4.412751877680421E-07
-0.3583984375 1.0129679441452026 -0.024227142333984375 -0.49936765028834884 0.21514103867230006 -0.1442137359056339
0.3376045227050781 1.6391690969467163 0.08651351928710938 -0.25127216265536845 -0.6529138088226318 -0.3209960629408499
0.3376045227050781 1.6655911207199097 -0.06336593627929688 -0.5025595956249163 -0.47180119156837463 0.06426271165557651
0.3376045227050781 1.5305689573287964 0.19832229614257812 -0.5724471244694931 -0.17351531556674413 -0.37597384344879814
-0.41139984130859375 -0.15863680839538574 -3.1772384643554688 -0.19970176951028407 0.22532020807266237 0.4228592014871538
-0.931396484375 0.9925130605697632 0.013736724853515625 0.14159415637942221 0.5096532114049686 0.541509781564985
-0.931396484375 1.13290274143219 0.01397705078125 0.5 0.24957168329274282 0.25042723789778165
-0.931396484375 1.133015751838684 -0.05202484130859375 0.2041795775294304 0.3681701559806243 -0.39666675500598103
-1.9773941040039062 1.133015751838684 -0.05202484130859375 -0.49934396147727966 0.2545167642638262 -0.2672043648544786
-1.9773941040039062 1.13290274143219 0.01397705078125 -0.3330989380677541 0.3354556130895313 0.3423198352259836
-0.41139984130859375 -0.15836632251739502 -3.335235595703125 -0.33333295784344347 0.1875336766242981 -0.3531904492129456
-0.4944000244140625 0.15007007122039795 -3.0057106018066406 -0.4766652423204505 0.1301009401019352 -0.5000139041415725
2.0365982055664062 1.4138981103897095 0.4738311767578125 0.2503361658018548 -0.43302205204963684 0.24377623881446198
0.3376045227050781 1.41254460811615 0.22345733642578125 -0.16704467804326364 -0.7013417929410934 -0.15980840113479644
-0.35939788818359375 1.41254460811615 0.22345733642578125 -0.2463885040488094 -0.37433139234781265 -0.47987197525799274
-0.41139984130859375 -0.07950162887573242 -3.256103515625 -0.6000000000000001 0.28283995389938354 0.0004809632303704348
-0.41139984130859375 0.13052880764007568 -3.2737464904785156 -0.714285705770765 -0.20138864006314958 -0.0009823431285797466
-0.3583984375 1.410544991493225 0.22311782836914062 -0.3333333333333333 0.4043129235506058 -0.32511796429753304
-0.3583984375 1.1875742673873901 0.08884811401367188 -0.4987932614361246 0.4256158371766408 -0.2380742804880498
-0.35939788818359375 1.672486424446106 -0.04050445556640625 -0.49643474246840924 -0.4620926156640053 0.034952195739455405
0.3376045227050781 1.2576912641525269 0.17805099487304688 -0.254374448210001 0.4656180366873741 -0.5403357295208551
-0.3583984375 1.2931488752365112 0.19753265380859375 -0.49923388194292784 0.20215162883202234 -0.4388063677521406
-0.35939788818359375 1.9129921197891235 0.054042816162109375 -0.40081280972808603 0.5752596974372864 0.1117710645066012
-0.35939788818359375 1.8886510133743286 -0.18693923950195312 -0.500646116794087 0.4743550320466359 -0.13198763289190177
0.3376045227050781 1.5984538793563843 -0.20406723022460938 -0.3990038604475558 -0.4463229179382324 0.35402497898576546
3 0 1 2
3 0 2 3
3 4 2 5
3 6 7 8
3 9 10 11
3 12 11 10
3 13 14 8
3 15 8 14
3 14 16 15
3 17 18 16
3 19 20 21
3 20 9 21
3 13 8 7
3 22 23 24
3 22 24 25
3 26 19 21
3 26 21 27
3 28 29 30
3 31 32 28
3 33 34 35
3 36 33 37
3 38 37 33
3 39 19 40
3 40 41 39
3 41 42 39
3 22 39 42
3 22 42 23
3 27 21 43
3 44 43 45
3 25 46 45
3 24 46 25
3 44 45 46
3 47 48 49
3 42 50 23
3 23 50 51
3 52 7 6
3 46 24 53
3 54 53 24
3 54 55 53
3 56 57 58
3 18 17 56
3 57 56 17
3 18 15 16
3 59 58 57
3 60 61 62
3 63 62 61
3 47 58 64
3 59 64 58
3 64 65 47
3 48 47 65
3 66 51 50
3 6 67 52
3 68 52 67
3 68 67 49
3 68 49 48
3 69 7 30
3 70 39 22
3 25 45 71
3 14 13 72
3 19 26 40
3 73 40 26
3 45 43 21
3 27 73 26
3 39 70 19
3 20 19 70
3 9 71 21
3 45 21 71
3 74 43 44
3 43 75 27
3 75 73 27
3 40 73 35
3 33 35 73
3 43 74 75
3 74 38 75
3 38 33 75
3 73 75 33
3 15 76 8
3 28 68 31
3 52 28 30
3 77 78 79
3 80 79 78
3 66 81 82
3 83 84 2
3 85 86 87
3 5 2 84
3 88 89 90
3 2 1 91
3 92 91 1
3 83 2 91
3 93 94 95
3 96 97 95
3 98 95 97
3 93 95 98
3 1 99 92
3 87 100 85
3 101 102 103
3 104 103 102
3 85 105 86
3 103 106 101
3 107 108 109
3 110 92 99
3 109 86 105
3 107 109 105
3 111 85 100
3 85 111 105
3 107 105 111
3 112 113 114
3 89 115 116
3 15 117 76
3 69 118 72
3 119 72 120
3 8 76 121
3 72 13 69
3 7 69 13
3 77 122 78
3 119 14 72
3 123 124 125
3 119 16 14
3 7 52 30
3 126 127 128
3 126 128 129
3 130 59 57
3 64 131 65
3 132 133 122
3 122 133 134
3 135 65 131
3 135 48 65
3 52 68 28
3 79 136 77
3 80 78 137
3 137 138 80
3 139 80 138
3 140 139 138
3 141 140 142
3 142 78 122
3 138 142 140
3 142 138 137
3 143 56 58
3 137 78 142
3 136 122 77
3 127 126 144
3 18 117 15
3 67 145 49
3 145 146 49
3 147 148 104
3 102 147 104
3 149 102 101
3 150 127 144
3 128 127 150
3 128 151 129
3 18 152 117
3 153 154 155
3 153 156 154
3 101 157 158
3 49 146 47
3 159 118 69
3 160 107 90
3 108 107 160
3 90 89 160
3 161 154 156
3 120 72 118
3 162 67 6
3 6 163 162
3 120 164 119
3 165 119 164
3 97 166 98
3 161 126 154
3 129 154 126
3 47 167 58
3 167 143 58
3 168 169 129
3 129 155 154
3 56 152 18
3 142 122 153
3 153 170 142
3 171 142 172
3 94 173 174
3 117 146 76
3 76 146 121
3 69 30 159
3 29 159 30
3 166 97 175
3 153 122 156
3 176 98 166
3 98 176 177
3 38 74 178
3 179 178 74
3 131 180 135
3 181 182 131
3 183 184 176
3 119 165 185
3 186 35 34
3 33 36 34
3 36 37 34
3 178 34 37
3 178 37 38
3 64 59 131
3 181 131 59
3 130 187 123
3 183 188 184
3 189 46 190
3 53 190 46
3 50 46 189
3 42 46 50
3 188 173 93
3 48 135 31
3 123 182 181
3 191 83 91
3 192 193 194
3 193 195 196
3 171 192 141
3 194 141 192
3 189 197 92
3 195 4 196
3 141 142 171
3 123 125 182
3 194 198 141
3 199 131 182
3 177 176 184
3 5 196 4
3 93 184 188
3 180 131 199
3 94 93 173
3 50 189 110
3 92 110 189
3 180 200 31
3 31 135 180
3 197 191 92
3 201 141 139
3 80 139 141
3 90 3 4
3 83 190 84
3 63 202 62
3 53 55 84
3 203 95 94
3 204 205 98
3 98 206 204
3 93 98 205
3 207 93 205
3 110 81 50
3 208 203 94
3 209 210 211
3 212 213 184
3 207 212 93
3 213 98 177
3 184 93 212
3 174 208 94
3 206 98 213
3 31 200 32
3 213 177 184
3 191 190 83
3 53 84 190
3 214 215 216
3 54 216 215
3 217 215 214
3 168 218 219
3 218 168 220
3 66 50 81
3 221 207 205
3 221 222 207
3 202 207 222
3 91 92 191
3 218 220 221
3 221 203 218
3 205 203 221
3 95 203 205
3 219 218 203
3 40 35 41
3 35 189 41
3 44 41 189
3 189 190 44
3 74 44 190
3 223 221 220
3 224 225 226
3 225 227 226
3 223 222 221
3 74 190 179
3 179 191 186
3 186 191 197
3 202 228 62
3 60 62 228
3 229 228 222
3 202 222 228
3 230 214 231
3 191 179 190
3 232 229 223
3 223 229 222
3 189 186 197
3 35 186 189
3 233 211 210
3 234 235 147
3 233 225 211
3 147 235 236
3 237 238 210
3 89 112 115
3 210 231 237
3 114 115 112
3 132 122 136
3 12 239 240
3 240 11 12
3 88 195 173
3 240 238 11
3 237 11 238
3 194 215 198
3 89 183 176
3 88 183 89
3 212 63 213
3 61 213 63
3 178 179 34
3 186 34 179
3 198 215 217
3 241 224 226
3 241 226 242
3 204 96 95
3 204 95 205
3 44 46 42
3 44 42 41
3 54 243 55
3 88 188 183
3 215 243 54
3 82 81 99
3 244 112 175
3 166 175 112
3 110 99 81
3 51 66 226
3 188 88 173
3 84 55 5
3 245 5 55
3 173 195 174
3 166 112 176
3 176 112 89
3 82 242 66
3 226 66 242
3 79 132 136
3 55 243 245
3 215 194 243
3 245 243 194
3 153 155 170
3 241 79 225
3 9 11 237
3 9 237 71
3 211 79 209
3 70 238 20
3 240 20 238
3 161 246 247
3 230 80 214
3 216 24 227
3 54 24 216
3 24 23 227
3 51 227 23
3 209 80 230
3 172 169 248
3 170 155 172
3 211 225 79
3 217 214 198
3 231 214 216
3 209 230 231
3 231 210 209
3 247 246 249
3 248 250 172
3 241 225 224
3 80 141 198
3 233 227 225
3 198 214 80
3 80 209 79
3 51 226 227
3 251 252 82
3 242 82 252
3 82 99 251
3 242 253 241
3 141 201 140
3 254 255 241
3 79 241 255
3 88 90 4
3 193 245 194
3 245 196 5
3 193 196 245
3 256 120 257
3 254 32 200
3 29 28 32
3 156 246 161
3 258 249 246
3 257 259 256
3 158 147 149
3 171 250 248
3 260 147 158
3 234 147 260
3 261 164 256
3 249 258 134
3 261 244 262
3 102 149 147
3 208 174 263
3 263 248 208
3 249 264 265
3 175 265 244
3 101 158 149
3 193 192 263
3 263 174 193
3 170 172 142
3 251 159 252
3 258 246 134
3 250 171 172
3 262 124 123
3 22 25 227
3 70 22 227
3 216 227 25
3 25 71 216
3 237 216 71
3 125 124 134
3 134 246 122
3 156 122 246
3 231 216 237
3 210 238 233
3 165 123 187
3 185 165 187
3 181 130 123
3 70 227 238
3 16 119 185
3 233 238 227
3 185 187 17
3 185 17 16
3 125 134 133
3 239 12 10
3 57 17 187
3 121 146 145
3 121 145 162
3 121 162 163
3 240 239 20
3 239 10 20
3 9 20 10
3 117 152 143
3 117 143 167
3 117 167 266
3 117 266 146
3 193 174 195
3 248 263 192
3 195 88 4
3 126 267 144
3 57 187 130
3 248 192 171
3 168 129 151
3 59 130 181
3 139 140 201
3 247 203 169
3 268 269 247
3 269 203 247
3 208 169 203
3 257 270 113
3 113 270 251
3 99 113 251
3 262 244 124
3 264 124 244
3 261 112 244
3 99 271 113
3 249 134 264
3 264 134 124
3 112 261 113
3 244 265 264
3 272 273 115
3 256 113 261
3 61 228 213
3 272 274 273
3 248 169 208
3 235 275 236
3 169 172 155
3 275 276 236
3 268 247 249
3 133 132 199
3 2 4 3
3 132 79 255
3 276 277 278
3 241 253 254
3 279 280 116
3 6 8 121
3 32 254 253
3 242 252 253
3 281 282 283
3 48 31 68
3 67 162 145
3 252 29 253
3 257 120 270
3 284 267 247
3 6 121 163
3 262 165 261
3 169 219 247
3 169 168 219
3 284 247 219
3 155 129 169
3 267 126 247
3 115 280 272
3 257 113 274
3 47 146 266
3 274 272 257
3 47 266 167
3 279 272 280
3 259 257 272
3 133 199 182
3 279 259 272
3 285 115 286
3 287 286 115
3 247 126 161
3 199 132 180
3 288 113 289
3 271 289 113
3 287 288 289
3 287 289 286
3 289 271 285
3 289 285 286
3 144 151 150
3 128 150 151
3 144 290 220
3 168 151 220
3 144 220 151
3 200 180 255
3 219 203 269
3 219 269 284
3 200 255 254
3 56 143 152
3 223 220 232
3 290 232 220
3 206 213 228
3 60 228 61
3 97 96 291
3 269 291 96
3 268 291 269
3 292 147 236
3 268 265 291
3 268 249 265
3 293 294 283
3 277 283 294
3 262 123 165
3 291 265 175
3 175 97 291
3 284 295 267
3 182 125 133
3 144 267 290
3 295 290 267
3 3 90 111
3 107 111 90
3 296 204 206
3 297 0 111
3 3 111 0
3 296 206 229
3 228 229 206
3 132 255 180
3 229 232 296
3 295 269 296
3 284 269 295
3 204 296 269
3 204 269 96
3 232 290 296
3 295 296 290
3 63 212 202
3 207 202 212
3 32 253 29
3 298 100 87
3 277 275 299
3 111 300 301
3 111 301 297
3 294 278 277
3 159 251 118
3 251 270 118
3 302 299 275
3 270 120 118
3 275 277 276
3 256 164 120
3 164 261 165
3 298 301 300
3 236 276 278
3 252 159 29
3 278 292 236
3 277 299 281
3 277 281 283
3 300 100 298
3 235 302 275
3 111 100 300
3 1 280 285
3 1 285 99
3 271 99 285
3 115 285 280
3 256 274 113
3 259 273 256
3 274 256 273
3 279 116 273
3 298 87 280
3 115 273 116
3 0 297 301
3 259 279 273
3 298 1 301
3 114 113 288
3 280 1 298
3 287 115 114
3 287 114 288
3 0 301 1
3 303 157 106
3 147 292 293
3 299 303 106
3 278 293 292
3 302 303 299
3 157 101 106
3 293 278 294
3 235 234 302
3 106 103 148
3 108 160 109
3 160 89 109
3 86 109 89
3 116 86 89
3 87 86 116
3 280 87 116
3 293 148 147
3 103 104 148
3 157 260 158
3 303 260 157
3 234 260 303
3 304 148 283
3 282 304 283
3 293 283 148
3 303 302 234
3 106 304 299
3 281 299 282
3 106 148 304
3 282 299 304
