ply
format ascii 1.0
comment Exported by Aspose.3D 23.9.0
element vertex 80
property float x
property float y
property float z
property float nx
property float ny
property float nz
element face 160
property list uchar int vertex_index
end_header
-2.25 0.49799999594688416 2 -0.03053892254829407 0.5929640650749207 0.4
-2.25 0.49799999594688416 -1 0.03053892254829407 0.5929640650749207 -0.4
-2.482999801635742 0.5339999794960022 2 0.15210147202014923 0.46960027515888214 0.5
-2.6359996795654297 0.061000000685453415 -1 -0.15330685377120973 -0.5732619047164917 -0.4
-2.25 2.220446049250313E-16 -1 0 -0.3292473951975504 -0.6666666666666666
-2.25 2.220446049250313E-16 2 0 -0.4938710927963257 0.5
-2.9659996032714844 1.0169999599456787 -1 0.3755505561828614 0.12250888943672181 -0.6000000000000001
-2.9659996032714844 1.0169999599456787 2 0.5365007945469448 0.17501269919531684 0.42857142857142855
-2.8590002059936523 0.8080000281333923 -1 0.5324114759763081 0.387606014808019 -0.3333333333333333
-2.692000389099121 0.640999972820282 -1 0.26975488662719727 0.41456034779548645 -0.5
-2.482999801635742 0.5339999794960022 -1 0.10140098134676614 0.3130668501059214 -0.6666666666666666
-1.060999870300293 1.6360000371932983 -1 0.5732619047164917 0.15330685377120973 -0.4
-1 1.25 2 0.4938710927963257 0 0.5
-1 1.25 -1 0.3292473951975504 0 -0.6666666666666666
-1.060999870300293 0.8640000224113464 -1 0.626189112663269 -0.2034800996383031 -0.3333333333333333
-1.515000343322754 0.23899999260902405 -1 0.23229061961174013 -0.3195863842964173 -0.6000000000000001
-1.2390003204345703 0.5149999856948853 -1 0.3292912415095738 -0.26693712387766155 -0.5714285714285714
-1.515000343322754 0.23899999260902405 2 0.33184374230248587 -0.45655197756631033 0.42857142857142855
-1.8640003204345703 0.061000000685453415 -1 0.2034800996383031 -0.626189112663269 -0.3333333333333333
-1.807999610900879 1.8589999675750732 2 -0.332233726978302 -0.4563526936939784 0.42857142857142855
-1.807999610900879 1.8589999675750732 -1 -0.23256360888481142 -0.31944688558578493 -0.6000000000000001
-1.6409997940063477 1.6920000314712524 -1 -0.460868239402771 -0.3739849627017975 -0.4
-2.017000198364258 1.965999960899353 -1 -0.17804262042045593 -0.4613134066263834 -0.5
-2.8590002059936523 0.8080000281333923 2 0.39930860698223114 0.29070451110601425 0.5
-2.692000389099121 0.640999972820282 2 0.31165413558483124 0.38405686616897583 0.5
-2.482999801635742 1.965999960899353 2 0.17501269919531684 -0.5365007945469448 0.42857142857142855
-2.482999801635742 1.965999960899353 -1 0.12250888943672181 -0.3755505561828614 -0.6000000000000001
-2.25 2.003000020980835 -1 0 -0.49381256103515625 -0.5
-2.692000389099121 1.8589999675750732 -1 0.26975488662719727 -0.41456034779548645 -0.5
-3.439000129699707 1.6360000371932983 -1 -0.3757134675979614 0.12208805978298187 -0.6000000000000001
-3.2609996795654297 1.9850000143051147 -1 -0.39948298037052155 0.29036327451467514 -0.5
-2.9659996032714844 1.4830000400543213 -1 0.3755505561828614 -0.12250888943672181 -0.6000000000000001
-2.6359996795654297 2.438999891281128 -1 -0.1277557114760081 0.47771825393040973 -0.5
-3.003000259399414 1.25 -1 0.49381256103515625 0 -0.5
-3.2609996795654297 0.5149999856948853 -1 -0.3555367248398917 -0.23082848957606722 -0.5714285714285714
-3.439000129699707 0.8640000224113464 -1 -0.3757134675979614 -0.12208805978298187 -0.6000000000000001
-3.5 1.25 -1 -0.6584947903951008 0 -0.3333333333333333
-2.984999656677246 0.23899999260902405 -1 -0.33184374230248587 -0.45655197756631033 -0.42857142857142855
-2.017000198364258 0.5339999794960022 -1 -0.10872864297458103 0.40952493463243755 -0.5714285714285714
-1.6409997940063477 0.8080000281333923 -1 -0.5324114759763081 0.387606014808019 -0.3333333333333333
-1.807999610900879 0.640999972820282 -1 -0.26975488662719727 0.41456034779548645 -0.5
-1.5340003967285156 1.0169999599456787 -1 -0.40952493463243755 0.10872864297458103 -0.5714285714285714
-1.2390003204345703 1.9850000143051147 -1 0.39948298037052155 0.29036327451467514 -0.5
-1.515000343322754 2.260999917984009 -1 0.26929990450541175 0.4147928456465403 -0.5
-1.498000144958496 1.25 -1 -0.4941367208957672 0 -0.5
-2.25 2.5 2 0 0.6584947903951008 0.3333333333333333
-2.25 2.003000020980835 2 0 -0.3292083740234375 0.6666666666666666
-1.8640003204345703 2.438999891281128 2 0.17746443798144657 0.4615654150644938 0.5
-2.6359996795654297 2.438999891281128 2 -0.17746443798144657 0.4615654150644938 0.5
-2.984999656677246 2.260999917984009 2 -0.3114266445239385 0.38417311509450275 0.5
-2.017000198364258 1.965999960899353 2 -0.12822960317134857 -0.47756298383076984 0.5
-3.003000259399414 1.25 2 0.3292083740234375 0 0.6666666666666666
-3.439000129699707 0.8640000224113464 2 -0.5367335251399449 -0.17441151397568838 0.42857142857142855
-2.017000198364258 0.5339999794960022 2 -0.15201673763138907 0.3955041084970746 0.5714285714285714
-1.807999610900879 0.640999972820282 2 -0.31165413558483124 0.38405686616897583 0.5
-1.6409997940063477 0.8080000281333923 2 -0.39930860698223114 0.29070451110601425 0.5
-1.2390003204345703 0.5149999856948853 2 0.3555367248398917 -0.23082848957606722 0.5714285714285714
-2.9659996032714844 1.4830000400543213 2 0.5365007945469448 -0.17501269919531684 0.42857142857142855
-2.8590002059936523 1.6920000314712524 -1 0.5324114759763081 -0.387606014808019 -0.3333333333333333
-3.2609996795654297 0.5149999856948853 2 -0.3292912415095738 -0.26693712387766155 0.5714285714285714
-2.984999656677246 0.23899999260902405 2 -0.23229061961174013 -0.3195863842964173 0.6000000000000001
-1.498000144958496 1.25 2 -0.6588489611943562 0 0.3333333333333333
-1.5340003967285156 1.4830000400543213 -1 -0.46960027515888214 -0.15210147202014923 -0.5
-1.5340003967285156 1.4830000400543213 2 -0.3130668501059214 -0.10140098134676614 0.6666666666666666
-1.6409997940063477 1.6920000314712524 2 -0.49747241735458375 -0.32370586395263673 0.4
-1.2390003204345703 1.9850000143051147 2 0.26632198691368103 0.19357551634311676 0.6666666666666666
-2.692000389099121 1.8589999675750732 2 0.31165413558483124 -0.38405686616897583 0.5
-2.8590002059936523 1.6920000314712524 2 0.39930860698223114 -0.29070451110601425 0.5
-3.2609996795654297 1.9850000143051147 2 -0.26632198691368103 0.19357551634311676 0.6666666666666666
-2.6359996795654297 0.061000000685453415 2 -0.21295732557773592 -0.5538784980773926 0.4
-3.439000129699707 1.6360000371932983 2 -0.5367335251399449 0.17441151397568838 0.42857142857142855
-1.515000343322754 2.260999917984009 2 0.3114266445239385 0.38417311509450275 0.5
-1.060999870300293 1.6360000371932983 2 0.5538784980773926 0.21295732557773592 0.4
-1.060999870300293 0.8640000224113464 2 0.4696418344974518 -0.15261007472872734 0.5
-1.8640003204345703 0.061000000685453415 2 0.15261007472872734 -0.4696418344974518 0.5
-1.5340003967285156 1.0169999599456787 2 -0.3955041084970746 0.15201673763138907 0.5714285714285714
-2.25 2.5 -1 0 0.4938710927963257 -0.5
-1.8640003204345703 2.438999891281128 -1 0.1277557114760081 0.47771825393040973 -0.5
-2.984999656677246 2.260999917984009 -1 -0.26929990450541175 0.4147928456465403 -0.5
-3.5 1.25 2 -0.4938710927963257 0 0.5
3 0 1 2
3 3 4 5
3 6 7 8
3 9 2 10
3 11 12 13
3 13 12 14
3 10 2 1
3 15 16 17
3 4 18 5
3 19 20 21
3 22 20 19
3 7 23 8
3 23 24 8
3 9 8 24
3 9 24 2
3 25 26 27
3 26 25 28
3 29 30 31
3 26 32 27
3 29 31 33
3 8 9 34
3 35 36 33
3 37 34 9
3 4 38 18
3 39 16 40
3 15 40 16
3 18 38 15
3 16 39 41
3 42 21 20
3 20 43 42
3 20 22 43
3 41 44 13
3 13 14 41
3 16 41 14
3 45 46 47
3 48 46 45
3 49 25 48
3 46 50 47
3 7 51 52
3 0 5 53
3 54 53 17
3 55 54 56
3 57 31 58
3 52 59 7
3 57 33 31
3 23 59 24
3 2 24 60
3 44 61 62
3 63 62 61
3 6 33 7
3 64 21 62
3 64 62 63
3 21 64 19
3 0 38 1
3 50 22 19
3 22 50 27
3 46 27 50
3 64 65 19
3 46 48 25
3 25 27 46
3 66 28 25
3 28 66 58
3 67 58 66
3 67 68 57
3 69 3 5
3 3 69 37
3 60 37 69
3 57 58 67
3 60 59 37
3 34 37 59
3 52 34 59
3 30 29 70
3 68 30 70
3 71 65 42
3 11 42 72
3 65 72 42
3 72 12 11
3 12 73 14
3 16 14 56
3 73 56 14
3 33 57 51
3 17 16 56
3 15 17 18
3 74 18 17
3 5 18 74
3 53 38 0
3 38 53 40
3 54 40 53
3 68 67 66
3 25 49 66
3 68 66 49
3 71 47 50
3 50 19 71
3 40 54 39
3 55 39 54
3 55 75 39
3 41 39 75
3 61 41 75
3 44 41 61
3 51 7 33
3 76 27 32
3 77 27 76
3 26 28 78
3 32 26 78
3 29 33 36
3 1 38 4
3 40 15 38
3 79 52 51
3 60 24 59
3 23 7 59
3 70 79 51
3 51 57 70
3 68 70 57
3 8 34 6
3 34 35 6
3 33 6 35
3 45 76 32
3 77 76 45
3 3 37 10
3 9 10 37
3 4 3 10
3 10 1 4
3 44 62 13
3 11 13 62
3 21 42 62
3 11 62 42
3 77 43 22
3 74 17 53
3 60 69 2
3 69 5 2
3 0 2 5
3 74 53 5
3 27 77 22
3 28 58 30
3 30 78 28
3 58 31 30
3 63 65 64
3 61 75 12
3 56 73 75
3 75 55 56
3 56 54 17
3 73 12 75
3 63 61 12
3 12 72 63
3 65 63 72
3 71 19 65
3 78 30 49
3 49 30 68
3 32 78 48
3 49 48 78
3 48 45 32
3 77 45 47
3 47 71 43
3 47 43 77
3 42 43 71
3 34 52 35
3 35 52 36
3 79 36 52
3 70 29 36
3 70 36 79
