ply
format ascii 1.0
comment Exported by Aspose.3D 23.9.0
element vertex 194
property float x
property float y
property float z
property float nx
property float ny
property float nz
element face 384
property list uchar int vertex_index
end_header
-2.8239994049072266 0.761993408203125 -4.5410003662109375 -0.5654612609318325 -0.0736181970153536 0.42857142857142855
-2.788999557495117 0.5839996337890625 -4.5410003662109375 -0.47878269354502356 -0.14046168078978855 0.5
-2.6569995880126953 0.8159942626953125 -4.5410003662109375 -0.3684506515661875 -0.33459956447283423 0.5
-2.732999801635742 0.9120025634765625 -4.5410003662109375 -0.42716675996780396 -0.2557768921057383 0.5
-2.836000442504883 0.946990966796875 -4.5410003662109375 -0.49895143508911133 0.010788138955831528 0.5
-2.788999557495117 1.02099609375 -4.5410003662109375 -0.3697685718536377 -0.1478291094303131 0.6000000000000001
-2.2239990234375 0.6309967041015625 -4.5410003662109375 0 -0.24873851239681244 0.75
-2.3430004119873047 0.6429901123046875 -4.5410003662109375 -0.09976974502205849 -0.48732155561447144 0.5
-2.4580001831054688 0.071990966796875 -4.5410003662109375 -0.21189342737197878 -0.3356313586235047 0.6000000000000001
-2.823057174682617 1.1367950439453125 -5.818000793457031 -0.09702885150909424 -0.0044615738093853 -0.9
-2.823057174682617 1.1367950439453125 -4.5410003662109375 -0.8285550049373082 -0.10611365948404584 0.14285714285714285
-2.8239994049072266 1.1399993896484375 -5.818000793457031 -0.485667606194814 -0.11023877188563347 -0.5
-2.8239994049072266 1.1320037841796875 -5.818000793457031 -0.4947786033153534 0.06441592238843441 -0.5
-2.8239994049072266 1.1320037841796875 -4.5410003662109375 -0.4947786033153534 0.06441592238843441 0.5
-1.6240005493164062 1.1399993896484375 6.951999664306641 0.5584686143057687 -0.10836179980209895 -0.42857142857142855
-1.6249427795410156 1.1367950439453125 -4.5410003662109375 0.8285550049373082 -0.10611365948404584 0.14285714285714285
-1.6240005493164062 1.1399993896484375 -5.818000793457031 0.5828011274337769 -0.13228652626276016 -0.4
-1.6249427795410156 1.1367950439453125 -5.818000793457031 0.38811540603637695 -0.0178462952375412 -0.6000000000000001
-1.6240005493164062 1.1320037841796875 -4.5410003662109375 0.5954034566879273 0.06447850465774536 0.4
-1.6240005493164062 1.1320037841796875 -5.818000793457031 0.5920651912689209 0.09011970907449723 -0.4
-1.61199951171875 0.946990966796875 -4.5410003662109375 0.3991611480712891 0 0.6000000000000001
-1.61199951171875 0.946990966796875 -5.818000793457031 0.49895143508911133 0 -0.5
-2.836000442504883 0.946990966796875 -5.818000793457031 -0.5987417221069337 -0.012945766746997834 -0.4
-1.6240005493164062 0.761993408203125 -4.5410003662109375 0.5654612609318325 -0.0736181970153536 0.42857142857142855
-1.6240005493164062 0.761993408203125 -5.818000793457031 0.4947786033153534 -0.06441592238843441 -0.5
-1.6590003967285156 0.5839996337890625 -4.5410003662109375 0.47878269354502356 -0.14046168078978855 0.5
-1.6590003967285156 0.5839996337890625 -5.818000793457031 0.4846942325433095 -0.11846455434958139 -0.5
-1.7150001525878906 0.420989990234375 -4.5410003662109375 0.45241863528887427 -0.2097391386826833 0.5
-1.7150001525878906 0.420989990234375 -5.818000793457031 0.46264489491780597 -0.1860989729563395 -0.5
-1.7910003662109375 0.2769927978515625 -4.5410003662109375 0.40919532378514606 -0.28412532806396484 0.5
-1.7910003662109375 0.2769927978515625 -5.818000793457031 0.4256938497225443 -0.25875231623649597 -0.5
-1.8840007781982422 0.15899658203125 -4.5410003662109375 0.3549554944038391 -0.3479945808649063 0.5
-1.8840007781982422 0.15899658203125 -5.818000793457031 0.4056634221758161 -0.39770809241703575 -0.42857142857142855
-1.989999771118164 0.071990966796875 -4.5410003662109375 0.28231591979662574 -0.4085230727990468 0.5
-1.989999771118164 0.071990966796875 -5.818000793457031 0.2474176486333211 -0.4305553237597147 -0.5
-2.104999542236328 0.0179901123046875 -4.5410003662109375 0.19992735087871552 -0.5598206162452698 0.4
-2.4580001831054688 0.071990966796875 -5.818000793457031 -0.3027048962456839 -0.47947336946214947 -0.42857142857142855
-2.3430004119873047 0.0179901123046875 -4.5410003662109375 -0.19153266648451486 -0.6313093105951945 0.3333333333333333
-2.5639991760253906 0.15899658203125 -4.5410003662109375 -0.4108500719070435 -0.4329919934272766 0.4
-2.5639991760253906 0.15899658203125 -5.818000793457031 -0.36753592888514197 -0.3351625005404154 -0.5
-2.6569995880126953 0.2769927978515625 -4.5410003662109375 -0.40919532378514606 -0.28412532806396484 0.5
-2.6569995880126953 0.2769927978515625 -5.818000793457031 -0.4256938497225443 -0.25875231623649597 -0.5
-2.732999801635742 0.420989990234375 -4.5410003662109375 -0.45241863528887427 -0.2097391386826833 0.5
-2.732999801635742 0.420989990234375 -5.818000793457031 -0.46264489491780597 -0.1860989729563395 -0.5
-2.788999557495117 0.5839996337890625 -5.818000793457031 -0.4846942325433095 -0.11846455434958139 -0.5
-2.8239994049072266 0.761993408203125 -5.818000793457031 -0.3298524022102356 -0.04294394825895627 -0.6666666666666666
-2.104999542236328 0.0179901123046875 -5.818000793457031 0.12069287399450937 -0.48044678568840027 -0.5
-2.2239990234375 0 -4.5410003662109375 0.029911848902702334 -0.5932516694068909 0.4
-2.2239990234375 0 -5.818000793457031 -0.037389811128377914 -0.7415645867586136 -0.25
-2.3430004119873047 0.0179901123046875 -5.818000793457031 -0.14364949986338615 -0.4734819829463959 -0.5
-1 5.052001953125 21 0.3333333333333333 0.3333333333333333 0.3333333333333333
-1 4.209991455078125 21 0.3333333333333333 -0.3333333333333333 0.3333333333333333
-1 4.209991455078125 8.229000091552734 0.4 -0.4 -0.2
-1 5.052001953125 8.229000091552734 0.2 0.2 -0.6000000000000001
-1 0 21 0.2857142857142857 -0.2857142857142857 0.42857142857142855
-1 1.26300048828125 8.229000091552734 0.7758556074566311 8.302927017211914E-05 -0.2222222222222222
-1 3.3679962158203125 21 0.4 0.4 0.2
-1 3.3679962158203125 8.229000091552734 0.1111111111111111 0.1111111111111111 -0.7777777777777777
-1 0 8.229000091552734 0.1 -0.1 -0.8
-1.6240005493164062 1.3860015869140625 6.951999664306641 0.5582830735615322 0.1089899731533868 -0.42857142857142855
-1.6590003967285156 1.503997802734375 6.951999664306641 0.36997584104537967 0.1476095974445343 -0.6000000000000001
-1.023000717163086 1.509002685546875 6.951999664306641 0.558485814503261 0.1075290037052972 -0.42857142857142855
-1 1.26300048828125 6.951999664306641 0.33189170559247333 6.227195262908936E-05 -0.6666666666666666
-1.61199951171875 1.26300048828125 6.951999664306641 0.4976373314857483 0 -0.5
-1.023000717163086 1.0159912109375 6.951999664306641 0.491737961769104 -0.07811569919188817 -0.5
-1.0930004119873047 0.77899169921875 6.951999664306641 0.5276739597320557 -0.21241710015705653 -0.42857142857142855
-1.6590003967285156 1.02099609375 6.951999664306641 0.46803472439448035 -0.17021864652633667 -0.5
-1.2059993743896484 0.561004638671875 6.951999664306641 0.33405623435974124 -0.21657857894897461 -0.6000000000000001
-1.7150001525878906 0.9120025634765625 6.951999664306641 0.478149482182094 -0.3079091821398054 -0.42857142857142855
-1.3579998016357422 0.3699951171875 6.951999664306641 0.3687234123547872 -0.3345884482065836 -0.5
-1.7910003662109375 0.8159942626953125 6.951999664306641 0.28533161878585817 -0.2773788928985596 -0.6000000000000001
-1.5440006256103516 0.2119903564453125 6.951999664306641 0.3221205472946167 -0.4684010573795863 -0.42857142857142855
-1.8840007781982422 0.7379913330078125 6.951999664306641 0.2952612042427063 -0.4010252058506012 -0.5
-1.0930004119873047 1.746002197265625 6.951999664306641 0.36954333782196047 0.1483602225780487 -0.6000000000000001
-1.7150001525878906 1.6139984130859375 6.951999664306641 0.477723411151341 0.30810803174972534 -0.42857142857142855
-3.447999954223633 0 8.229000091552734 -0.1 -0.1 -0.8
-2.2239990234375 0 8.229000091552734 -0.01248948834836483 -0.7481234595179558 -0.25
-3.447999954223633 0 21 -0.3333333333333333 -0.3333333333333333 0.3333333333333333
-1.61199951171875 3.3679962158203125 21 0.2 0.2 0.6000000000000001
-1.61199951171875 4.209991455078125 21 0.2222222222222222 -0.2222222222222222 0.5555555555555556
-1.61199951171875 3.3679962158203125 8.229000091552734 0.2 0.2 -0.6000000000000001
-1.61199951171875 4.209991455078125 8.229000091552734 0.2 -0.2 -0.6000000000000001
-1.2059993743896484 1.964996337890625 8.229000091552734 0.49072079658508305 0.34078575372695924 -0.4
-1.3579998016357422 2.1559906005859375 8.229000091552734 0.35687147080898285 0.34671488404273987 -0.5
-1.7560005187988281 2.42999267578125 8.229000091552734 0.15662428736686707 0.365895414352417 -0.6000000000000001
-1.5440006256103516 2.3130035400390625 8.229000091552734 0.3760691384474436 0.546560784180959 -0.3333333333333333
-1.0930004119873047 1.746002197265625 8.229000091552734 0.6159055630366007 0.24726703763008118 -0.3333333333333333
-1.2059993743896484 1.964996337890625 6.951999664306641 0.4266355037689209 0.25662895043691 -0.5
-1.023000717163086 1.509002685546875 8.229000091552734 0.4886750876903534 0.09408787824213505 -0.5
-1.023000717163086 1.0159912109375 8.229000091552734 0.5827555775642396 -0.13184788972139358 -0.4
-1.2059993743896484 0.561004638671875 8.229000091552734 0.5567603905995686 -0.360964298248291 -0.3333333333333333
-1.0930004119873047 0.77899169921875 8.229000091552734 0.4617147147655487 -0.18586496263742447 -0.5
-1.3579998016357422 0.3699951171875 8.229000091552734 0.41545720100402833 -0.4293955087661743 -0.4
-1.5440006256103516 0.2119903564453125 8.229000091552734 0.2818554788827896 -0.40985092520713806 -0.5
-1.7560005187988281 0.0959930419921875 8.229000091552734 0.2599821090698242 -0.610407292842865 -0.3333333333333333
-1.5440006256103516 2.3130035400390625 6.951999664306641 0.2256414830684662 0.32793647050857544 -0.6000000000000001
-1.7560005187988281 2.42999267578125 6.951999664306641 0.22374898195266724 0.5227077347891671 -0.42857142857142855
-1.3579998016357422 2.1559906005859375 6.951999664306641 0.40785310949598036 0.39624558176313124 -0.42857142857142855
-2.788999557495117 1.503997802734375 -5.818000793457031 -0.4568403859933217 0.19862183928489685 -0.5
-2.8239994049072266 1.3860015869140625 -5.818000793457031 -0.6513302524884541 0.12715496867895126 -0.3333333333333333
-2.732999801635742 1.6139984130859375 -5.818000793457031 -0.4180079847574234 0.2695945277810097 -0.5
-2.4580001831054688 1.8459930419921875 -5.818000793457031 -0.25175405740737916 0.5417713284492492 -0.4
-2.5639991760253906 1.787994384765625 -5.818000793457031 -0.2818554788827896 0.40985092520713806 -0.5
-2.6569995880126953 1.7089996337890625 -5.818000793457031 -0.4760931134223938 0.4622788429260254 -0.3333333333333333
-2.2239990234375 1.8939971923828125 -5.818000793457031 -0.02006630003452301 0.5969724297523499 -0.4
-2.104999542236328 1.8820037841796875 -5.818000793457031 0.13302632669607797 0.6497620741526285 -0.3333333333333333
-1.7150001525878906 1.6139984130859375 -5.818000793457031 0.4180079847574234 0.2695945277810097 -0.5
-1.6590003967285156 1.503997802734375 -5.818000793457031 0.6166264017422993 0.2460159957408905 -0.3333333333333333
-1.6240005493164062 1.3860015869140625 -5.818000793457031 0.48849768936634064 0.09536622650921345 -0.5
-1.61199951171875 1.26300048828125 -5.818000793457031 0.6635164419809977 0 -0.3333333333333333
-2.3430004119873047 1.8820037841796875 -5.818000793457031 -0.13956529200077059 0.5807236790657043 -0.4
-2.836000442504883 1.26300048828125 -5.818000793457031 -0.7464559972286224 -0.02427499182522297 -0.25
-1.989999771118164 1.8459930419921875 -5.818000793457031 0.19468972086906433 0.4578986018896103 -0.5
-1.8840007781982422 1.787994384765625 -5.818000793457031 0.3758073051770528 0.5464679002761841 -0.3333333333333333
-1.7910003662109375 1.7089996337890625 -5.818000793457031 0.44182963371276857 0.40230631828308105 -0.4
-3.423999786376953 1.509002685546875 6.951999664306641 -0.3910821318626404 0.07532664686441422 -0.6000000000000001
-2.8239994049072266 1.3860015869140625 6.951999664306641 -0.3907981514930725 0.07629298120737077 -0.6000000000000001
-3.447999954223633 1.26300048828125 6.951999664306641 -0.4976468086242676 9.735859930515289E-05 -0.5
-3.354999542236328 1.746002197265625 6.951999664306641 -0.5282314334596906 0.2108779464449201 -0.42857142857142855
-2.788999557495117 1.503997802734375 6.951999664306641 -0.4680992166201273 0.1704021543264389 -0.5
-3.2420005798339844 1.964996337890625 6.951999664306641 -0.33382880687713623 0.21674655675888063 -0.6000000000000001
-2.732999801635742 1.6139984130859375 6.951999664306641 -0.477723411151341 0.30810803174972534 -0.42857142857142855
-2.836000442504883 1.26300048828125 6.951999664306641 -0.597164797782898 0.019419993460178378 -0.4
-2.8239994049072266 1.1399993896484375 6.951999664306641 -0.5584686143057687 -0.10836179980209895 -0.42857142857142855
-2.788999557495117 1.02099609375 6.951999664306641 -0.5282408169337681 -0.21118444204330444 -0.42857142857142855
-3.423999786376953 1.0159912109375 6.951999664306641 -0.4859307607014974 -0.10929617782433827 -0.5
-3.354999542236328 0.77899169921875 6.951999664306641 -0.45596139629681903 -0.19998830556869507 -0.5
-2.9039993286132812 2.3130035400390625 6.951999664306641 -0.26890385150909424 0.41891373197237647 -0.5
-2.5639991760253906 1.787994384765625 6.951999664306641 -0.3221205472946167 0.4684010573795863 -0.42857142857142855
-3.089000701904297 2.1559906005859375 6.951999664306641 -0.4078628846577235 0.39646879264286583 -0.42857142857142855
-2.732999801635742 0.9120025634765625 6.951999664306641 -0.4095948338508606 -0.2830641766389211 -0.5
-2.9039993286132812 0.2119903564453125 6.951999664306641 -0.2258895516395569 -0.3275356411933899 -0.6000000000000001
-3.089000701904297 0.3699951171875 6.951999664306641 -0.4085446766444615 -0.3958883455821446 -0.42857142857142855
-2.5639991760253906 0.7379913330078125 6.951999664306641 -0.2257909893989563 -0.32799193859100345 -0.6000000000000001
-2.836000442504883 4.209991455078125 8.229000091552734 -0.2222222222222222 -0.2222222222222222 -0.5555555555555556
-2.6919994354248047 2.42999267578125 8.229000091552734 -0.22374898195266724 0.5227077347891671 -0.42857142857142855
-2.836000442504883 3.3679962158203125 8.229000091552734 -0.14285714285714285 0.14285714285714285 -0.7142857142857142
-2.4629993438720703 2.5019989013671875 8.229000091552734 -0.09996270760893822 0.48723888397216797 -0.5
-2.4629993438720703 2.5019989013671875 6.951999664306641 -0.1142430944102151 0.5568444388253347 -0.42857142857142855
-2.6919994354248047 2.42999267578125 6.951999664306641 -0.15662428736686707 0.365895414352417 -0.6000000000000001
-2.2239990234375 2.5260009765625 8.229000091552734 0 0.5685690811702183 -0.42857142857142855
-1.9850006103515625 2.5019989013671875 8.229000091552734 0.13995715081691742 0.5805830359458923 -0.4
-2.2239990234375 2.5260009765625 6.951999664306641 0 0.49749794602394104 -0.5
-1.9850006103515625 2.5019989013671875 6.951999664306641 0.08329445620377858 0.490658571322759 -0.5
-2.6569995880126953 1.7089996337890625 6.951999664306641 -0.2856558680534363 0.27736730575561525 -0.6000000000000001
-3.2420005798339844 0.561004638671875 6.951999664306641 -0.3336572408676148 -0.2170783042907715 -0.6000000000000001
-2.104999542236328 1.8820037841796875 6.951999664306641 0.0798157960176468 0.38985724449157716 -0.6000000000000001
-1.989999771118164 1.8459930419921875 6.951999664306641 0.2225025381360735 0.5233126878738403 -0.42857142857142855
-1.8840007781982422 1.787994384765625 6.951999664306641 0.2254843831062317 0.32788074016571045 -0.6000000000000001
-1.7910003662109375 1.7089996337890625 6.951999664306641 0.34594830870628357 0.3581629991531372 -0.5
-1.989999771118164 0.6790008544921875 6.951999664306641 0.2243114709854126 -0.5223143781934465 -0.42857142857142855
-1.7560005187988281 0.0959930419921875 6.951999664306641 0.15598926544189454 -0.366244375705719 -0.6000000000000001
-2.104999542236328 0.6429901123046875 6.951999664306641 0.0798157960176468 -0.38985724449157716 -0.6000000000000001
-1.9850006103515625 0.0240020751953125 6.951999664306641 0.11663095901409784 -0.4838191966215769 -0.5
-2.2239990234375 0 6.951999664306641 0.01998318135738373 -0.5969975352287292 -0.4
-2.2239990234375 0.6309967041015625 6.951999664306641 0 -0.4974770247936249 -0.5
-2.4629993438720703 0.0240020751953125 6.951999664306641 -0.08329445620377858 -0.490658571322759 -0.5
-2.6919994354248047 0.0959930419921875 6.951999664306641 -0.22284180777413504 -0.52320625100817 -0.42857142857142855
-2.3430004119873047 0.6429901123046875 6.951999664306641 -0.0798157960176468 -0.38985724449157716 -0.6000000000000001
-2.6569995880126953 0.8159942626953125 6.951999664306641 -0.3448783953984578 -0.35884766777356464 -0.5
-2.4580001831054688 0.6790008544921875 -4.5410003662109375 -0.15701802968978884 -0.36562006473541264 0.6000000000000001
-2.4580001831054688 0.6790008544921875 6.951999664306641 -0.2243114709854126 -0.5223143781934465 -0.42857142857142855
-2.5639991760253906 0.7379913330078125 -4.5410003662109375 -0.32255855628422325 -0.468559912272862 0.42857142857142855
-3.447999954223633 4.209991455078125 8.229000091552734 -0.3333333333333333 -0.3333333333333333 -0.3333333333333333
-3.447999954223633 4.209991455078125 21 -0.4 -0.4 0.2
-3.447999954223633 5.052001953125 8.229000091552734 -0.3333333333333333 0.3333333333333333 -0.3333333333333333
-3.447999954223633 5.052001953125 21 -0.2 0.2 0.6000000000000001
-1.6590003967285156 1.02099609375 -4.5410003662109375 0.45638670523961383 -0.1993541270494461 0.5
-1.7910003662109375 0.8159942626953125 -4.5410003662109375 0.4076165982655116 -0.3962555612836565 0.42857142857142855
-1.8840007781982422 0.7379913330078125 -4.5410003662109375 0.26921626925468445 -0.41895464062690735 0.5
-2.104999542236328 0.6429901123046875 -4.5410003662109375 0.09976974502205849 -0.48732155561447144 0.5
-1.7150001525878906 0.9120025634765625 -4.5410003662109375 0.3347046375274658 -0.21553642749786378 0.6000000000000001
-1.989999771118164 0.6790008544921875 -4.5410003662109375 0.15701802968978884 -0.36562006473541264 0.6000000000000001
-2.2239990234375 1.8939971923828125 6.951999664306641 0.014333071453230721 0.42640887839453556 -0.5714285714285714
-2.4580001831054688 1.8459930419921875 6.951999664306641 -0.17958439389864603 0.4643210967381795 -0.5
-2.3430004119873047 1.8820037841796875 6.951999664306641 -0.08323508004347482 0.4907067120075226 -0.5
-3.447999954223633 3.3679962158203125 8.229000091552734 -0.1 0.2 -0.7000000000000001
-3.447999954223633 1.26300048828125 8.229000091552734 -0.7129410334995815 5.5633485317230225E-05 -0.2857142857142857
-3.447999954223633 3.3679962158203125 21 -0.5 0.25 0.25
-2.836000442504883 3.3679962158203125 21 -0.2222222222222222 0.2222222222222222 0.5555555555555556
-2.836000442504883 4.209991455078125 21 -0.2 -0.2 0.6000000000000001
-2.9039993286132812 2.3130035400390625 8.229000091552734 -0.3554573357105255 0.48008249998092656 -0.4
-3.2420005798339844 1.964996337890625 8.229000091552734 -0.556381344795227 0.361244261264801 -0.3333333333333333
-3.089000701904297 2.1559906005859375 8.229000091552734 -0.3568800240755081 0.34691019356250763 -0.5
-3.423999786376953 1.509002685546875 8.229000091552734 -0.6518035531044006 0.12554441144069034 -0.3333333333333333
-3.354999542236328 1.746002197265625 8.229000091552734 -0.4622025042772293 0.18451820313930511 -0.5
-3.089000701904297 0.3699951171875 8.229000091552734 -0.3574765920639038 -0.3464023023843765 -0.5
-2.9039993286132812 0.2119903564453125 8.229000091552734 -0.3764825860659281 -0.5458927353223164 -0.3333333333333333
-3.2420005798339844 0.561004638671875 8.229000091552734 -0.5560954014460245 -0.36179717381795246 -0.3333333333333333
-3.354999542236328 0.77899169921875 8.229000091552734 -0.561617636680603 -0.2038529634475708 -0.4
-3.423999786376953 1.0159912109375 8.229000091552734 -0.5901522278785706 -0.09459086656570435 -0.4
-2.6919994354248047 0.0959930419921875 8.229000091552734 -0.19498658180236816 -0.45780546963214874 -0.5
-2.4629993438720703 0.0240020751953125 8.229000091552734 -0.13995715081691742 -0.5805830359458923 -0.4
-1.9850006103515625 0.0240020751953125 8.229000091552734 0.09995334744453431 -0.5887902855873108 -0.4
3 0 1 2
3 2 3 0
3 4 0 3
3 3 5 4
3 6 7 8
3 9 10 11
3 10 12 13
3 10 9 12
3 14 15 16
3 16 15 17
3 18 19 15
3 17 15 19
3 18 20 21
3 19 18 21
3 4 13 12
3 22 4 12
3 21 20 23
3 21 23 24
3 23 25 26
3 23 26 24
3 25 27 28
3 25 28 26
3 27 29 30
3 27 30 28
3 29 31 32
3 29 32 30
3 33 34 32
3 33 32 31
3 34 33 35
3 8 36 37
3 38 39 36
3 38 36 8
3 40 41 39
3 40 39 38
3 42 43 41
3 42 41 40
3 1 44 43
3 1 43 42
3 0 45 44
3 1 0 44
3 22 45 0
3 22 0 4
3 34 35 46
3 47 48 46
3 47 46 35
3 37 49 48
3 37 48 47
3 36 49 37
3 50 51 52
3 53 50 52
3 54 55 56
3 57 56 55
3 55 54 58
3 59 60 61
3 61 62 59
3 63 59 62
3 64 14 62
3 65 66 64
3 67 68 65
3 69 70 67
3 71 72 69
3 73 61 60
3 60 74 73
3 75 76 77
3 56 78 54
3 79 51 50
3 56 80 78
3 52 51 79
3 53 52 81
3 80 56 57
3 52 79 81
3 82 83 57
3 84 57 85
3 85 57 83
3 82 57 86
3 82 86 87
3 86 57 88
3 86 88 61
3 55 88 57
3 88 55 61
3 55 58 89
3 90 91 58
3 89 58 91
3 89 91 65
3 90 58 92
3 91 90 65
3 92 93 71
3 93 94 71
3 92 58 93
3 95 96 85
3 85 83 97
3 85 97 95
3 83 82 97
3 82 87 97
3 87 86 73
3 86 61 73
3 61 55 62
3 89 64 55
3 62 55 64
3 89 65 64
3 65 90 67
3 90 92 69
3 90 69 67
3 71 69 92
3 80 79 78
3 79 80 81
3 98 11 99
3 100 9 98
3 101 9 102
3 103 102 9
3 104 105 9
3 106 107 9
3 108 109 9
3 12 9 17
3 16 17 9
3 110 9 101
3 11 98 9
3 111 99 11
3 100 103 9
3 110 104 9
3 105 112 9
3 113 9 112
3 113 114 9
3 114 106 9
3 107 108 9
3 109 16 9
3 12 17 19
3 12 19 21
3 12 21 22
3 45 22 21
3 45 21 24
3 45 24 26
3 28 44 26
3 30 43 28
3 32 41 30
3 34 39 32
3 46 36 34
3 41 32 39
3 43 30 41
3 44 28 43
3 45 26 44
3 39 34 36
3 36 46 49
3 48 49 46
3 77 76 54
3 58 54 76
3 115 116 117
3 118 119 115
3 120 121 118
3 122 123 117
3 123 124 125
3 125 117 123
3 126 125 124
3 127 128 129
3 124 130 126
3 131 132 133
3 53 81 134
3 135 136 137
3 135 137 138
3 135 138 139
3 137 140 138
3 140 80 141
3 57 84 80
3 141 80 84
3 141 84 96
3 140 142 138
3 142 140 143
3 141 143 140
3 141 96 143
3 96 84 85
3 122 117 116
3 116 115 119
3 119 118 121
3 121 120 144
3 144 129 128
3 145 126 130
3 146 96 147
3 148 97 149
3 74 149 87
3 97 87 149
3 87 73 74
3 63 62 14
3 14 64 66
3 66 65 68
3 68 67 70
3 70 69 72
3 72 71 150
3 150 151 152
3 153 154 155
3 156 157 158
3 154 156 155
3 158 155 156
3 159 133 132
3 132 145 159
3 130 159 145
3 160 161 162
3 163 164 165
3 166 165 164
3 167 66 68
3 111 123 122
3 113 147 148
3 148 149 113
3 107 74 60
3 60 59 107
3 109 59 63
3 109 63 14
3 167 15 66
3 168 68 70
3 70 72 168
3 169 168 72
3 169 72 150
3 170 150 152
3 170 152 155
3 149 114 113
3 160 7 161
3 133 162 161
3 108 107 59
3 162 133 159
3 59 109 108
3 121 100 98
3 121 98 119
3 100 121 103
3 144 103 121
3 144 128 103
3 111 122 99
3 116 99 122
3 171 167 68
3 99 116 119
3 68 168 171
3 150 172 169
3 147 112 105
3 150 170 172
3 123 11 10
3 6 170 155
3 11 123 111
3 6 155 7
3 158 7 155
3 104 173 105
3 158 161 7
3 147 113 112
3 2 162 159
3 106 114 74
3 149 74 114
3 159 130 2
3 3 2 130
3 106 74 107
3 130 124 3
3 5 3 124
3 14 16 109
3 14 66 15
3 119 98 99
3 101 128 174
3 102 103 128
3 175 110 174
3 128 101 102
3 123 10 124
3 176 177 178
3 77 178 177
3 5 124 10
3 75 77 177
3 4 5 13
3 10 13 5
3 77 179 178
3 166 164 180
3 164 134 180
3 165 53 134
3 165 134 163
3 136 176 179
3 178 179 176
3 134 164 163
3 181 176 135
3 182 176 183
3 35 6 47
3 37 47 6
3 33 6 35
3 8 37 6
3 31 170 33
3 40 38 7
3 7 160 40
3 29 170 31
3 38 8 7
3 183 176 181
3 136 135 176
3 139 127 135
3 15 167 18
3 167 171 20
3 20 18 167
3 23 20 171
3 171 168 23
3 177 176 184
3 25 23 168
3 184 117 177
3 184 176 185
3 168 169 25
3 172 27 169
3 185 176 182
3 29 27 172
3 25 169 27
3 172 170 29
3 75 186 187
3 6 33 170
3 42 40 160
3 160 162 42
3 186 75 188
3 186 188 132
3 1 42 162
3 162 2 1
3 188 75 189
3 126 188 189
3 101 174 110
3 189 75 190
3 189 190 125
3 189 125 126
3 173 104 175
3 110 175 104
3 177 190 75
3 146 105 173
3 190 177 117
3 190 117 125
3 146 147 105
3 75 191 192
3 191 75 187
3 127 129 181
3 183 181 129
3 181 135 127
3 184 115 117
3 115 184 118
3 185 118 184
3 182 120 118
3 182 118 185
3 183 129 182
3 120 182 129
3 188 145 132
3 126 145 188
3 187 131 157
3 186 132 187
3 131 187 132
3 134 179 180
3 179 134 136
3 71 151 150
3 155 152 153
3 153 152 151
3 133 161 131
3 161 158 157
3 157 131 161
3 77 54 179
3 78 179 54
3 94 93 58
3 193 94 58
3 191 187 157
3 76 193 58
3 154 193 76
3 76 75 192
3 76 192 156
3 76 156 154
3 191 157 192
3 71 94 151
3 153 151 94
3 193 153 94
3 154 153 193
3 156 192 157
3 79 180 179
3 79 179 78
3 180 79 166
3 50 166 79
3 53 165 50
3 166 50 165
3 146 173 143
3 96 146 143
3 142 143 173
3 95 147 96
3 97 148 95
3 138 142 173
3 147 95 148
3 173 175 138
3 139 138 175
3 175 174 139
3 127 139 174
3 174 128 127
3 129 144 120
3 134 81 80
3 140 136 80
3 137 136 140
3 134 80 136
