ply
format ascii 1.0
comment Exported by Aspose.3D 23.9.0
element vertex 61
property float x
property float y
property float z
property float nx
property float ny
property float nz
element face 134
property list uchar int vertex_index
end_header
62 46.95199966430664 39.61000061035156 -0.21973497383296492 0.33654298621113415 -0.42795829102396965
65.56600189208984 46.95199966430664 39.44700241088867 0.7947644988074899 0.08426961986560855 -0.1296413753181696
65.57699584960938 44.34600067138672 39.85300064086914 0.5589674970002046 -0.18641117345181815 -0.2833078096487692
62.01100158691406 44.34600067138672 40.0160026550293 -0.40712191965430977 -0.42895791478295 -0.14824281632900238
65.60469818115234 45.218017578125 40.88010025024414 0.25110121436591726 -0.24520708464842755 0.013552248477935791
65.6070556640625 45.241004943847656 40.980003356933594 0.3380372069465617 -0.3093943170048684 0.1063344149539868
65.6300048828125 44.53799819946289 41.83700180053711 0.6096928925253451 -0.16804924497191678 0.20080423150211574
62.06399917602539 44.53799819946289 42 -0.3167097150969008 -0.2804812753371758 0.36998506262898445
62.053001403808594 47.14400100708008 41.59400177001953 -0.38269034400582314 0.26063335888247824 0.3862605229020119
71.21174621582031 45.231971740722656 40.71983337402344 0.6470670748551908 -0.33094974113711423 0.07199930088661079
71.21699523925781 45.5099983215332 40.91400146484375 0.4267485916614533 0.05180999676231295 0.5709533024579286
71.21666717529297 45.38029098510742 40.897525787353516 0.23032007366418839 -0.4016064127441496 0.644749289751053
71.21524810791016 45.62485885620117 40.866859436035156 0.4203852955251932 0.3675193796399981 0.4369448192417622
71.2105484008789 45.72612380981445 40.700435638427734 0.40862270388752225 0.559449987881817 0.1719336085021496
65.59475708007812 45.445884704589844 40.5090446472168 0.23889572359621525 -0.038915048443357136 -0.24727303721010685
65.59547424316406 45.348793029785156 40.545921325683594 0.18690290264785292 -0.2638511957076844 -0.2833957111462951
65.59110260009766 46.64815139770508 40.38582992553711 0.37522326931357386 0.2920309366724723 -0.5140217926353217
65.59420776367188 46.74698257446289 40.501976013183594 0.31996853572006023 0.5948690784189996 -0.2690789892027775
65.58995819091797 46.51336669921875 40.342681884765625 0.3748209595680237 -0.06290798234113026 -0.5809089604765177
66.61399841308594 46.75899887084961 40.4900016784668 0.4923047076445073 0.455243696749676 -0.19345890218392015
66.61859893798828 46.787010192871094 40.64134216308594 0.20144887901842595 0.7738629585132003 0.03344716690480709
65.59082794189453 46.409847259521484 40.37508010864258 0.5846028611063957 -0.209449095375021 -0.3389495227485895
65.59458923339844 46.285736083984375 40.51543426513672 0.4908712945180014 -0.44689288699828467 -0.1786469677463174
65.59565734863281 45.60604476928711 40.54804992675781 0.3924415782094002 0.11176881355204388 -0.17163176052272322
66.61064910888672 46.38340377807617 40.34429168701172 0.3116196390862266 -0.3660105605764935 -0.5288792594025532
66.60877990722656 46.52920150756836 40.294952392578125 0.3749149538576603 0.0759016524301842 -0.5741994965821505
65.61900329589844 47.14400100708008 41.430999755859375 0.6704650440563757 0.2383954155589486 0.07051275670528412
65.61202239990234 45.428001403808594 41.16600036621094 0.4261179886758328 -0.10781271118030418 0.568998759239912
65.61206817626953 45.53676986694336 41.16584014892578 0.4266289404282967 0.08181067283415662 0.21531049363935986
66.62451934814453 46.70992660522461 40.87261962890625 0.7374319462952289 0.18431789978868354 0.15917687930844046
65.60746002197266 46.604312896728516 40.99766159057617 0.42475338950753216 0.22611454224097544 0.5200060520321131
66.62726593017578 46.507389068603516 40.96782684326172 0.23857267946004868 -0.08014617481967434 0.7337660297751427
65.60676574707031 45.259361267089844 40.969078063964844 0.3332428601053026 0.0017635077456361614 -0.008016231573290294
65.60400390625 45.47800064086914 40.8390007019043 -0.9996162913739681 -0.0008378740330954315 0.027097766171209514
65.60242462158203 45.68335723876953 40.80752944946289 0.24988596141338348 -0.0010406618084743968 -0.007817562436684966
65.6110610961914 45.350990295410156 41.13098907470703 0.34134796717100674 -0.1244497840703439 0.17049293137258953
65.61000061035156 45.2859992980957 41.06700134277344 -0.4855478157599767 -0.3922374731628224 0.315958798242112
65.60944366455078 45.680477142333984 41.0582275390625 -0.3852104112505913 0.47848994671949185 0.34149514958262445
65.6049575805664 45.73601150512695 40.90290832519531 0.2243133531883359 0.32594966891701915 0.041090404614806175
65.60633087158203 46.372528076171875 40.95508575439453 0.5182556634147961 -0.28798436005733186 0.3723929595823089
66.62516021728516 46.35900115966797 40.89767074584961 0.4174710500985384 -0.4331573406172538 0.3669607747346163
65.60763549804688 46.47080993652344 41.00391387939453 0.6160381987690926 -0.07957120068604127 0.3624787922948599
66.61067199707031 46.674434661865234 40.35711669921875 0.3818304017186165 0.40011389458086344 -0.4311876017600298
65.59916687011719 46.7841796875 40.687828063964844 0.5992649348452688 0.3895954631479981 -0.003735838830471039
65.60193634033203 46.27180099487305 40.78863525390625 0.5054111847033103 -0.45612879141178075 0.14275973538557687
71.20199584960938 45.67100143432617 40.35600280761719 0.3855641603469849 0.4963438132661395 -0.3290801875293255
71.20594787597656 45.73683547973633 40.50846481323242 0.32948404938603437 0.6487804969365243 -0.097617552926143
66.62061309814453 46.265594482421875 40.722511291503906 0.4012839557603002 -0.5758173695994628 0.06229052096605301
71.2040786743164 45.2325325012207 40.457664489746094 0.23716468026395887 -0.678188398364 -0.26745961484266445
71.20100402832031 45.29899978637695 40.34000015258789 0.4845320312306285 -0.3634157436899841 -0.3424535938538611
65.6046371459961 46.7310676574707 40.88663101196289 0.4112703127786517 0.5148730702931061 0.2543813828378916
71.19937896728516 45.578765869140625 40.271297454833984 0.30796079834302265 0.3145344469618673 -0.5671307115505139
66.61454772949219 46.27770233154297 40.50129699707031 0.49410090944729745 -0.4571819037300884 -0.16639103973284364
65.60218048095703 45.73899841308594 40.79898452758789 0.4986362166237086 0.24669801285381254 -0.03837066562846303
71.1993179321289 45.41756057739258 40.25749206542969 0.305360009893775 -0.1349552248721011 -0.6338658801590402
65.59854125976562 45.62862777709961 40.661834716796875 0.2499532699584961 0.00020396566196723143 -0.005321723874658346
65.59719848632812 45.67100524902344 40.611995697021484 0.2733086802597557 0.32441863650975783 -0.27915150166622227
65.5999984741211 45.715999603271484 40.69900131225586 -0.5782233338270868 0.3974200579770175 -0.1389117802360228
65.59727478027344 45.395751953125 40.61393737792969 0.33328388134638465 -0.0005509180627996102 -0.006927244675656159
65.59500122070312 45.52899932861328 40.512001037597656 -0.4260002985596657 0.10850471307057888 -0.568760622665286
65.6005859375 45.227291107177734 40.73139953613281 -0.40472458193544303 -0.5662942750845105 -0.11108803949318827
3 0 1 2
3 0 2 3
3 4 5 6
3 2 6 3
3 7 3 6
3 0 3 8
3 7 8 3
3 9 10 11
3 9 12 10
3 13 12 9
3 1 14 2
3 14 15 2
3 16 1 17
3 18 1 16
3 19 17 20
3 21 1 18
3 22 23 21
3 24 18 25
3 1 0 26
3 27 28 6
3 7 6 8
3 26 8 6
3 29 30 31
3 32 33 4
3 32 34 35
3 5 32 35
3 33 36 35
3 37 38 33
3 39 40 31
3 35 28 33
3 37 33 28
3 32 5 36
3 32 36 33
3 29 24 25
3 26 28 41
3 42 16 17
3 1 43 17
3 44 39 38
3 39 28 38
3 9 45 46
3 40 44 47
3 40 39 44
3 39 31 41
3 9 48 49
3 31 30 41
3 30 29 50
3 9 51 45
3 50 20 43
3 52 47 22
3 43 20 17
3 42 17 19
3 21 24 22
3 20 50 29
3 41 28 39
3 30 26 41
3 50 26 30
3 50 43 26
3 1 26 43
3 38 53 44
3 8 26 0
3 6 5 35
3 13 9 46
3 9 49 54
3 9 54 51
3 6 28 26
3 36 9 11
3 27 6 35
3 27 11 10
3 28 35 34
3 36 11 35
3 34 38 28
3 34 33 38
3 34 32 55
3 53 34 55
3 53 55 56
3 55 33 57
3 57 56 55
3 14 23 58
3 23 55 58
3 55 32 58
3 54 59 51
3 29 42 19
3 58 32 15
3 29 19 20
3 15 60 33
3 15 4 2
3 60 4 33
3 60 15 48
3 31 40 29
3 34 53 57
3 33 58 15
3 22 44 53
3 56 22 53
3 23 59 33
3 29 40 47
3 59 14 33
3 44 22 47
3 33 55 23
3 12 28 10
3 49 48 15
3 57 33 34
3 13 37 12
3 37 13 38
3 52 24 29
3 53 38 46
3 13 46 38
3 27 10 28
3 33 14 58
3 4 15 32
3 60 48 9
3 12 37 28
3 6 2 4
3 5 4 9
3 52 22 24
3 29 25 42
3 47 52 29
3 45 51 56
3 16 42 25
3 25 18 16
3 23 51 59
3 14 59 54
3 24 21 18
3 57 53 46
3 46 45 57
3 57 45 56
3 56 51 23
3 36 5 9
3 9 4 60
3 11 27 35
3 14 1 23
3 1 21 23
3 15 14 54
3 54 49 15
3 56 23 22
