ply
format ascii 1.0
comment Exported by Aspose.3D 23.9.0
element vertex 80
property float x
property float y
property float z
property float nx
property float ny
property float nz
element face 156
property list uchar int vertex_index
end_header
-60.91582489013672 33.845027923583984 23.692302703857422 0.3848896321008397 -0.08844227239929553 -0.5970383722800762
-65.91781616210938 38.80217742919922 23.692302703857422 -0.13630199564263712 0.2963945132742525 -0.6711721792817116
-60.512298583984375 35.34760284423828 23.69230079650879 0.5876526809694838 -0.05889101326465607 -0.40978599712252617
-60.67605209350586 36.480010986328125 23.69230079650879 0.5724588829150378 0.15887851544604248 -0.39966724365949635
-61.189910888671875 37.51394271850586 23.69230079650879 0.46489944621654544 0.3671062567780496 -0.4071408182382584
-60.512298583984375 35.34760284423828 25.61538314819336 0.4918889304002126 0.028519523640473683 0.5063922901948292
-60.86553955078125 37.01991271972656 25.61538314819336 0.5263168454170227 0.2602413535118103 0.4081214986741543
-61.43232345581055 36.29107666015625 25.61538314819336 0.2034321166574955 0.09644202530628264 0.6999999940395356
-61.46950912475586 34.165306091308594 25.61538314819336 0.09305938743054867 -0.20162905094689024 0.6999999940395356
-60.71544647216797 34.2279052734375 25.61538314819336 0.6144599417845408 -0.23126227186863463 0.35501713034075993
-61.54531478881836 32.85710525512695 25.61538314819336 0.39878058433532715 -0.40900141001444584 0.4229890584945679
-61.09286880493164 33.4648551940918 25.23076629638672 0.6818698406219483 -0.3420532763004303 0.1994132016785443
-66.77330017089844 34.34906768798828 26 -0.21382004693150522 -0.39626210965216163 0.4
-66.77330017089844 34.34906768798828 25.61538314819336 -0.2542901458218694 -0.12055252703836494 0.625
-61.46950912475586 34.165306091308594 26 0.49126699659973383 -0.25859515368938446 0.25
-62.00381851196289 38.34920883178711 25.61538314819336 0.36892845630645754 0.45978125333786013 0.41121656224131586
-61.96742630004883 23.547252655029297 24.84615135192871 0.49846620112657547 -0.028755892300978303 0.5099026471143588
-66.959228515625 23.72020721435547 24.84615135192871 -0.24976423382759094 -0.005423582791415527 0.7499999925494194
-64.3498306274414 21.198871612548828 24.84615135192871 0.04479922105868657 0.486118346452713 0.4918238564083973
-63.07978057861328 20.833772659301758 24.84615135192871 0.3549064636230469 0.4562242984771729 0.401331614330411
-66.73611450195312 36.4748420715332 25.61538314819336 -0.13294171541929245 0.28804152059767923 0.5714285629136221
-66.40534210205078 38.501712799072266 25.61538314819336 -0.29497844477494556 0.39543722294668743 0.506284249946475
-67.2474594116211 37.72382354736328 23.69230079650879 -0.4459348438501394 0.38919849395751954 -0.4072132706642151
-65.49440002441406 20.991201400756836 24.84615135192871 -0.26105481982231143 0.5178354978561401 0.38836555629968644
-65.35237884521484 38.98301696777344 25.61538314819336 -0.13069279715418816 0.5778271186400616 0.40714198201894763
-63.60581588745117 39.08137130737305 25.61538314819336 0.12116927579045296 0.5746553740204491 0.40758046656847
-64.1924057006836 39.121498107910156 23.69230079650879 0.0022404742626456198 0.7369276971991212 -0.2640310861170292
-66.51585388183594 20.083980560302734 24.84615135192871 -0.4886170744895935 0.3257071310321067 0.37864383161067966
-67.0367660522461 18.846519470214844 24.84615135192871 -0.8437789252826146 0.06268158339776976 0.1462119682026761
-62.48402404785156 38.68535232543945 23.692302703857422 0.26652619344896994 0.5232858428569443 -0.40760223269462587
-61.61504364013672 27.181432723999023 23.692302703857422 0.421531716023759 -0.1849479764380025 -0.4290556533906746
-61.59934997558594 27.180889129638672 25.23076629638672 0.21306251279181904 -0.24257032407654655 0.5649165779442803
-61.43232345581055 36.29107666015625 26 0.2138204202055931 0.3962620694190264 0.4
-61.62289047241211 27.181705474853516 24.84615135192871 0.14860798108081022 -0.5154290168629434 0.3344647243193274
-62.00559616088867 19.467227935791016 23.692302703857422 0.5471126955495745 0.09752928540373366 -0.425614720210433
-61.96742630004883 23.547252655029297 23.69230079650879 0.3990576426562427 -0.021173199315319382 -0.5999999761581422
-66.73611450195312 36.4748420715332 26 -0.49126653000712395 0.25859510339796543 0.25
-62.08339309692383 19.668962478637695 24.84615135192871 0.6526433676481247 0.28496107598766685 0.25879983277991414
-67.32239532470703 33.440086364746094 25.61538314819336 -0.4704754710197449 -0.35788754398722633 0.3813663631677628
-66.50848388671875 32.60542678833008 25.23076629638672 -0.38124903440475466 -0.4480713928292914 0.3665121585130692
-66.50848388671875 32.60542678833008 25.61538314819336 -0.2670219192902247 -0.41509504502208233 0.5050651691854
-65.27740478515625 31.990251541137695 25.23076629638672 -0.3770504772663117 -0.356152455881238 0.4143882609903813
-65.26136779785156 31.99542808532715 25.61538314819336 -0.348303986447198 -0.12437832967511245 0.5817059177373136
-67.64921569824219 34.07737350463867 23.692302703857422 -0.5541181796586625 -0.10725404324360405 -0.42588961876130527
-68 35.60703659057617 23.69230079650879 -0.5894385028546338 -0.037570621424856655 -0.4097125187516213
-67.7968521118164 36.72673034667969 23.69230079650879 -0.5656847941802738 0.18075148748589528 -0.3996008060872555
-68 35.60703659057617 25.61538314819336 -0.49048060178756714 0.0463991088315178 0.5065139817694823
-67.58650970458984 37.25636672973633 25.61538314819336 -0.5138965249061584 0.2825749844312668 0.40826428160071376
-65.32491302490234 27.91770362854004 25.23076629638672 -0.2954570331743785 -0.28165208202387604 0.4345071927777358
-65.32491302490234 27.91770362854004 25.61538314819336 -0.34483496844768524 -0.32793959602713585 0.3333333333333333
-67.83625030517578 34.47462844848633 25.61538314819336 -0.62806037068367 -0.20336980892774173 0.3369597835311045
-66.2433090209961 20.44189453125 25.61538314819336 -0.3319278806447983 0.3516319306936187 0.5211093661685784
-63.2158203125 20.91340446472168 25.61538314819336 0.23698488771915438 0.5220142259891418 0.4245717108249665
-64.84314727783203 21.19647979736328 25.61538314819336 -0.11877142265439034 0.7062939554452896 0.29149372316896915
-66.90681457519531 19.292282104492188 25.61538314819336 -0.5545059680938721 0.1946050874640605 0.4243107467889786
-61.989253997802734 19.563570022583008 25.61538314819336 0.4803875750965542 0.24031354028569593 0.4495819219284587
-66.31499481201172 16.314910888671875 25.61538314819336 -0.31343832186290194 -0.2764111255286739 0.5788309494299547
-65.267578125 15.598213195800781 25.61538314819336 -0.24346129223704338 -0.6938758045434952 0.26175507716834545
-64.0335693359375 15.430971145629883 25.61538314819336 0.10374024212360383 -0.5722426486561745 0.41127630546689037
-63.1410026550293 27.842037200927734 25.61538314819336 0.18611896932125094 -0.4032580427825451 0.4
-63.06804275512695 32.01306915283203 25.61538314819336 0.4128835030964442 -0.25714713099888187 0.4580862117665154
-67.51163482666016 33.75669479370117 25.23076629638672 -0.7088189959526062 -0.31003430357085904 0.1963580003939569
-67.1998062133789 27.37493324279785 25.23076629638672 -0.23303028816978136 -0.346165363272623 0.45236484679161193
-63.1673583984375 15.706368446350098 23.692302703857422 0.2763002918858007 -0.510339617729187 -0.4095470860600472
-64.45075988769531 15.428918838500977 23.69230079650879 -0.04968298764294943 -0.7319146394729614 -0.2617620602250099
-62.53971481323242 16.16905975341797 25.61538314819336 0.4138586223125458 -0.40175367122392347 0.41217653453350067
-62.04936599731445 16.902484893798828 23.692302703857422 0.37165334655585164 -0.1909531329993115 -0.5787768736481667
-61.77181625366211 17.76129913330078 25.61538314819336 0.47749772667884827 -0.08933564027150472 0.5105416445682446
-63.1410026550293 27.842037200927734 25.23076629638672 0.39301362037658694 -0.20687584280967714 0.4
-61.7484016418457 18.222013473510742 23.69230079650879 0.5890528183210677 0.01994757354259491 -0.40381329469382765
-62.10696029663086 32.45292663574219 25.23076629638672 0.31386507749557496 -0.4890672326087952 0.38604144752025604
-63.06804275512695 32.01306915283203 25.23076629638672 0.3539995551109314 -0.2316961893811822 0.5
-67.18804168701172 27.374526977539062 23.692302703857422 -0.3383864327457555 -0.18842061420956685 -0.4995762838737884
-67.17626953125 27.374116897583008 24.84615135192871 -0.41311461031436925 -0.4241163745994982 0.202033559977167
-67.03375244140625 17.856494903564453 25.61538314819336 -0.592829741537571 -0.03754821328135449 0.3904339596629143
-67.00764465332031 17.950984954833984 24.84615135192871 -0.9695397615432739 0.1158728264272213 0.002252892901500066
-67.0361328125 17.943397521972656 23.692302703857422 -0.48099273211351523 0.00596001601354601 -0.49759758613072336
-66.57518005371094 16.692462921142578 23.69230079650879 -0.513654123090987 -0.2912632102661519 -0.40239234492182735
-65.72071075439453 15.793204307556152 23.692302703857422 -0.26067274071101326 -0.41222701470057166 -0.5033804029226303
-66.959228515625 23.72020721435547 23.69230079650879 -0.5708512602774611 -0.013223771706187952 -0.4286872624818768
3 0 1 2
3 3 2 1
3 1 4 3
3 5 6 7
3 7 8 5
3 9 5 8
3 9 8 10
3 9 11 0
3 2 5 9
3 2 9 0
3 2 3 5
3 12 13 8
3 12 8 14
3 6 15 7
3 10 11 9
3 16 17 18
3 16 18 19
3 20 7 21
3 1 22 21
3 18 17 23
3 6 5 3
3 24 21 7
3 25 24 7
3 15 25 7
3 4 6 3
3 4 15 6
3 26 24 25
3 23 17 27
3 27 17 28
3 24 1 21
3 29 15 4
3 25 15 29
3 30 0 31
3 11 31 0
3 29 26 25
3 24 26 1
3 14 7 32
3 8 7 14
3 31 33 30
3 34 35 16
3 32 7 20
3 32 20 36
3 37 34 16
3 38 39 40
3 41 42 40
3 41 40 39
3 43 44 0
3 45 0 44
3 22 0 45
3 1 0 22
3 13 20 46
3 47 46 20
3 21 47 20
3 48 49 42
3 48 42 41
3 13 46 50
3 38 13 50
3 30 33 16
3 30 16 35
3 51 52 53
3 54 55 51
3 56 57 58
3 38 40 13
3 49 59 42
3 59 60 42
3 8 42 60
3 38 50 61
3 61 39 38
3 39 61 62
3 63 58 64
3 47 21 22
3 65 66 67
3 58 57 64
3 48 68 59
3 48 59 49
3 67 66 69
3 55 69 34
3 70 71 31
3 34 37 55
3 52 55 19
3 48 41 62
3 50 43 61
3 61 43 62
3 63 65 58
3 39 62 41
3 66 65 63
3 72 73 62
3 33 62 73
3 62 31 48
3 33 73 17
3 74 75 76
3 68 48 31
3 68 31 71
3 74 76 77
3 47 22 45
3 45 46 47
3 11 70 31
3 46 45 44
3 56 78 57
3 44 50 46
3 78 64 57
3 44 43 50
3 69 66 76
3 34 69 76
3 64 78 63
3 76 79 34
3 35 34 79
3 79 72 35
3 35 72 30
3 72 43 30
3 53 52 18
3 19 18 52
3 1 26 29
3 1 29 4
3 18 23 53
3 62 43 72
3 43 0 30
3 52 51 55
3 79 17 73
3 79 73 72
3 55 74 67
3 65 56 58
3 67 56 65
3 23 27 51
3 75 28 76
3 17 79 28
3 60 10 8
3 27 28 54
3 76 28 79
3 36 13 12
3 20 13 36
3 36 12 32
3 12 14 32
3 31 62 33
3 19 37 16
3 63 78 66
3 78 77 66
3 77 76 66
3 33 17 16
3 55 67 69
3 37 19 55
3 70 10 60
3 70 60 71
3 70 11 10
3 59 68 60
3 71 60 68
3 74 55 54
3 56 67 74
3 8 13 40
3 42 8 40
3 53 23 51
3 27 54 51
3 54 28 74
3 28 75 74
3 74 77 56
3 77 78 56
