ply
format ascii 1.0
comment Exported by Aspose.3D 23.9.0
element vertex 372
property float x
property float y
property float z
property float nx
property float ny
property float nz
element face 748
property list uchar int vertex_index
end_header
-4.533999919891357 31.045000076293945 -0.6129999756813049 -0.3333333333333333 0.3923795819282532 -0.5349693695704142
-3.1549999713897705 31.045000076293945 -0.6129999756813049 -0.5 0.2942846864461899 -0.40122702717781067
-3.1549999713897705 30.082319259643555 -1.4766789674758911 -0.25 0.32299707271158695 -0.12240999937057495
-4.533999919891357 30.082319259643555 -1.4766789674758911 -0.42857142857142855 0.07671224113021578 0.32182891028267996
-3.1549999713897705 33.71799850463867 -1.3179999589920044 -0.6666666666666666 0.10131579803095923 0.2268555594815148
-3.1549999713897705 33.520999908447266 0.5410000085830688 -0.4 0.12286574244499207 -0.5846718192100525
-3.1549999713897705 32.22600173950195 0.0860000029206276 -0.3333333333333333 0.2802762985229492 -0.6013412674268086
-1.7769999504089355 30.01099967956543 0.7979999780654907 0.5 -0.2942008674144745 0.40131527185440063
-1.7769999504089355 31.85700035095215 0.8790000081062317 0.5714285714285714 -0.1929725238255092 0.3806101424353463
-1.7769999504089355 31.48699951171875 1.6720000505447388 0.4 -0.23460394144058228 0.5494389772415161
-1.7769999504089355 33.10499954223633 2.240999937057495 0.5 -0.10232369601726532 0.48722643653551734
-4.533999919891357 33.10499954223633 2.240999937057495 -0.5714285714285714 -0.11494282952376773 0.4109612873622349
-1.7769999504089355 33.3129997253418 1.3910000324249268 0.5 -0.13411844770113626 0.47945339481035865
-1.7769999504089355 30.527999877929688 0.09200000017881393 0.4 -0.3689054250717163 0.46993540525436406
-1.7769999504089355 29.378999710083008 -0.9380000233650208 0.5 -0.3778381943702698 0.32420591513315833
-1.7769999504089355 27.811405181884766 -1.575792670249939 0.14285714285714285 -0.253487650837217 0.7423136915479387
-1.7769999504089355 28.93714714050293 -1.5266597270965576 0.5 -0.21084255538880825 0.39983993768692017
-1.7769999504089355 28.732999801635742 -0.34700000286102295 0.6000000000000001 -0.2934577465057373 0.2689598321914673
-4.533999919891357 28.732999801635742 -0.34700000286102295 -0.3333333333333333 -0.4890962441762288 0.4482663869857788
0.9810000061988831 30.527999877929688 0.09200000017881393 -0.4 -0.3373135566711426 0.4931024789810181
0.20399999618530273 28.93714714050293 -1.5266597270965576 0.14285714285714285 -0.46946773145880016 0.6284773009163992
-6 33.71799850463867 -1.3179999589920044 -0.4444444444444444 0.20747641639577016 0.342705680264367
-4.533999919891357 27.811405181884766 -1.575792670249939 -0.2 -0.18616203218698502 0.7194293737411499
-6 16.236000061035156 -2.0810000896453857 -0.14285714285714285 -0.44685110130480354 0.40947907205138884
-0.8299999833106995 16.344985961914062 -4.578449726104736 0.3333333333333333 -0.31847549229860306 -0.34754861146211624
-0.8299999833106995 9.699999809265137 -6.119999885559082 0.5 0.26065363828092813 -0.23876431118696928
-0.8299999833106995 16.50850486755371 -8.325470924377441 0.5 -0.2606679741293192 0.23886256851255894
-6 16.50850486755371 -8.325470924377441 -0.6666666666666666 -0.17377864941954613 0.15924171234170595
-4.966000080108643 16.50850486755371 -8.325470924377441 -0.3333333333333333 -0.34755729883909225 0.3184834246834119
-6 16.344985961914062 -4.578449726104736 -0.5 -0.2388566192239523 -0.2606614585965872
0.20399999618530273 16.50850486755371 -8.325470924377441 0.5 -0.2606679741293192 0.23886256851255894
0.20399999618530273 16.344985961914062 -4.578449726104736 0.7142857142857142 -0.1364894966994013 -0.14894940491233552
-4.966000080108643 16.344985961914062 -4.578449726104736 -0.5 -0.2388566192239523 -0.2606614585965872
-4.966000080108643 9.699999809265137 -6.119999885559082 -0.5 0.26065363828092813 -0.23876431118696928
-4.966000080108643 9.645000457763672 -4.870999813079834 -0.25 5.641020834445953E-06 0.00010024197399616241
-6 9.645000457763672 -4.870999813079834 -0.3333333333333333 -3.3043324947357178E-06 0.00017761190732320148
-0.8299999833106995 16.290481567382812 -3.329472064971924 0.25 -0.27157365158200264 0.488624582067132
0.20399999618530273 16.290481567382812 -3.329472064971924 0.5714285714285714 -0.29167444046054564 0.13026464198316845
-0.8299999833106995 16.236019134521484 -2.081421375274658 0.25 -0.510424816980958 0.22796336188912392
0.20399999618530273 16.236000061035156 -2.0810000896453857 0.42857142857142855 -0.29790073420320234 0.27298604803425924
-6 16.290481567382812 -3.329472064971924 -0.42857142857142855 -0.29790625614779337 0.27298579258578165
-4.966000080108643 16.290481567382812 -3.329472064971924 -0.3333333333333333 -0.34755729883909225 0.3184834246834119
-4.966000080108643 16.236019134521484 -2.081421375274658 -0.3333333333333333 -0.5067914091050625 0.1447092778980732
0.20399999618530273 9.590999603271484 -3.621999979019165 0.3333333333333333 -0.34756314009428024 0.3186179387072722
-0.8299999833106995 9.809000015258789 -8.618000030517578 0.5714285714285714 -0.1551872342824936 0.2792667608175959
0.20399999618530273 9.809000015258789 -8.618000030517578 0.4 -0.4083506301045418 0.18251809775829317
-6 9.809000015258789 -8.618000030517578 -0.4 -0.21726212799549105 0.39097346514463427
-4.966000080108643 9.809000015258789 -8.618000030517578 -0.5714285714285714 -0.2916790215032441 0.13037006982735225
-0.8299999833106995 9.918000221252441 -11.114999771118164 0.5 0.26065363828092813 -0.23876431118696928
-0.8299999833106995 9.86299991607666 -9.866000175476074 0.2857142857142857 -0.14275253298027174 -0.0060674798275743205
0.20399999618530273 9.86299991607666 -9.866000175476074 0.30000000000000004 0.09986601993441582 0.004474163055419922
0.20399999618530273 9.918000221252441 -11.114999771118164 0.3333333333333333 0.34753818437457085 -0.318352414915959
-6 9.86299991607666 -9.866000175476074 -0.3333333333333333 -2.6209900776545204E-05 0.00016891542408201427
-4.966000080108643 9.86299991607666 -9.866000175476074 -0.25 -4.6455301344394684E-05 9.362911805510521E-05
-4.966000080108643 9.918000221252441 -11.114999771118164 -0.5714285714285714 0.29166377069694654 -0.13015209244830267
-6 9.918000221252441 -11.114999771118164 -0.25 0.27154931612312794 -0.48852677177637815
-0.8299999833106995 0 -2.7899999618530273 0.5714285714285714 -0.2916712047798293 0.1302622886640685
-0.8299999833106995 4.932000160217285 -6.328000068664551 0.625 -0.24431012151762843 -0.13587937969714403
-0.8299999833106995 4.876999855041504 -5.078999996185303 0.6000000000000001 -0.2085229106247425 0.19101144894957545
-4.966000080108643 0.4359999895095825 -12.779000282287598 -0.625 -0.24431208055466413 -0.13578274939209223
-4.966000080108643 0 -2.7899999618530273 -0.5714285714285714 -0.15517865121364594 0.2792130745947361
-4.966000080108643 4.932000160217285 -6.328000068664551 -0.7142857142857142 -0.13649273291230202 -0.14900606285248483
-4.966000080108643 5.09499979019165 -10.074999809265137 -0.5714285714285714 -0.29169320368341034 0.1301407292485237
0.20399999618530273 4.876999855041504 -5.078999996185303 0.2 -0.417045821249485 0.3820228978991509
0.20399999618530273 4.932000160217285 -6.328000068664551 0.4 -0.182373283803463 -0.4084184564650059
-6 4.932000160217285 -6.328000068664551 -0.3333333333333333 -0.31848304346203804 -0.3476808133224646
-4.966000080108643 4.876999855041504 -5.078999996185303 -0.5 -0.34027439914643764 0.1518441078563531
-6 4.876999855041504 -5.078999996185303 -0.25 -0.27154931612312794 0.48852677177637815
-0.8299999833106995 5.09499979019165 -10.074999809265137 0.5714285714285714 -0.15523056792361395 0.27915050674762043
0.20399999618530273 5.09499979019165 -10.074999809265137 0.25 -0.5104631064459682 0.2277462761849165
-6 5.09499979019165 -10.074999809265137 -0.25 -0.2716534938663244 0.4885133868083358
0.20399999618530273 9.699999809265137 -6.119999885559082 0.3333333333333333 0.34753818437457085 -0.318352414915959
-6 9.699999809265137 -6.119999885559082 -0.3333333333333333 0.34753818437457085 -0.318352414915959
-4.966000080108643 9.590999603271484 -3.621999979019165 -0.5 -0.2606723550707102 0.23896345403045416
-0.8299999833106995 9.590999603271484 -3.621999979019165 0.6666666666666666 -0.17378157004714012 0.1593089693536361
-0.8299999833106995 9.645000457763672 -4.870999813079834 0.25 -0.13033053651452065 0.11958196898922324
0.20399999618530273 9.645000457763672 -4.870999813079834 0.3333333333333333 0.11585107569893201 -0.10602836766176753
-6 9.590999603271484 -3.621999979019165 -0.5 -0.2606723550707102 0.23896345403045416
-0.8299999833106995 16.562965393066406 -9.573451042175293 0.4 -0.18236075341701508 -0.4083387777209282
-4.966000080108643 16.562965393066406 -9.573451042175293 -0.5 -0.2388566192239523 -0.2606614585965872
-4.533999919891357 42.665000915527344 -10.79800033569336 -0.6000000000000001 0.3403300762176514 -0.2064931631088257
-4.533999919891357 41.16899871826172 -9.890000343322754 -0.5 -0.43394216895103455 0.24405471483866373
-4.533999919891357 43.40700149536133 -9.25100040435791 -0.5714285714285714 0.3959928836141314 -0.15905186533927917
-4.533999919891357 41.762001037597656 -8.652999877929688 -0.5 -0.46760185062885284 0.17015964537858963
-4.533999919891357 42.10300064086914 -7.322999954223633 -0.5 -0.49179330468177795 0.07575512677431107
0.20399999618530273 16.562965393066406 -9.573451042175293 0.5714285714285714 -0.2792108090860503 -0.15517765922205787
-6 16.562965393066406 -9.573451042175293 -0.5 -0.2388566192239523 -0.2606614585965872
-1.7769999504089355 42.321998596191406 -2.930000066757202 0.5 0.4440009494622548 0.22519550720850626
-1.7769999504089355 41.53499984741211 -1.6019999980926514 0.5 0.40129584074020386 0.29424840211868286
0.9810000061988831 41.53499984741211 -1.6019999980926514 -0.3333333333333333 0.5350611209869385 0.39233120282491046
0.9810000061988831 29.378999710083008 -0.9380000233650208 -0.42857142857142855 -0.41921780790601454 0.3842641966683524
-4.533999919891357 36.249000549316406 0.6600000262260437 -0.5714285714285714 -0.051097597394670756 -0.4236682994025094
-4.533999919891357 38.176998138427734 1.9639999866485596 -0.5 0.17022431641817093 0.46757495403289795
-4.533999919891357 37.57899856567383 0.3190000057220459 -0.4 -0.18579928278923036 -0.5678151488304138
-4.533999919891357 34.87900161743164 0.7350000143051147 -0.5 0.038030008474985756 -0.4964006344477335
-4.533999919891357 34.803001403808594 2.4830000400543213 -0.42857142857142855 -0.02482399025133678 0.5681501626968384
-4.533999919891357 39.7239990234375 1.222000002861023 -0.4 0.3264931678771973 0.5003300786018372
-4.533999919891357 38.816001892089844 -0.27399998903274536 -0.5714285714285714 -0.2092563680240086 -0.3719004648072379
-4.533999919891357 36.51599884033203 2.390000104904175 -0.5 0.07566058915108442 0.49179473519325256
-4.533999919891357 40.83000183105469 -2.11899995803833 -0.5 -0.4109119574228922 -0.2810802757740021
-4.533999919891357 42.24100112915039 -1.0850000381469727 -0.5 0.3916767040888468 0.30734869837760925
-4.533999919891357 41.52899932861328 -3.299999952316284 -0.5714285714285714 -0.3924977098192487 -0.16747355461120605
-4.533999919891357 43.1150016784668 -2.561000108718872 -0.3333333333333333 0.6012761394182841 0.2804224093755086
-4.533999919891357 41.09600067138672 0.19300000369548798 -0.6666666666666666 0.2241331934928894 0.2445481220881144
-4.533999919891357 39.91400146484375 -1.0980000495910645 -0.3333333333333333 -0.44819251696268714 -0.4892069896062215
-4.533999919891357 42.178001403808594 -5.953000068664551 -0.6000000000000001 -0.3976908683776856 -0.017351737618446352
-4.533999919891357 41.98400115966797 -4.59499979019165 -0.4 -0.5846718192100525 -0.12286574244499207
-4.533999919891357 43.683998107910156 -4.178999900817871 -0.6666666666666666 0.3222270905971527 0.07880788793166478
-4.533999919891357 43.92599868774414 -5.876999855041504 -0.5 0.496420274178187 0.03799646906554699
-4.533999919891357 43.83300018310547 -7.590000152587891 -0.3333333333333333 0.6557263135910034 -0.10088078553477922
-1.7769999504089355 39.7239990234375 1.222000002861023 0.5714285714285714 0.2092759438923427 0.3719001071793692
-4.533999919891357 31.55299949645996 -12.243000030517578 -0.42857142857142855 0.2950039505958557 0.48616119793483187
-4.533999919891357 30.518783569335938 -11.466866493225098 -0.42857142857142855 0.10445919153945786 -0.313902028969356
-3.1549999713897705 30.518783569335938 -11.466866493225098 -0.25 0.3110316442325711 0.15015095472335815
-3.1549999713897705 31.55299949645996 -12.243000030517578 -0.5 0.25812845677137375 0.4253910481929779
-3.1549999713897705 32.790000915527344 -12.836000442504883 -0.3333333333333333 0.22687952717145282 0.6234691341718037
-3.1549999713897705 35.4900016784668 -13.251999855041504 -0.4 -0.045636010169982914 0.5956807613372803
-3.1549999713897705 34.15399932861328 -11.307999610900879 -0.8333333333333333 0.08689244743436575 -0.07962035884459813
-3.1549999713897705 36.847999572753906 -13.057999610900879 -0.4 -0.16087866723537447 0.5753739595413209
-3.1549999713897705 34.119998931884766 -13.177000045776367 -0.4 0.07153663635253907 0.5931356191635132
-1.7769999504089355 35.52799987792969 -14.12600040435791 0.4 0.04561012536287308 -0.5956936836242676
-1.7769999504089355 33.98699951171875 -14.041999816894531 0.5 -0.0594792515039444 -0.4942984879016876
-1.7769999504089355 35.566001892089844 -15 0.5714285714285714 0.004658562796456473 -0.4267216580254691
-1.7769999504089355 39.840999603271484 -12.609000205993652 0.3333333333333333 0.39233120282491046 -0.5350611209869385
-1.7769999504089355 38.51300048828125 -13.395999908447266 0.5714285714285714 0.16755508525030952 -0.3924526316779
-1.7769999504089355 40.35900115966797 -13.3149995803833 0.5714285714285714 0.24094399384089876 -0.35220904861177715
-1.7769999504089355 37.055999755859375 -13.907999992370605 0.6000000000000001 0.09455453157424927 -0.3866838216781616
-1.7769999504089355 37.263999938964844 -14.758000373840332 0.5 0.1022933026154836 -0.4872371256351471
-3.1549999713897705 37.57899856567383 0.3190000057220459 -0.4 -0.22258386611938477 -0.554429292678833
-3.1549999713897705 36.249000549316406 0.6600000262260437 -0.5 -0.09189638992150624 -0.4893069267272949
-3.1549999713897705 34.87900161743164 0.7350000143051147 -0.4 0.0064192026853561405 -0.5973918437957764
-1.7769999504089355 41.63600158691406 -12.170000076293945 0.4 0.42703138589859013 -0.41781578063964847
-1.7769999504089355 40.99100112915039 -11.579000473022461 0.5714285714285714 0.3239041311400277 -0.2778135708400181
-1.7769999504089355 38.882999420166016 -14.189000129699707 0.4 0.23453099727630616 -0.5494646310806275
-1.7769999504089355 43.683998107910156 -4.178999900817871 0.3333333333333333 0.6444541811943054 0.15761577586332956
-3.1549999713897705 42.178001403808594 -5.953000068664551 -0.3333333333333333 -0.6628181139628092 -0.028919562697410583
-3.1549999713897705 41.98400115966797 -4.59499979019165 -0.4 -0.5753739595413209 -0.16087866723537447
-1.7769999504089355 42.665000915527344 -10.79800033569336 0.5 0.4254125952720642 -0.2581164538860321
-3.1549999713897705 41.52899932861328 -3.299999952316284 -0.4 -0.5329174876213074 -0.2700343608856201
-3.1549999713897705 40.83000183105469 -2.11899995803833 -0.4 -0.46985051631927494 -0.36898691654205323
-4.533999919891357 41.63600158691406 -12.170000076293945 -0.4 0.4535156965255738 -0.38890789747238164
-3.1549999713897705 39.91400146484375 -1.0980000495910645 -0.5 -0.3361443877220154 -0.36690524220466614
-3.1549999713897705 38.816001892089844 -0.27399998903274536 -0.4 -0.32654938101768494 -0.500277864933014
0.9810000061988831 41.91699981689453 -10.343999862670898 -0.3333333333333333 0.5672137339909871 -0.34418105085690814
0.9810000061988831 40.99100112915039 -11.579000473022461 -0.5714285714285714 0.30491780383246286 -0.29852872235434397
-3.1549999713897705 42.10300064086914 -7.322999954223633 -0.5 -0.49179330468177795 0.07575512677431107
-3.1549999713897705 41.762001037597656 -8.652999877929688 -0.3333333333333333 -0.6234691341718037 0.22687952717145282
-1.7769999504089355 28.24814224243164 -11.5660982131958 0.14285714285714285 -0.18785094150475093 -0.7615376029695783
-1.7769999504089355 29.273000717163086 -12.710000038146973 0.5 -0.32413319746653235 -0.37788145740826923
-1.7769999504089355 29.373123168945312 -11.516934394836426 0.5 -0.1753104878589511 -0.4165549725294113
-4.533999919891357 28.24814224243164 -11.5660982131958 -0.2 -0.12276357486844064 -0.7328856110572816
-4.533999919891357 29.273000717163086 -12.710000038146973 -0.4 -0.417919659614563 -0.42691549062728884
-1.7769999504089355 29.86400032043457 -12.0649995803833 0.42857142857142855 -0.38422819546290804 -0.4192146233149937
-1.7769999504089355 30.645000457763672 -13.73900032043457 0.6666666666666666 -0.1720776359240214 -0.2836083968480428
-1.7769999504089355 32.19200134277344 -14.480999946594238 0.4 -0.2226445585489273 -0.5543972373008729
-1.7769999504089355 32.49100112915039 -13.659000396728516 0.5 -0.17016595974564552 -0.46757978200912476
-3.1549999713897705 41.16899871826172 -9.890000343322754 -0.4 -0.5004177689552307 0.32636286616325383
-1.7769999504089355 31.099000930786133 -12.991000175476074 0.5 -0.2581357881426811 -0.42541030049324036
-1.7769999504089355 34.840999603271484 1.6089999675750732 0.3333333333333333 -0.028948626170555748 0.6628316442171732
-1.7769999504089355 36.382999420166016 1.524999976158142 0.6666666666666666 0.05042779135207335 0.32787255446116126
-1.7769999504089355 34.803001403808594 2.4830000400543213 0.6666666666666666 -0.014480660979946453 0.3314209282398224
-1.7769999504089355 36.51599884033203 2.390000104904175 0.3333333333333333 0.10088078553477922 0.6557263135910034
-1.7769999504089355 38.176998138427734 1.9639999866485596 0.6000000000000001 0.13617945313453675 0.3740599632263184
0.9810000061988831 33.98699951171875 -14.041999816894531 -0.5 -0.09174387529492378 -0.4893381595611572
-1.7769999504089355 43.051998138427734 -5.914999961853027 0.5 0.49712325632572174 0.02170267142355442
-1.7769999504089355 42.96799850463867 -7.455999851226807 0.5 0.4942984879016876 -0.0594792515039444
-1.7769999504089355 43.92599868774414 -5.876999855041504 0.5714285714285714 0.42672215189252577 0.004667583320822034
-1.7769999504089355 42.83399963378906 -4.38700008392334 0.5 0.483354777097702 0.11819316446781158
-1.7769999504089355 43.1150016784668 -2.561000108718872 0.6000000000000001 0.3607656836509705 0.1682534456253052
-1.7769999504089355 42.24100112915039 -1.0850000381469727 0.5714285714285714 0.3522461482456752 0.2409026026725769
-1.7769999504089355 43.83300018310547 -7.590000152587891 0.6000000000000001 0.39343578815460206 -0.06052847132086754
-1.7769999504089355 42.584999084472656 -8.95199966430664 0.5 0.46757978200912476 -0.17016595974564552
-1.7769999504089355 43.40700149536133 -9.25100040435791 0.4 0.5677898526191711 -0.1858657479286194
-6 34.15399932861328 -11.307999610900879 -0.42857142857142855 0.16143288729446273 -0.42193388513156344
0.20399999618530273 29.373123168945312 -11.516934394836426 0.14285714285714285 -0.4131840925131525 -0.6666838100978306
-1.7769999504089355 40.505001068115234 -0.4519999921321869 0.5 0.33619967103004456 0.3668127954006195
-1.7769999504089355 41.09600067138672 0.19300000369548798 0.3333333333333333 0.4482663869857788 0.4890962441762288
-1.7769999504089355 39.27000045776367 0.4740000069141388 0.5 0.2581357881426811 0.42541030049324036
0.9810000061988831 39.27000045776367 0.4740000069141388 -0.3333333333333333 0.34418105085690814 0.5672137339909871
-3.1549999713897705 40.34600067138672 -10.98799991607666 -0.5 -0.36690211296081543 0.3361090272665024
-4.533999919891357 40.34600067138672 -10.98799991607666 -0.5 -0.36690211296081543 0.3361090272665024
-3.1549999713897705 39.32400131225586 -11.904000282287598 -0.4 -0.3688420057296753 0.4699804544448853
-1.7769999504089355 37.87799835205078 1.1419999599456787 0.42857142857142855 0.19451986466135296 0.5343655007226126
-3.1549999713897705 38.143001556396484 -12.602999687194824 -0.4 -0.2700343608856201 0.5329174876213074
-0.8299999833106995 0.4359999895095825 -12.779000282287598 0.625 -0.11398087255656719 -0.25521306367591023
-4.966000080108643 16.671932220458984 -12.070425033569336 -0.25 -0.488624369725585 -0.2715611420571804
-0.8299999833106995 16.671932220458984 -12.070425033569336 0.3333333333333333 -0.4922577776014805 -0.18830705806612968
0.9810000061988831 43.051998138427734 -5.914999961853027 -0.3333333333333333 0.6628310084342957 0.02893689523140589
-1.7769999504089355 41.91699981689453 -10.343999862670898 0.5 0.42541030049324036 -0.2581357881426811
3.73799991607666 39.7239990234375 1.222000002861023 0.3333333333333333 0.3441552718480428 0.5672167936960856
3.73799991607666 38.176998138427734 1.9639999866485596 0.5714285714285714 0.1327612485204424 0.40556418044226505
3.73799991607666 38.816001892089844 -0.27399998903274536 0.6666666666666666 -0.1720856378475825 -0.2835940321286519
3.73799991607666 37.57899856567383 0.3190000057220459 0.3333333333333333 -0.22687952717145282 -0.6234691341718037
3.73799991607666 36.249000549316406 0.6600000262260437 0.5714285714285714 -0.051097597394670756 -0.4236682994025094
-4.533999919891357 33.520999908447266 0.5410000085830688 -0.4 0.16087866723537447 -0.5753739595413209
-4.533999919891357 32.22600173950195 0.0860000029206276 -0.6666666666666666 0.1401381492614746 -0.3006706337134043
3.73799991607666 36.51599884033203 2.390000104904175 0.4 0.07137064784765244 0.5931416869163514
3.73799991607666 34.803001403808594 2.4830000400543213 0.5 -0.03799646906554699 0.496420274178187
3.73799991607666 34.87900161743164 0.7350000143051147 0.5 0.038030008474985756 -0.4964006344477335
3.73799991607666 33.10499954223633 2.240999937057495 0.6666666666666666 -0.07880788793166478 0.3222270905971527
3.73799991607666 33.520999908447266 0.5410000085830688 0.4 0.16087866723537447 -0.5753739595413209
3.73799991607666 31.48699951171875 1.6720000505447388 0.4 -0.23460394144058228 0.5494389772415161
3.73799991607666 32.22600173950195 0.0860000029206276 0.6666666666666666 0.1401381492614746 -0.3006706337134043
3.73799991607666 42.178001403808594 -5.953000068664551 0.42857142857142855 -0.5681298119681222 -0.024788196597780497
3.73799991607666 42.10300064086914 -7.322999954223633 0.5714285714285714 -0.4194059371948242 0.07876833421843392
3.73799991607666 43.92599868774414 -5.876999855041504 0.6000000000000001 0.3977051138877869 0.017376793175935747
3.73799991607666 41.98400115966797 -4.59499979019165 0.4 -0.5753739595413209 -0.16087866723537447
3.73799991607666 43.683998107910156 -4.178999900817871 0.5714285714285714 0.4176226598875863 0.08770602515765598
3.73799991607666 40.83000183105469 -2.11899995803833 0.5 -0.39154209693272907 -0.3074890971183777
3.73799991607666 41.52899932861328 -3.299999952316284 0.5714285714285714 -0.38065534830093384 -0.1928816863468715
3.73799991607666 42.24100112915039 -1.0850000381469727 0.5 0.4109538396199544 0.2810530364513397
-4.533999919891357 30.01099967956543 0.7979999780654907 -0.6666666666666666 -0.19613391160964966 0.2675435145696004
-4.533999919891357 31.48699951171875 1.6720000505447388 -0.4 -0.27015639543533326 0.5328580737113953
3.73799991607666 41.09600067138672 0.19300000369548798 0.5714285714285714 0.2985140425818307 0.30493963616234915
3.73799991607666 39.91400146484375 -1.0980000495910645 0.4 -0.3889621257781983 -0.45348922014236454
3.73799991607666 43.83300018310547 -7.590000152587891 0.4 0.5931416869163514 -0.07137064784765244
3.73799991607666 43.40700149536133 -9.25100040435791 0.5 0.46757495403289795 -0.17022431641817093
3.73799991607666 43.1150016784668 -2.561000108718872 0.4 0.5494389772415161 0.23460394144058228
3.73799991607666 41.16899871826172 -9.890000343322754 0.5 -0.43394216895103455 0.24405471483866373
3.73799991607666 42.665000915527344 -10.79800033569336 0.6000000000000001 0.3403300762176514 -0.2064931631088257
3.73799991607666 41.762001037597656 -8.652999877929688 0.5 -0.46760185062885284 0.17015964537858963
3.73799991607666 40.34600067138672 -10.98799991607666 0.5714285714285714 -0.32396904911313734 0.2777432714189802
3.73799991607666 32.790000915527344 -12.836000442504883 0.4 0.18579928278923036 0.5678151488304138
3.73799991607666 32.19200134277344 -14.480999946594238 0.5 -0.1701892502605915 -0.46758395433425903
3.73799991607666 34.119998931884766 -13.177000045776367 0.5 0.05961386362711588 0.494279682636261
3.73799991607666 35.4900016784668 -13.251999855041504 0.5714285714285714 -0.03259715012141636 0.4254862580980573
3.73799991607666 33.854000091552734 -14.906999588012695 0.5 -0.059462686379750565 -0.494290163119634
3.73799991607666 35.566001892089844 -15 0.5 0.021713098511099815 -0.49713096022605896
3.73799991607666 37.263999938964844 -14.758000373840332 0.5714285714285714 0.08767997367041451 -0.4176318219729832
3.73799991607666 36.847999572753906 -13.057999610900879 0.4 -0.16087866723537447 0.5753739595413209
3.73799991607666 38.143001556396484 -12.602999687194824 0.5 -0.2250286340713501 0.4440979063510895
3.73799991607666 38.882999420166016 -14.189000129699707 0.5 0.19544249773025513 -0.4578871925671895
3.73799991607666 39.32400131225586 -11.904000282287598 0.5 -0.30736833810806274 0.39165037870407104
3.73799991607666 40.35900115966797 -13.3149995803833 0.5 0.2811013261477152 -0.41091055671374
3.73799991607666 41.63600158691406 -12.170000076293945 0.3333333333333333 0.48919282356897986 -0.44817982117335
3.73799991607666 28.732999801635742 -0.34700000286102295 0.5 -0.36682218313217163 0.3361997902393341
3.73799991607666 31.045000076293945 -0.6129999756813049 0.42857142857142855 0.3363253559385027 -0.4585451739174979
3.73799991607666 30.01099967956543 0.7979999780654907 0.5 -0.2810530364513397 0.4109538396199544
3.73799991607666 30.02400016784668 -1.5290000438690186 0.4 0.45348922014236454 -0.3889621257781983
3.73799991607666 29.200000762939453 -2.627000093460083 0.5714285714285714 0.3719004648072379 -0.2092563680240086
0.20399999618530273 5.150000095367432 -11.322999954223633 0.4 -0.18237297385931017 -0.40842549279332163
-0.8299999833106995 5.150000095367432 -11.322999954223633 0.4 -0.39089557453989987 -0.21742108017206194
-4.966000080108643 5.150000095367432 -11.322999954223633 -0.4 -0.18237297385931017 -0.40842549279332163
-6 5.150000095367432 -11.322999954223633 -0.4 -0.39089557453989987 -0.21742108017206194
3.73799991607666 27.70400047302246 -1.718999981880188 0.4 -0.520660150051117 0.2929863214492798
3.73799991607666 26.961999893188477 -3.2660000324249268 0.6666666666666666 -0.31171663602193195 0.11348287761211395
3.73799991607666 28.60700035095215 -3.864000082015991 0.4 0.5678151488304138 -0.18579928278923036
3.73799991607666 28.266000747680664 -5.193999767303467 0.5714285714285714 0.4236682994025094 -0.051097597394670756
3.73799991607666 26.535999298095703 -4.927000045776367 0.3333333333333333 -0.6557263135910034 0.10088078553477922
3.73799991607666 26.44300079345703 -6.639999866485596 0.6000000000000001 -0.3977051138877869 -0.017376793175935747
3.73799991607666 28.19099998474121 -6.564000129699707 0.5 0.4964006344477335 0.038030008474985756
3.73799991607666 26.684999465942383 -8.338000297546387 0.5714285714285714 -0.4176226598875863 -0.08770602515765598
3.73799991607666 28.385000228881836 -7.921999931335449 0.4 0.5753739595413209 0.16087866723537447
3.73799991607666 28.84000015258789 -9.217000007629395 0.5714285714285714 0.3805640850748334 0.19303578989846365
3.73799991607666 27.253999710083008 -9.956000328063965 0.4 -0.5494389772415161 -0.23460394144058228
3.73799991607666 28.128000259399414 -11.432000160217285 0.5714285714285714 -0.3522461482456752 -0.2409026026725769
3.73799991607666 29.540000915527344 -10.39799976348877 0.4 0.4699316143989563 0.36893309354782106
3.73799991607666 30.454999923706055 -11.418999671936035 0.5 0.324195514122645 0.3778403103351593
3.73799991607666 29.273000717163086 -12.710000038146973 0.5 -0.3482663830121358 -0.355762908856074
3.73799991607666 31.55299949645996 -12.243000030517578 0.5714285714285714 0.2092563680240086 0.3719004648072379
3.73799991607666 30.645000457763672 -13.73900032043457 0.4 -0.3264931678771973 -0.5003300786018372
0.9810000061988831 37.87799835205078 1.1419999599456787 -0.6000000000000001 0.13616390526294708 0.3740558505058289
0.9810000061988831 36.382999420166016 1.524999976158142 -0.5 0.07564168702811003 0.49180883169174194
0.9810000061988831 34.840999603271484 1.6089999675750732 -0.5 -0.021711469627916813 0.49712373316287994
0.9810000061988831 33.3129997253418 1.3910000324249268 -0.5 -0.10236920913060506 0.48722054560979206
0.9810000061988831 35.52799987792969 -14.12600040435791 -0.4 0.006476286053657532 -0.5974021315574646
0.9810000061988831 37.055999755859375 -13.907999992370605 -0.42857142857142855 0.13507790224892752 -0.5524054595402309
0.9810000061988831 39.840999603271484 -12.609000205993652 -0.5 0.29424840211868286 -0.40129584074020386
0.9810000061988831 42.584999084472656 -8.95199966430664 -0.6666666666666666 0.3117198546727498 -0.11344397316376367
0.9810000061988831 42.96799850463867 -7.455999851226807 -0.5 0.4893381595611572 -0.09174387529492378
0.9810000061988831 42.83399963378906 -4.38700008392334 -0.6666666666666666 0.32223651806513465 0.07879544297854105
0.9810000061988831 42.321998596191406 -2.930000066757202 -0.5 0.4578614036242167 0.19548093279202777
0.9810000061988831 40.505001068115234 -0.4519999921321869 -0.6666666666666666 0.2241331140200297 0.244541863600413
0.9810000061988831 31.85700035095215 0.8790000081062317 -0.5714285714285714 -0.16757241317204066 0.39245631865092684
0.20399999618530273 28.45199966430664 -2.1730000972747803 0.4 -0.520679771900177 0.29291023015975953
0.9810000061988831 28.45199966430664 -2.1730000972747803 -0.5714285714285714 -0.35733566965375624 0.23324882558413912
0.20399999618530273 27.78499984741211 -3.565000057220459 0.5 -0.4731693069140116 0.1548948884010315
0.9810000061988831 27.78499984741211 -3.565000057220459 -0.4 -0.5544463872909546 0.22257298529148103
0.20399999618530273 27.400999069213867 -5.060999870300293 0.5 -0.49427253007888794 0.05958051482836405
0.9810000061988831 27.400999069213867 -5.060999870300293 -0.5714285714285714 -0.41938820907047814 0.07881120166608264
0.20399999618530273 27.316999435424805 -6.6020002365112305 0.6000000000000001 -0.3976986050605774 -0.017362137138843537
0.9810000061988831 27.316999435424805 -6.6020002365112305 -0.3333333333333333 -0.6628310084342957 -0.02893689523140589
0.20399999618530273 27.53499984741211 -8.130000114440918 0.5 -0.483354777097702 -0.11819316446781158
0.9810000061988831 27.53499984741211 -8.130000114440918 -0.6666666666666666 -0.32223651806513465 -0.07879544297854105
0.20399999618530273 28.047000885009766 -9.586999893188477 0.4 -0.5328011393547059 -0.27023460865020754
0.9810000061988831 28.047000885009766 -9.586999893188477 -0.5 -0.4578614036242167 -0.19548093279202777
0.20399999618530273 28.833999633789062 -10.914999961853027 0.5 -0.40129584074020386 -0.29424840211868286
0.9810000061988831 28.833999633789062 -10.914999961853027 -0.3333333333333333 -0.5350611209869385 -0.39233120282491046
0.9810000061988831 29.86400032043457 -12.0649995803833 -0.5714285714285714 -0.29852872235434397 -0.30491780383246286
0.9810000061988831 31.099000930786133 -12.991000175476074 -0.3333333333333333 -0.34418105085690814 -0.5672137339909871
0.9810000061988831 32.49100112915039 -13.659000396728516 -0.6666666666666666 -0.11344397316376367 -0.3117198546727498
0.9810000061988831 41.09600067138672 0.19300000369548798 -0.4 0.3889598369598389 0.45345774888992313
0.9810000061988831 39.7239990234375 1.222000002861023 -0.6666666666666666 0.1720776359240214 0.2836083968480428
0.9810000061988831 36.51599884033203 2.390000104904175 -0.4 0.11021476611495018 0.5871656775474549
0.9810000061988831 38.176998138427734 1.9639999866485596 -0.5 0.18556050956249237 0.46199169754981995
0.9810000061988831 34.803001403808594 2.4830000400543213 -0.5714285714285714 -0.004667583320822034 0.42672215189252577
0.9810000061988831 33.10499954223633 2.240999937057495 -0.42857142857142855 -0.13509923645428248 0.5523892981665475
0.9810000061988831 42.24100112915039 -1.0850000381469727 -0.5714285714285714 0.33572288921901156 0.2634417414665222
2.3589999675750732 32.22600173950195 0.0860000029206276 0.5 0.21020722389221191 -0.4510059505701065
2.3589999675750732 33.520999908447266 0.5410000085830688 0.5 0.10238811870416005 -0.4872265160083771
0.9810000061988831 43.92599868774414 -5.876999855041504 -0.5 0.4971313923597336 0.02172099146991968
0.9810000061988831 43.83300018310547 -7.590000152587891 -0.5 0.48930473128954566 -0.09184563842912515
0.9810000061988831 43.1150016784668 -2.561000108718872 -0.5 0.44404839475949603 0.22513032952944437
0.9810000061988831 43.683998107910156 -4.178999900817871 -0.4 0.575345802307129 0.16091996133327485
2.3589999675750732 42.178001403808594 -5.953000068664551 0.5 -0.49711358547210693 -0.021689672023057938
2.3589999675750732 41.98400115966797 -4.59499979019165 0.4 -0.5846718192100525 -0.12286574244499207
2.3589999675750732 32.790000915527344 -12.836000442504883 0.8125 0.06955745816230774 0.17325915396213531
2.3589999675750732 41.52899932861328 -3.299999952316284 0.4 -0.5494967937469483 -0.23446297645568848
2.3589999675750732 40.83000183105469 -2.11899995803833 0.4 -0.4930943489074707 -0.3372963309288025
2.3589999675750732 38.816001892089844 -0.27399998903274536 0.3333333333333333 -0.344171275695165 -0.5671880642573038
2.3589999675750732 39.91400146484375 -1.0980000495910645 0.8235294117647058 -0.1228777661043055 -0.1256127532790689
2.3589999675750732 37.57899856567383 0.3190000057220459 0.6000000000000001 -0.1361277163028717 -0.3740814805030823
2.3589999675750732 42.10300064086914 -7.322999954223633 0.4 -0.5931356191635132 0.07153663635253907
2.3589999675750732 41.762001037597656 -8.652999877929688 0.3333333333333333 -0.6234691341718037 0.22687952717145282
0.9810000061988831 43.40700149536133 -9.25100040435791 -0.5 0.46757495403289795 -0.17022431641817093
0.9810000061988831 42.665000915527344 -10.79800033569336 -0.5 0.4254125952720642 -0.2581164538860321
0.9810000061988831 41.63600158691406 -12.170000076293945 -0.5 0.3668946176767349 -0.3361348658800125
0.9810000061988831 40.35900115966797 -13.3149995803833 -0.5714285714285714 0.263524523803166 -0.33564868995121544
2.3589999675750732 41.16899871826172 -9.890000343322754 0.4 -0.5004177689552307 0.32636286616325383
2.3589999675750732 40.34600067138672 -10.98799991607666 0.4 -0.4270084023475647 0.4178210854530335
0.9810000061988831 38.882999420166016 -14.189000129699707 -0.4 0.2701199233531952 -0.532870900630951
0.9810000061988831 37.263999938964844 -14.758000373840332 -0.5 0.1340391809741656 -0.4794762134552002
0.9810000061988831 35.566001892089844 -15 -0.5 0.021713098511099815 -0.49713096022605896
0.9810000061988831 33.854000091552734 -14.906999588012695 -0.5 -0.09180414552489916 -0.489316443602244
2.3589999675750732 35.4900016784668 -13.251999855041504 0.25 -0.008024003356695175 0.7467398047447205
2.3589999675750732 36.847999572753906 -13.057999610900879 0.5 -0.10238811870416005 0.4872265160083771
2.3589999675750732 34.119998931884766 -13.177000045776367 0.4 0.1102756679058075 0.5871683120727539
2.3589999675750732 38.143001556396484 -12.602999687194824 0.4 -0.23446297645568848 0.5494967937469483
2.3589999675750732 39.32400131225586 -11.904000282287598 0.4 -0.33722387552261357 0.4931593179702759
0.9810000061988831 30.01099967956543 0.7979999780654907 -0.5714285714285714 -0.2634417414665222 0.33572288921901156
0.9810000061988831 31.48699951171875 1.6720000505447388 -0.4 -0.27015639543533326 0.5328580737113953
0.9810000061988831 26.44300079345703 -6.639999866485596 -0.5 -0.4971313923597336 -0.02172099146991968
0.9810000061988831 26.535999298095703 -4.927000045776367 -0.5 -0.49179473519325256 0.07566058915108442
0.9810000061988831 26.961999893188477 -3.2660000324249268 -0.5 -0.46757495403289795 0.17022431641817093
0.9810000061988831 27.70400047302246 -1.718999981880188 -0.4 -0.5003300786018372 0.3264931678771973
0.9810000061988831 28.732999801635742 -0.34700000286102295 -0.6000000000000001 -0.2934577465057373 0.2689598321914673
2.3589999675750732 30.02400016784668 -1.5290000438690186 0.4 0.4270833611488343 -0.4177844047546387
2.3589999675750732 29.200000762939453 -2.627000093460083 0.4 0.500277864933014 -0.32654938101768494
2.3589999675750732 28.60700035095215 -3.864000082015991 0.4 0.554429292678833 -0.22258386611938477
2.3589999675750732 28.266000747680664 -5.193999767303467 0.4 0.5871683120727539 -0.1102756679058075
2.3589999675750732 28.19099998474121 -6.564000129699707 0.4 0.5973918437957764 0.0064192026853561405
2.3589999675750732 28.385000228881836 -7.921999931335449 0.4 0.5846718192100525 0.12286574244499207
2.3589999675750732 28.84000015258789 -9.217000007629395 0.4 0.549432909488678 0.234570848941803
2.3589999675750732 29.540000915527344 -10.39799976348877 0.4 0.493039071559906 0.3374312281608582
2.3589999675750732 31.045000076293945 -0.6129999756813049 0.5 0.2942846864461899 -0.40122702717781067
0.9810000061988831 32.19200134277344 -14.480999946594238 -0.5 -0.1701892502605915 -0.46758395433425903
0.9810000061988831 30.645000457763672 -13.73900032043457 -0.5714285714285714 -0.2092759438923427 -0.3719001071793692
0.9810000061988831 29.273000717163086 -12.710000038146973 -0.4 -0.3889598369598389 -0.45345774888992313
0.9810000061988831 28.128000259399414 -11.432000160217285 -0.5714285714285714 -0.33572288921901156 -0.2634417414665222
0.9810000061988831 27.253999710083008 -9.956000328063965 -0.5 -0.44404839475949603 -0.22513032952944437
0.9810000061988831 26.684999465942383 -8.338000297546387 -0.4 -0.575345802307129 -0.16091996133327485
2.3589999675750732 31.55299949645996 -12.243000030517578 0.4 0.32654938101768494 0.500277864933014
2.3589999675750732 30.454999923706055 -11.418999671936035 0.4 0.41792938709259037 0.42692166566848755
0.9810000061988831 38.51300048828125 -13.395999908447266 -0.5714285714285714 0.19302472046443392 -0.3805722423962184
0.20399999618530273 16.672000885009766 -12.071999549865723 0.4444444444444444 -0.32331407980786425 -0.23654291447665954
-6 16.672000885009766 -12.071999549865723 -0.16666666666666666 -0.3111861851066351 -0.5140558158357937
2.3589999675750732 36.249000549316406 0.6600000262260437 0.4 -0.1102756679058075 -0.5871683120727539
2.3589999675750732 34.87900161743164 0.7350000143051147 0.25 0.008024003356695175 -0.7467398047447205
-1.7769999504089355 33.854000091552734 -14.906999588012695 0.5 -0.09180414552489916 -0.489316443602244
-4.533999919891357 35.566001892089844 -15 -0.4 0.045589448511600496 -0.5957039833068848
-4.533999919891357 35.4900016784668 -13.251999855041504 -0.5714285714285714 -0.004585144775254385 0.426708459854126
-4.533999919891357 37.263999938964844 -14.758000373840332 -0.5714285714285714 0.1148907265492848 -0.4109796115330287
-4.533999919891357 33.854000091552734 -14.906999588012695 -0.5 -0.059462686379750565 -0.494290163119634
-4.533999919891357 38.882999420166016 -14.189000129699707 -0.5 0.22509993612766266 -0.44405908385912574
-4.533999919891357 32.19200134277344 -14.480999946594238 -0.5714285714285714 -0.1327211729117802 -0.40557446650096346
-4.533999919891357 40.35900115966797 -13.3149995803833 -0.5 0.3074452777703603 -0.39159013827641803
-4.533999919891357 34.119998931884766 -13.177000045776367 -0.5 0.09189638992150624 0.4893069267272949
-4.533999919891357 32.790000915527344 -12.836000442504883 -0.5 0.17015964537858963 0.46760185062885284
-4.533999919891357 36.847999572753906 -13.057999610900879 -0.4 -0.12286574244499207 0.5846718192100525
-4.533999919891357 38.143001556396484 -12.602999687194824 -0.5 -0.19538581371307373 0.45791399478912354
-4.533999919891357 39.32400131225586 -11.904000282287598 -0.5 -0.2810198962688446 0.41096609830856323
-4.533999919891357 30.645000457763672 -13.73900032043457 -0.42857142857142855 -0.2949902330126081 -0.48618582316807335
3 0 1 2
3 0 2 3
3 2 1 4
3 5 4 6
3 6 4 1
3 7 8 9
3 10 11 9
3 9 8 10
3 12 10 8
3 13 7 14
3 8 7 13
3 15 16 17
3 7 18 17
3 19 8 13
3 14 17 16
3 17 14 7
3 14 16 20
3 21 22 3
3 2 4 3
3 21 3 4
3 22 23 15
3 24 25 26
3 27 28 29
3 24 26 30
3 24 30 31
3 29 28 32
3 28 33 32
3 29 32 34
3 29 34 35
3 36 37 38
3 39 38 37
3 40 41 42
3 40 42 23
3 15 23 39
3 42 38 23
3 39 23 38
3 37 36 43
3 30 26 44
3 30 44 45
3 28 27 46
3 28 46 47
3 48 49 50
3 48 50 51
3 52 53 54
3 52 54 55
3 56 57 58
3 59 60 61
3 62 59 61
3 63 58 57
3 63 57 64
3 65 61 66
3 65 66 67
3 49 44 68
3 33 47 61
3 61 47 62
3 65 33 61
3 50 68 69
3 49 68 50
3 62 53 70
3 52 70 53
3 71 64 25
3 57 25 64
3 72 33 65
3 34 66 73
3 43 74 75
3 43 75 76
3 35 34 73
3 35 73 77
3 24 75 25
3 34 32 33
3 31 76 24
3 75 24 76
3 36 38 74
3 56 74 38
3 41 73 42
3 60 42 73
3 42 60 38
3 56 38 60
3 43 36 74
3 73 41 40
3 73 40 77
3 25 75 76
3 25 76 71
3 35 34 33
3 35 33 72
3 74 56 58
3 75 74 58
3 66 60 73
3 75 58 63
3 75 63 76
3 66 34 67
3 35 67 34
3 45 44 49
3 45 49 50
3 52 53 47
3 52 47 46
3 49 48 78
3 79 54 53
3 80 81 82
3 83 84 82
3 78 85 50
3 78 50 49
3 86 79 53
3 86 53 52
3 87 88 89
3 14 90 13
3 20 15 39
3 15 20 16
3 23 22 21
3 91 92 93
3 94 95 91
3 96 97 92
3 92 91 98
3 99 100 101
3 100 102 101
3 96 103 97
3 93 92 97
3 104 97 103
3 100 99 103
3 104 103 99
3 105 106 107
3 102 107 101
3 106 101 107
3 107 108 105
3 105 108 84
3 109 84 108
3 82 84 109
3 92 110 96
3 111 112 113
3 111 113 114
3 111 114 115
3 116 117 118
3 119 117 116
3 115 117 119
3 117 115 114
3 117 114 113
3 120 121 122
3 123 124 125
3 126 127 124
3 93 128 129
3 93 129 91
3 91 129 130
3 91 130 94
3 131 132 125
3 133 125 124
3 102 134 107
3 134 108 107
3 106 105 135
3 106 135 136
3 137 132 131
3 123 125 132
3 101 106 136
3 101 136 138
3 99 101 138
3 99 138 139
3 131 140 137
3 104 99 139
3 104 139 141
3 104 141 142
3 104 142 97
3 97 142 128
3 97 128 93
3 143 144 132
3 135 105 84
3 135 84 145
3 84 83 146
3 84 146 145
3 128 117 129
3 129 4 130
3 147 148 149
3 147 150 151
3 148 147 151
3 149 148 152
3 153 152 148
3 154 155 153
3 142 117 128
3 141 117 142
3 139 117 141
3 138 117 139
3 136 117 138
3 135 117 136
3 145 117 135
3 4 129 117
3 5 130 4
3 145 146 117
3 146 156 117
3 152 153 157
3 158 159 160
3 161 160 159
3 10 12 160
3 162 161 159
3 157 153 155
3 160 95 10
3 161 98 95
3 161 95 160
3 98 161 92
3 162 92 161
3 121 163 155
3 92 162 110
3 164 165 166
3 134 167 166
3 168 167 134
3 169 87 168
3 170 166 165
3 171 172 170
3 150 173 112
3 170 109 166
3 108 166 109
3 113 112 117
3 168 134 102
3 108 134 166
3 82 109 172
3 172 109 170
3 149 174 147
3 110 175 176
3 177 175 110
3 176 103 96
3 176 96 110
3 175 177 178
3 179 180 181
3 177 110 182
3 183 118 117
3 181 183 117
3 177 182 178
3 110 162 182
3 159 182 162
3 158 160 12
3 184 185 186
3 171 170 165
3 83 82 81
3 81 80 180
3 80 140 180
3 164 187 165
3 82 137 80
3 164 166 167
3 102 169 168
3 167 187 164
3 146 83 81
3 146 81 156
3 167 168 87
3 179 156 180
3 81 180 156
3 103 176 100
3 169 102 100
3 179 181 117
3 156 179 117
3 172 171 137
3 87 169 88
3 88 169 175
3 82 172 137
3 169 100 176
3 171 188 137
3 176 175 169
3 89 88 175
3 132 137 188
3 132 188 143
3 189 190 191
3 192 191 190
3 193 192 190
3 194 195 11
3 190 196 193
3 196 197 193
3 198 193 197
3 197 199 198
3 200 198 199
3 201 202 199
3 94 194 11
3 11 95 94
3 95 98 91
3 203 204 205
3 206 203 207
3 208 209 210
3 0 211 195
3 212 11 195
3 212 195 211
3 0 3 211
3 210 213 208
3 214 208 213
3 191 214 213
3 213 189 191
3 22 18 3
3 211 3 18
3 215 205 204
3 216 215 204
3 205 207 203
3 206 207 209
3 217 209 207
3 210 209 217
3 212 9 11
3 216 218 219
3 204 220 216
3 220 218 216
3 218 221 219
3 95 11 10
3 94 130 5
3 94 5 194
3 222 223 224
3 225 224 226
3 18 7 211
3 227 228 225
3 226 227 225
3 211 7 212
3 9 212 7
3 229 225 228
3 230 229 228
3 228 231 230
3 232 230 231
3 195 194 6
3 5 6 194
3 231 233 232
3 221 232 233
3 233 234 221
3 234 219 221
3 200 199 202
3 1 0 6
3 195 6 0
3 235 236 237
3 202 237 236
3 201 237 202
3 22 15 18
3 18 15 17
3 4 117 21
3 238 236 235
3 173 21 117
3 239 238 235
3 48 51 240
3 48 240 241
3 55 54 242
3 55 242 243
3 244 245 239
3 235 244 239
3 57 68 44
3 25 57 44
3 44 26 25
3 246 239 245
3 247 246 245
3 28 47 33
3 53 62 47
3 245 248 247
3 248 249 247
3 250 247 249
3 249 251 250
3 252 250 251
3 251 253 252
3 254 255 253
3 251 254 253
3 256 253 255
3 257 256 255
3 255 258 257
3 259 257 258
3 258 260 259
3 226 224 223
3 260 223 259
3 259 223 222
3 178 182 261
3 182 159 262
3 182 262 261
3 263 262 158
3 159 158 262
3 158 12 264
3 264 263 158
3 265 120 266
3 126 124 266
3 267 123 144
3 171 268 143
3 171 165 269
3 268 171 269
3 187 269 165
3 167 270 187
3 270 167 271
3 167 87 271
3 271 87 89
3 175 272 89
3 272 175 178
3 163 121 265
3 264 12 273
3 8 273 12
3 8 19 273
3 19 13 90
3 274 275 20
3 275 90 20
3 14 20 90
3 274 276 277
3 274 277 275
3 276 278 279
3 276 279 277
3 278 280 281
3 278 281 279
3 282 283 281
3 282 281 280
3 282 284 285
3 282 285 283
3 284 286 287
3 284 287 285
3 288 287 174
3 286 174 287
3 288 152 289
3 157 155 289
3 290 155 163
3 291 272 292
3 261 292 178
3 293 294 262
3 294 292 261
3 294 261 262
3 263 295 262
3 293 262 295
3 296 295 264
3 263 264 295
3 291 297 272
3 298 299 200
3 300 205 215
3 300 215 301
3 215 216 301
3 213 210 297
3 213 297 291
3 210 217 302
3 210 302 297
3 217 207 303
3 217 303 302
3 207 205 300
3 207 300 303
3 304 305 306
3 305 307 306
3 308 306 307
3 309 298 310
3 311 298 309
3 305 304 203
3 305 203 206
3 307 305 206
3 307 206 209
3 308 307 209
3 308 209 208
3 310 308 208
3 310 208 214
3 309 310 214
3 309 214 191
3 309 191 192
3 312 313 204
3 203 304 312
3 203 312 204
3 216 314 301
3 216 219 315
3 216 315 314
3 316 315 234
3 219 234 315
3 234 233 317
3 234 317 316
3 312 306 313
3 313 306 318
3 318 319 221
3 318 221 218
3 313 318 218
3 313 218 220
3 313 220 204
3 233 231 320
3 233 320 317
3 231 228 321
3 231 321 320
3 228 227 322
3 228 322 321
3 322 226 323
3 227 226 322
3 324 325 326
3 306 326 325
3 325 327 306
3 327 328 306
3 306 328 319
3 312 304 306
3 319 318 306
3 259 222 306
3 326 306 222
3 326 222 224
3 324 326 224
3 324 224 225
3 325 324 225
3 325 225 229
3 327 325 229
3 327 229 230
3 89 272 297
3 302 271 297
3 328 327 230
3 328 230 232
3 319 328 232
3 319 232 221
3 178 292 272
3 329 237 330
3 201 330 237
3 296 330 201
3 187 270 300
3 303 300 270
3 314 268 301
3 200 202 298
3 187 300 269
3 251 249 331
3 248 332 331
3 248 331 249
3 332 248 333
3 245 333 248
3 270 271 302
3 302 303 270
3 89 297 271
3 244 334 333
3 244 333 245
3 235 335 334
3 316 144 315
3 235 334 244
3 268 269 301
3 335 235 329
3 235 237 329
3 267 144 317
3 336 337 310
3 337 338 310
3 338 339 310
3 339 340 310
3 340 341 310
3 341 342 310
3 342 343 310
3 344 336 310
3 143 315 144
3 344 298 236
3 202 236 298
3 314 315 268
3 143 268 315
3 336 344 236
3 336 236 238
3 337 336 238
3 337 238 239
3 300 301 269
3 338 337 239
3 338 239 246
3 339 338 246
3 339 246 247
3 340 339 247
3 340 247 250
3 341 340 250
3 341 250 252
3 342 341 252
3 265 322 163
3 345 290 323
3 345 323 223
3 226 223 323
3 323 163 322
3 223 260 346
3 223 346 345
3 260 258 347
3 260 347 346
3 258 255 348
3 258 348 347
3 265 266 322
3 348 255 349
3 254 349 255
3 349 254 350
3 251 350 254
3 331 350 251
3 351 306 310
3 352 351 310
3 308 310 306
3 343 352 310
3 322 266 321
3 252 253 342
3 321 266 353
3 343 342 253
3 343 253 256
3 352 343 256
3 352 256 257
3 351 352 257
3 351 257 259
3 306 351 259
3 321 353 320
3 317 320 353
3 85 354 282
3 267 317 353
3 316 317 144
3 264 273 296
3 330 296 273
3 31 43 76
3 76 63 64
3 76 64 71
3 273 19 329
3 329 330 273
3 286 284 354
3 19 90 329
3 334 335 275
3 30 280 31
3 174 286 354
3 284 282 354
3 30 85 282
3 278 31 280
3 276 37 278
3 39 37 276
3 329 90 335
3 90 275 335
3 20 39 274
3 274 39 276
3 277 333 275
3 280 30 282
3 334 275 333
3 31 278 37
3 43 31 37
3 50 85 45
3 30 45 85
3 69 240 50
3 50 240 51
3 281 331 279
3 277 279 333
3 40 29 77
3 67 35 65
3 72 65 35
3 173 355 86
3 86 27 173
3 332 333 279
3 21 173 27
3 27 29 21
3 331 332 279
3 29 40 21
3 23 21 40
3 281 283 331
3 35 77 29
3 46 27 86
3 46 86 52
3 285 349 283
3 55 243 52
3 70 52 243
3 241 68 184
3 68 57 184
3 56 184 57
3 66 61 60
3 62 242 59
3 242 54 59
3 59 184 56
3 59 56 60
3 185 184 59
3 241 240 69
3 241 69 68
3 287 348 285
3 243 242 62
3 243 62 70
3 85 186 354
3 78 186 85
3 331 283 350
3 126 266 120
3 349 350 283
3 353 266 124
3 267 353 123
3 123 353 124
3 349 285 348
3 288 348 287
3 123 132 144
3 346 290 345
3 121 120 265
3 347 348 288
3 174 149 152
3 174 152 288
3 157 289 152
3 346 347 288
3 288 289 346
3 290 289 155
3 289 290 346
3 354 355 147
3 163 323 290
3 354 147 174
3 199 296 201
3 197 295 296
3 197 296 199
3 196 293 295
3 196 295 197
3 190 294 293
3 190 293 196
3 189 292 294
3 189 294 190
3 213 291 189
3 143 188 171
3 78 48 186
3 184 186 48
3 184 48 241
3 189 291 292
3 355 354 185
3 79 86 185
3 355 185 86
3 117 112 173
3 150 147 355
3 173 150 355
3 185 59 54
3 185 54 79
3 298 344 310
3 356 299 311
3 357 299 356
3 298 311 299
3 354 186 185
3 192 311 309
3 356 311 192
3 356 192 193
3 133 124 127
3 122 127 126
3 126 120 122
3 358 122 121
3 357 356 193
3 357 193 198
3 299 357 198
3 299 198 200
3 121 155 358
3 154 358 155
3 359 360 361
3 362 360 359
3 133 127 361
3 133 361 363
3 127 122 359
3 127 359 361
3 122 358 362
3 122 362 359
3 358 364 362
3 358 154 364
3 365 180 140
3 366 364 367
3 360 362 366
3 368 361 360
3 362 364 366
3 369 361 368
3 370 363 369
3 180 365 370
3 363 370 365
3 363 361 369
3 111 371 112
3 367 364 111
3 364 371 111
3 112 371 151
3 112 151 150
3 80 137 140
3 140 131 365
3 365 131 125
3 365 125 363
3 133 363 125
3 367 111 115
3 366 367 115
3 366 115 119
3 360 366 119
3 360 119 116
3 368 360 116
3 368 116 118
3 369 368 118
3 369 118 183
3 370 369 183
3 370 183 181
3 181 180 370
3 153 371 154
3 364 154 371
3 148 151 371
3 153 148 371
