ply
format ascii 1.0
element vertex 28
property float32 x
property float32 y
property float32 z
element face 1
property list uint8 int32 vertex_indices
end_header
1.95 -3.25 0.0
1.68 -2.95 0.0
1.60 -2.95 0.0
1.30 -2.55 0.0
1.55 -2.55 0.0
1.31 -2.25 0.0
1.15 -1.88 0.0
1.09 -1.59 0.0
1.0 -1.25 0.0
1.01 -1.09 0.0
1.11 -0.88 0.0
1.24 -0.6 0.0
1.27 -0.25 0.0
1.24 0.15 0.0
1.37 0.6 0.0
1.55 0.92 0.0
1.6 1.15 0.0
1.46 1.35 0.0
1.5 1.55 0.0
1.51 1.84 0.0
1.48 2.07 0.0
1.4 2.33 0.0
1.3 2.55 0.0
1.15 2.75 0.0
0.95 2.93 0.0
0.72 3.08 0.0
0.47 3.19 0.0
0.28 3.25 0.0
3 0 1 2