ply
format ascii 1.0
comment Exported by Aspose.3D 23.9.0
element vertex 222
property float x
property float y
property float z
property float nx
property float ny
property float nz
element face 444
property list uchar int vertex_index
end_header
7.061254501342773 0 2.7871055603027344 0.1296218556817621 0.22125463583506644 0.24812542099971324
4.28216552734375 0.011144444346427917 2.4769515991210938 0.15888797934167087 -0.5969525152817369 0.27673294804990295
7.061254501342773 0 -1.2128944396972656 0.1261990398168564 -0.012691537290811539 -0.20080528926743285
4.496254920959473 0.8550000190734863 0.5181064605712891 0.586770361661911 0.569143307209015 -0.001016457534265669
-2.9387454986572266 0 -8.212894439697266 -0.1646487710986797 0.15512512375911075 -0.15290797362104058
1.0612545013427734 0 -8.212894439697266 0.24950393056496978 0.2239645543450024 -0.15843704342842102
1.0612545013427734 0 -5.435153961181641 0.3061083027510904 -0.6012550412910059 -0.16928796067950316
-2.8401832580566406 0.0011894936906173825 -5.212038040161133 -0.2608268592884997 -0.6461909313996632 -0.1315935439027574
-0.6667461395263672 0.7950000166893005 -5.82789421081543 0.005202406968571438 0.5691231846809387 -0.5814762055873871
-3.7017459869384766 0 5.652105331420898 -0.42844899072467035 -0.35981337229410804 0.49288135691313073
-4.843746185302734 0 4.248106002807617 -0.5258857992943377 -0.3871668130159378 0.2722520988667384
4.31905460357666 0.028919639065861702 -1.2475337982177734 0.1629552459033827 -0.7085515073112523 -0.015380108923030397
2.368253707885742 0 -4.615894317626953 0.36802088781259956 -0.40104017630219463 -0.464657490074751
3.51025390625 0 -3.211894989013672 0.3100362752993533 -0.6249864995479584 -0.20452248447509191
-3.7017459869384766 0 -4.615894317626953 -0.37708079853327947 -0.3924997240304947 -0.4590264960192144
-1.8104324340820312 5.655616760253906 -1.3047447204589844 -0.19702819094527513 0.9237524509429932 -0.2002981320838444
0.6289806365966797 5.6568522453308105 -1.4710197448730469 0.17657517709137338 0.9296030827930994 -0.18711739563046387
-0.7729129791259766 5.655813217163086 -1.9055728912353516 -0.022354471147991717 0.9146085858345032 -0.33973392638145017
-2.5217456817626953 4.52400016784668 -1.4128952026367188 -0.5127248563745525 0.3791014179587364 -0.2889072136575123
-2.9758148193359375 4.52400016784668 -0.12388420104980469 -0.48561187789891846 0.4801026185353597 -0.04805404255118143
-2.8697452545166016 5.265999794006348 -0.5718936920166016 -0.7737178146839142 0.3563815906643868 -0.21740892082452776
-2.2811813354492188 5.274697303771973 -1.789785385131836 -0.5703489631414413 0.44272569318612415 -0.4576118712623914
-3.3174400329589844 4.5248799324035645 3.6536693572998047 -0.1485527858203568 0.9625344574451447 0.10458333219503402
-0.9122714996337891 4.52400016784668 3.3577842712402344 -0.07693805387108503 0.5589008320655141 0.40698240881985315
-1.9787464141845703 4.52400016784668 2.798105239868164 -0.3706982924079057 0.37681714445352554 0.4540305350907147
-2.7701854705810547 4.52400016784668 1.6862106323242188 -0.4486858892875413 0.48495598013202346 0.18147376759346417
-1.295745849609375 5.265999794006348 -2.507894515991211 -0.2730774121979872 0.4444294522205988 -0.6700948079427083
-4.333045959472656 4.524855613708496 1.1057662963867188 -0.21897684174057627 0.9525997468403407 0.012595688466847475
-1.2423973083496094 4.525075912475586 5.000431060791016 -0.06362114069816016 0.957227607568105 0.21314067821367644
1.0987548828125 4.524884223937988 4.641355514526367 0.07289447894481782 0.9670408889651299 0.15252450349726132
0.22025489807128906 4.52400016784668 3.226104736328125 0.2375475686737142 0.30697026724616683 0.603838306609153
1.2466621398925781 4.52400016784668 2.475526809692383 0.3830937340972014 0.4782945538560549 0.2946699762881811
-0.5377464294433594 4.52400016784668 -2.6548938751220703 -0.009850325631435095 0.4179668681962149 -0.5579739069715807
-0.5377464294433594 5.265999794006348 -2.6548938751220703 -0.0021209530532360077 0.4413805603981018 -0.7211365550756454
0.22025489807128906 5.265999794006348 -2.507894515991211 0.2738604503018515 0.38114739315850393 -0.702842823096684
-1.6339588165283203 4.52400016784668 -2.3595809936523438 -0.2613984720689283 0.48711277668674785 -0.4075670843643214
2.818979263305664 4.524857997894287 2.709379196166992 0.18708815576558532 0.9555996911866323 0.09896972604890054
0.9042549133300781 5.265999794006348 -2.07989501953125 0.51023780554533 0.42334894835948944 -0.5537123382091522
1.6317920684814453 5.266821384429932 -1.1148815155029297 0.6662023514509201 0.42647401181360084 -0.32707272469997406
0.9042549133300781 4.52400016784668 -2.07989501953125 0.4454735727922525 0.32565911362568534 -0.47915915068006143
1.6960773468017578 4.52400016784668 -0.9652671813964844 0.46378990513039753 0.4847888542960087 -0.1464261414463787
0.22025489807128906 4.52400016784668 -2.507894515991211 0.14397757121478208 0.5999998092651367 -0.36545761850429703
-0.5377464294433594 4.304999828338623 5.59510612487793 0.03520793281495571 0.46625929077466327 0.6662852019071579
-3.0407447814941406 4.304999828338623 4.625104904174805 -0.39832903742790227 0.5546125173568726 0.4705145418643952
-3.983745574951172 4.304999828338623 3.502105712890625 -0.6783835291862488 0.30197617411613464 0.4199926729003588
-1.8537464141845703 4.304999828338623 5.346105575561523 -0.27779661243160564 0.3067896564801534 0.7320834100246429
-3.895721435546875 4.524744987487793 -1.67181396484375 -0.1634751810488524 0.9612197726964951 -0.08628769197275687
2.2418899536132812 4.524879455566406 -2.617664337158203 0.1471281486155931 0.9631850495934486 -0.103231026983849
3.253480911254883 4.524965763092041 0.03320884704589844 0.25431770412251353 0.94189453125 -0.008785283510405861
0.7792549133300781 1.9789999723434448 5.346105575561523 0.20140650273991614 0.4285714200564793 0.5249362673078264
0.7792549133300781 4.304999828338623 5.346105575561523 0.24985991325229406 0.4594312757253647 0.636043518781662
1.9662551879882812 4.304999828338623 4.625104904174805 0.42568672696749366 0.4621659219264984 0.5303405299782753
2.908254623413086 4.304999828338623 3.502105712890625 0.6345002293586731 0.3615481495857239 0.4197324961423874
-2.170257568359375 4.524877548217773 -3.6072940826416016 -0.08320607104750316 0.9623650567872183 -0.174333560546594
1.9012165069580078 4.52400016784668 0.8448448181152344 0.48012491256425466 0.47525240356723464 0.07354255539515482
0.16755104064941406 4.525080680847168 -3.965442657470703 0.05444746803654457 0.9632986613682337 -0.1826290089021703
2.908254623413086 1.9789999723434448 3.502105712890625 0.4341850380102793 0.4999999900658925 0.23815550406773883
3.513254165649414 4.304999828338623 2.0871047973632812 0.7164109221526554 0.4015601607305663 0.18620025206889423
3.5988292694091797 2.2692301273345947 1.4697799682617188 0.6248812125413679 -0.19976201131939889 0.2850993011146784
3.5974884033203125 3.945844888687134 1.4699745178222656 0.4610067485991749 0.13385990370524167 0.50720040127635
3.513254165649414 1.9789999723434448 2.0871047973632812 0.5559931397438049 0.4270508836489171 0.11401036807468959
4.491887092590332 3.2455267906188965 1.4701080322265625 0.4695246142036922 0.08395165794172499 0.5160398897714913
4.190140724182129 3.8261032104492188 1.4701080322265625 0.44085814859718087 0.5792671421630076 0.2031408201903105
4.428301811218262 2.7412168979644775 1.4701080322265625 0.6083472110901008 -0.219404379769306 0.33902019293357927
4.078607559204102 2.3429105281829834 1.4701080322265625 0.2306549335611635 -0.5231079438832239 0.4082921739667654
4.078608512878418 3.87808895111084 -0.11689376831054688 0.2341981794917956 0.5124553097182896 -0.3996208466589451
3.6454219818115234 3.9510364532470703 -0.11633491516113281 0.28517078221193515 0.2898737326031551 -0.5411648126319051
4.389792442321777 4.344675064086914 -0.11689376831054688 0.42598005121625543 0.11102142450847921 -0.5580431931496908
3.7826404571533203 5.887935161590576 1.1521072387695312 0.37166706033998964 0.20292242083399156 0.5737746513581702
3.5928421020507812 4.319319248199463 1.1535568237304688 0.11515561600228667 0.13574909754485512 0.3642592232467399
4.335082054138184 4.467000484466553 1.1521072387695312 0.3210170417150948 0.0823557379480917 0.6724710574684043
3.645519256591797 3.9539661407470703 1.1515522003173828 0.28528081775875763 0.4164397334912792 0.4340402714908123
4.183155059814453 3.816152334213257 1.1521072387695312 0.2797382186545292 0.3642562149616424 0.48245252296328545
3.5100879669189453 6.331740856170654 -0.11689376831054688 0.39150492350260413 0.29764351330247096 -0.5091711009542147
3.513254165649414 1.9789999723434448 -1.050893783569336 0.5974680569488555 0.3735330135900483 -0.14705117704579607
3.513254165649414 4.304999828338623 -1.050893783569336 0.6713168174028397 0.47805557896693546 -0.15414262562990189
3.5989017486572266 3.9517743587493896 -0.43301963806152344 0.6191488191751496 0.3217809812677907 -0.23187760316899844
3.5988006591796875 2.2692317962646484 -0.43378639221191406 0.45420932894194266 -0.14121361706984967 -0.49033242570502417
2.908254623413086 1.9789999723434448 -2.4658946990966797 0.40502600603259487 0.4999693731466929 -0.27930802952808637
2.908254623413086 4.304999828338623 -2.4658946990966797 0.6610232830047608 0.3624114036560059 -0.3751128941774369
3.0890846252441406 5.528356552124023 -0.11689376831054688 -0.47651320705855527 -0.30054531275476865 -0.42718699281769135
-1.8537464141845703 1.9789999723434448 -4.310894012451172 -0.1270755985861456 0.5714285714285714 -0.40287000792367117
-1.8537464141845703 4.304999828338623 -4.310894012451172 -0.30351787135005 0.367583703994751 -0.6797459542751313
-0.5377464294433594 4.304999828338623 -4.558895111083984 -0.0037175624498299187 0.39958803994315006 -0.7117186146123068
-0.5377464294433594 1.9789999723434448 -4.558895111083984 0.0014484344283118844 0.5999893307685852 -0.3948811168433167
-3.0407447814941406 1.9789999723434448 -3.589895248413086 -0.3007313425900927 0.5 -0.39201636115709937
-3.0407447814941406 4.304999828338623 -3.589895248413086 -0.4666877711812655 0.4622460901737213 -0.4949057300885518
-3.983745574951172 1.9789999723434448 -2.4658946990966797 -0.4086114824311219 0.5 -0.27976522346337634
-3.983745574951172 4.304999828338623 -2.4658946990966797 -0.6652029216289521 0.3615148067474365 -0.36985733807086946
3.025899887084961 5.608129978179932 1.1521072387695312 -0.41686967209534487 -0.26520410148077644 0.49593479884788394
2.425750732421875 7.4590044021606445 1.1521072387695312 0.31664208074410755 0.3777638475100199 0.5068979002535343
2.0130615234375 6.76352071762085 1.1521072387695312 -0.32460495829582214 -0.36978209018707275 0.5005713747814298
-0.6667461395263672 0.640999972820282 6.864105224609375 0.011956287958673784 0.5717699050903321 0.5737392246723175
1.0612545013427734 0 8.787105560302734 0.19846173239966447 0.018110933899879455 0.1278838678216772
0.9160251617431641 0.7572700381278992 6.515171051025391 0.42283673394272875 0.16058776527643204 0.6895709187692144
-0.6667461395263672 1.9789999723434448 6.864105224609375 0.00523107818194798 0.42639173620513504 0.5604117257254464
-2.2737808227539062 0.7381103038787842 6.572597503662109 -0.41389911668375134 0.11977781195725713 0.6622785329818726
0.9292545318603516 1.9789999723434448 6.553104400634766 0.14431563913822174 0.5870849624276161 0.36563035249710085
1.0612430572509766 5.785090979770757E-05 6.470455169677734 0.30328872329555456 -0.551992866396904 0.1678347627120303
2.368253707885742 0 5.652105331420898 0.4302130127713705 -0.32471275329589844 0.49276136832001305
2.368253707885742 1.9789999723434448 5.652105331420898 0.30284689170027923 0.49465908110141754 0.3896311819553375
3.51025390625 0 4.248106002807617 0.5219353636261076 -0.39455258511006835 0.28135439418256286
3.51025390625 1.9789999723434448 4.248106002807617 0.4852970157350812 0.42975547949650456 0.29037814906665255
4.251247406005859 0.9395496845245361 2.484731674194336 0.7074661457112857 0.13987800585372107 0.344819718240095
4.244254112243652 1.9789999723434448 2.479104995727539 0.3830865859985352 0.6031301984563471 0.10213698446750641
4.496254920959473 1.9789999723434448 0.5181064605712891 0.4943234680686146 0.4928587016183883 0.005567707121372223
-2.254974365234375 -0.012528321705758572 6.445049285888672 -0.244694560378169 -0.692312102454404 0.11715346288383444
-2.6798954010009766 0.04432488977909088 8.867439270019531 -0.2433400439331308 0.22878883639350533 0.11014409177005291
-2.2617454528808594 1.9789999723434448 6.553104400634766 -0.1804209053516388 0.5089325257577002 0.45723971724510193
-3.7017459869384766 1.9789999723434448 5.652105331420898 -0.3079852438571636 0.5030763891215125 0.38651715715726215
1.9662551879882812 1.9789999723434448 -3.589895248413086 0.3007871622358943 0.4999999900658925 -0.3919497032960256
1.9662551879882812 4.304999828338623 -3.589895248413086 0.45977064222097397 0.4622311194737752 -0.49886381129423774
0.7792549133300781 1.9789999723434448 -4.310894012451172 0.148173946661385 0.4999864101409912 -0.4729770189151168
0.7792549133300781 4.304999828338623 -4.310894012451172 0.2959457293152809 0.36809906959533695 -0.6821322262287141
1.9982528686523438 7.742854118347168 -0.11689376831054688 0.2529342820247014 0.42354126510014556 -0.5112114573518435
1.9143695831298828 6.839650630950928 -0.11689376831054688 -0.27620650827884674 -0.40765583387073523 -0.5058374100675185
4.33864688873291 1.9936957359313965 -1.258371353149414 0.411144985894983 0.48709376313490793 0.056679139767463006
3.51025390625 1.9789999723434448 -3.211894989013672 0.4358280574274052 0.49810600373893976 -0.23449512540052334
-3.7017459869384766 1.9789999723434448 -4.615894317626953 -0.37480536997881175 0.43060671804206707 -0.42146188020706177
-2.2617454528808594 1.9789999723434448 -5.517894744873047 -0.24633310139179232 0.402849405258894 -0.5378273844718934
1.0988044738769531 1.9689863920211792 -5.444858551025391 0.15285355937667192 0.5930352196097374 -0.36650171900400896
-0.6667461395263672 1.9789999723434448 -5.82789421081543 0.00784956949896046 0.426884031987616 -0.5595482661405445
-4.843746185302734 1.9789999723434448 -3.211894989013672 -0.4411027609801342 0.4870392816762129 -0.2209142396847407
2.368253707885742 1.9789999723434448 -4.615894317626953 0.3757512609348603 0.4252891676234347 -0.4219968026237828
4.273810386657715 0.9291478991508484 -1.2128944396972656 0.5809846086427569 0.18440563979092986 -0.08156150604305878
-4.357015609741211 5.610915184020996 -0.11689376831054688 0.4275668064753214 -0.2494630747133229 -0.4909619822477301
-4.466085433959961 6.757009983062744 -0.11689376831054688 -0.29674170017242435 0.263733529949356 -0.6032435242086649
-3.4682579040527344 6.651308536529541 -0.11689376831054688 0.36177149415016174 -0.4332532542772457 -0.421423466610057
-3.4820556640625 7.633183479309082 -0.11689376831054688 -0.27968263129393256 0.4104477041732744 -0.5043735743189851
-5.356462478637695 5.419113636016846 1.1521072387695312 -0.45474707086881 0.19396024710503684 0.5040986680736144
-4.20307731628418 5.829656600952148 1.1521072387695312 0.3964393436908722 -0.3000533653640005 0.4984965157539894
-4.2100677490234375 7.060677528381348 1.1521072387695312 -0.3588862493634224 0.33911080841106056 0.5071856817230582
-3.4637508392333984 6.646660804748535 1.1521072387695312 0.31896303594112396 -0.37904907707727986 0.4974788394756615
-5.235910415649414 5.655325889587402 -0.11689376831054688 -0.430884579817454 0.24441093871059674 -0.4955117143690586
-4.733795166015625 4.859922885894775 1.1521072387695312 0.3955402885164533 -0.15914300460060204 0.5733705745743853
-5.009952545166016 3.9614062309265137 -0.11689376831054688 0.2548262719064951 0.288043276735117 -0.3648341731604887
-2.9238243103027344 7.949351787567139 1.1521072387695312 -0.2715444803237915 0.5310349702835083 0.40903279520571234
-5.4946441650390625 -0.010188628919422626 -1.2357101440429688 -0.24377373812187994 -0.41998707077332903 -0.2722738070546516
-4.843746185302734 0 -3.211894989013672 -0.5002715229988098 -0.399997353553772 -0.3160023839212954
-1.953561782836914 7.518286228179932 -0.11689376831054688 0.11971788640533174 -0.40413920363323413 -0.5655377054853098
-2.3607025146484375 8.192069053649902 -0.11689376831054688 -0.20274374783039095 0.5614405513529864 -0.4073508221656084
-4.5887451171875 1.9789999723434448 -1.050893783569336 -0.601617842912674 0.37499997497864257 -0.1475657969713211
-4.670539855957031 2.384669542312622 -0.4338951110839844 -0.5091638743877411 -0.18072990606200393 -0.2808097118511796
-4.670539855957031 3.8363304138183594 -0.4338951110839844 -0.3163334673101252 0.07946903678823376 -0.5932433877528328
-4.5887451171875 4.304999828338623 -1.050893783569336 -0.6787111808856328 0.4558360269355835 -0.15868037628630796
-4.796745300292969 4.304999828338623 0.5181064605712891 -0.8058374921480814 0.2987295511645212 0.0026160497218370438
-4.796745300292969 3.906444549560547 0.5181064605712891 -0.10514861941337586 0.5244963765144348 -2.6821908249985427E-08
-4.670539855957031 3.8363304138183594 1.4701061248779297 -0.5785279583312027 0.14864675175110756 0.2632166770689347
-0.2957191467285156 7.677289962768555 -0.11689376831054688 -0.03207435831427574 -0.4940840083413578 -0.4915927605082591
-1.1092948913574219 8.479698181152344 -0.11689376831054688 -0.03730839863419533 0.49463720599619015 -0.5061491324255863
-4.815746307373047 3.9170000553131104 1.4701061248779297 0.218665797296732 0.6192279216241634 0.34076391682949253
-4.984609603881836 3.95346736907959 1.1521072387695312 0.22223511338233948 0.6079761385917664 0.14970292207241678
-5.152185440063477 3.961139440536499 1.4701080322265625 -0.1036534542865411 0.5690963732253295 0.4081222951412201
-4.815746307373047 3.9170000553131104 -0.4338951110839844 0.21867193281650543 0.6700634360313416 -0.2945435792252056
-5.576745986938477 1.9789999723434448 -1.4428939819335938 -0.2909720912575722 0.4674889001374443 -0.24849054962396622
-5.829746246337891 1.9789999723434448 0.5181064605712891 -0.49355705800663596 0.48230020538903773 0.005582362413406372
-2.355470657348633 7.347360134124756 1.1521072387695312 0.18243904624666485 -0.3828823665236527 0.5690099346185369
-1.0930137634277344 7.668703556060791 1.1521072387695312 0.0462777353823185 -0.49310650306596193 0.4923133347183466
-1.7426910400390625 8.382186889648438 1.1521072387695312 -0.10530485088626543 0.4849123265203469 0.5057749195645252
1.0622520446777344 0.9284268617630005 -5.440227508544922 0.43433425336011816 0.12960691435728222 -0.6857745349407196
-5.429924011230469 3.8634252548217773 1.1521072387695312 -0.23936010152101517 0.4084721817870521 0.4728079264362653
-5.781259536743164 3.903881311416626 1.1521072387695312 -0.49236272772153217 0.07524279150362645 0.5017649633033822
-5.829311370849609 3.334641695022583 1.1521072387695312 -0.7797602613766987 0.17083821587757103 0.15916242473758757
-5.85999870300293 3.110482692718506 1.4701080322265625 -0.5580085175519344 -0.0018639527464983986 0.4340153492987156
-5.589109420776367 3.737739324569702 1.4701080322265625 -0.4281311628990807 0.37349008447781673 0.4302780568599701
-2.2617454528808594 0.8983333110809326 -5.517894744873047 -0.17669148487260175 0.3793429255485535 -0.6915369272232056
-2.7549495697021484 1.0007338523864746 -5.225404739379883 -0.5230701935167114 0.1808551891396443 -0.6092449532200892
-4.698736190795898 2.3214406967163086 1.4693756103515625 -0.2270387602828123 -0.16970719487726457 0.5385668188333511
-4.934839248657227 2.2594408988952637 -0.4338951110839844 0.15599410732587177 -0.5865550935268402 -0.33912724287559587
-4.796745300292969 2.3145556449890137 0.5181064605712891 -0.19760458916425705 -0.3850952535867691 -0.02829679404385388
1.0272064208984375 8.192070960998535 1.1521072387695312 0.212123441696167 0.5571474063445493 0.4071646757423878
-0.2241992950439453 8.47969913482666 1.1521072387695312 0.03730836883187294 0.49463717361452453 0.5061485711485147
0.4132251739501953 7.571992874145508 1.1521072387695312 -0.15003880113363266 -0.4686586263463557 0.4930440147873014
4.51754093170166 3.1504499912261963 -0.4338951110839844 0.6288550875384923 0.0080029670073903 -0.3704497206296461
4.183155059814453 3.816152334213257 -0.4338951110839844 0.37609646631899524 0.4031911893805955 -0.43492951393127444
4.190140724182129 2.3948962688446045 -0.4338951110839844 0.42531208556611094 -0.6004342171523604 -0.2125009909272194
-5.761436462402344 2.7268218994140625 -0.4338951110839844 -0.6583335484777177 -0.18427413813804755 -0.2868152745068073
-5.493452072143555 2.3803603649139404 1.4701080322265625 -0.3763836099300534 -0.6218835723993834 0.2144321331754327
-5.175331115722656 3.9616477489471436 -0.4338951110839844 -0.1418878436088562 0.7063475102186203 -0.27394540049135685
0.40920257568359375 8.382185935974121 -0.11689376831054688 0.11013131340344746 0.4829588713995069 -0.5084184805552164
-5.824592590332031 3.269899845123291 -0.4338951110839844 -0.4710039794445038 0.08131896704435349 -0.5168111184611917
-5.8218536376953125 3.3512959480285645 -0.11689376831054688 -0.8071276290076119 0.1456920387489455 -0.13222882238083652
-3.0407447814941406 1.9789999723434448 4.625104904174805 -0.3671314372689568 0.4285714200564793 0.42792828593935284
-3.983745574951172 1.9789999723434448 3.502105712890625 -0.3370585703627626 0.5999999880790711 0.20723982453346254
-5.742067337036133 4.16575288772583 -0.11689376831054688 -0.4840224285920461 0.11482175315419832 -0.5024506043021877
-1.8537464141845703 1.9789999723434448 5.346105575561523 -0.11750999806332155 0.6666666666666666 0.30620844165484107
0.7809791564941406 7.429823398590088 -0.11689376831054688 -0.1370710611343384 -0.37201338918270255 -0.5980453558266163
-0.5377464294433594 1.9789999723434448 5.59510612487793 -0.031008005142211914 0.4999999900658925 0.4912875394026438
-5.602508544921875 3.7191193103790283 -0.4338951110839844 -0.35983386635780334 0.31794634958108264 -0.5132740437984467
-5.411943435668945 3.8782036304473877 -0.11689376831054688 -0.29382168352603916 0.4881424188613892 -0.373660583794117
1.9662551879882812 1.9789999723434448 4.625104904174805 0.34190739494467925 0.5 0.356668750445048
3.7222537994384766 2.26200008392334 0.5181064605712891 0.5187833189964295 -0.5867056488990784 -0.003780938684940338
3.7222537994384766 1.9789999723434448 0.5181064605712891 0.6609581311543782 0.3295264615056415 1.0679165522257486E-07
-4.796745300292969 1.9789999723434448 0.5181064605712891 -0.6609085698922474 0.3198204675484722 -0.004893995821475983
-0.3016510009765625 5.656071662902832 2.623537063598633 0.026944008776627018 0.9124001741409302 0.3454572897637263
0.7343711853027344 5.655429363250732 2.0240650177001953 0.19045376160491806 0.929768076964787 0.18162636898549472
-1.4253959655761719 5.655632972717285 2.3651065826416016 -0.15057759742994678 0.9292691707611085 0.22495987382426394
-5.4082489013671875 2.3489842414855957 -0.4338951110839844 -0.22905295342206955 -0.4163163268013452 -0.5033894942607731
-4.843746185302734 1.9789999723434448 4.248106002807617 -0.4872398823172246 0.42170513261641773 0.2850579023361206
-2.215282440185547 5.655430316925049 1.3425254821777344 -0.22929308780840074 0.9293796022733052 0.09387459004574339
1.3538990020751953 5.657016277313232 0.4534416198730469 0.28091071212423097 0.9172885247639246 0.0033848649930275443
-2.3637638092041016 5.655489921569824 -0.0641021728515625 -0.28419247213501614 0.9155473113059998 -0.05917195078135202
-1.295745849609375 5.265999794006348 3.226104736328125 -0.286480908592542 0.4508735674122969 0.6606244593858719
-2.2546844482421875 5.273873805999756 2.539581298828125 -0.5818966726462046 0.44670269886652625 0.4553334762652715
-0.5377464294433594 5.265999794006348 3.374105453491211 0.02485516965389252 0.3521645963191986 0.7741397857666016
0.22025489807128906 5.265999794006348 3.226104736328125 0.2570704326033592 0.5305219531059265 0.6178587496280671
0.9042549133300781 5.265999794006348 2.798105239868164 0.519622939825058 0.35073151886463166 0.5933018267154694
1.6375961303710938 5.261284828186035 1.8214759826660156 0.688913678129514 0.4307146954039732 0.29286250099539757
3.573955535888672 4.338518142700195 -0.11875724792480469 0.28954733489081264 0.2366070161972727 -0.32292691019496744
-2.9731273651123047 5.26676082611084 0.9272804260253906 -0.7467067390680313 0.43377752477924025 0.11539940039316812
1.9152545928955078 5.265999794006348 0.35910606384277344 0.8168599963188172 0.3376963175833225 -0.021709658205509186
4.502595901489258 3.246381998062134 1.1521072387695312 0.8395567014813423 0.1331426864489913 0.13439075041969772
-5.56574821472168 0.8112643957138062 -1.3275890350341797 -0.4295381804928184 0.14340300299227238 -0.447053967230022
-7.929962158203125 0.002848709234967828 -1.2130661010742188 -0.10725970400032261 -0.14532140269875526 -0.03857312910289086
-5.449123382568359 3.237389319110662E-05 2.7871055603027344 -0.18345521437390744 -0.5794524639844895 0.27549353818176314
-7.938745498657227 0 2.7871055603027344 -0.1582993231180012 0.23392144590616226 0.2494411911898169
-5.403718948364258 0.8471689224243164 2.754405975341797 -0.7235730665909809 0.12621062089289936 0.3468671584684801
-5.829746246337891 0.703000009059906 0.5181064605712891 -0.5857194840908051 0.5686847686767579 0.010811394080155879
-4.5887451171875 1.9789999723434448 2.0871047973632812 -0.6001143080295241 0.3671402505133301 0.15421460382640362
-5.576745986938477 1.9789999723434448 2.479104995727539 -0.3814844723226415 0.5664615117013455 0.10187836885452271
4.488991737365723 3.350417137145996 -0.11689376831054688 0.7285423278808594 0.2574289773361768 -0.21225429626647385
-4.5887451171875 4.304999828338623 2.0871047973632812 -0.6758469641208649 0.45588721162021884 0.16565550491213799
3 0 1 2
3 2 3 0
3 4 5 6
3 6 7 4
3 4 8 5
3 9 10 11
3 6 12 7
3 12 13 7
3 14 7 13
3 15 16 17
3 18 19 20
3 18 20 21
3 22 23 24
3 25 22 24
3 15 17 26
3 27 22 25
3 28 29 23
3 30 23 29
3 30 29 31
3 32 33 34
3 32 35 26
3 32 26 33
3 35 21 26
3 21 35 18
3 33 17 34
3 29 36 31
3 26 17 33
3 21 15 26
3 37 38 39
3 40 39 38
3 39 41 34
3 39 34 37
3 34 41 32
3 29 28 42
3 37 16 38
3 34 16 37
3 34 17 16
3 43 22 44
3 28 22 43
3 45 28 43
3 35 46 18
3 28 45 42
3 18 46 19
3 47 40 48
3 49 50 42
3 49 51 50
3 50 29 42
3 51 29 50
3 52 36 51
3 35 32 53
3 36 29 51
3 46 35 53
3 54 31 36
3 55 53 32
3 52 56 57
3 36 52 57
3 58 59 60
3 57 60 59
3 55 41 47
3 61 62 59
3 40 47 39
3 39 47 41
3 63 59 64
3 61 59 63
3 58 64 59
3 41 55 32
3 65 66 67
3 68 69 70
3 71 72 70
3 67 68 70
3 73 68 67
3 74 75 76
3 74 76 77
3 74 78 79
3 74 79 75
3 67 80 73
3 81 82 83
3 81 83 84
3 85 86 82
3 85 82 81
3 87 88 86
3 87 86 85
3 69 68 89
3 90 91 68
3 92 93 94
3 95 92 94
3 96 92 95
3 73 90 68
3 95 94 97
3 98 99 94
3 100 94 99
3 100 97 94
3 99 101 102
3 99 102 100
3 103 1 0
3 53 55 83
3 101 1 103
3 104 102 103
3 101 103 102
3 82 53 83
3 3 103 0
3 103 3 105
3 103 105 104
3 86 53 82
3 88 46 86
3 46 53 86
3 96 106 107
3 9 106 96
3 108 109 96
3 9 96 109
3 95 108 96
3 78 110 111
3 78 111 79
3 110 112 113
3 110 113 111
3 83 113 112
3 83 112 84
3 47 48 75
3 79 47 75
3 114 73 115
3 111 47 79
3 80 115 73
3 113 55 111
3 55 47 111
3 83 55 113
3 89 68 91
3 78 74 116
3 116 117 78
3 118 81 119
3 120 121 84
3 119 81 121
3 84 121 81
3 85 81 118
3 114 90 73
3 85 122 87
3 110 78 117
3 117 123 110
3 120 112 123
3 110 123 112
3 84 112 120
3 91 115 80
3 91 80 89
3 2 11 124
3 3 2 124
3 11 116 124
3 125 126 127
3 126 128 127
3 129 130 131
3 130 132 131
3 126 133 131
3 125 134 135
3 125 130 134
3 46 27 19
3 128 131 136
3 19 27 25
3 126 131 128
3 127 132 130
3 127 130 125
3 13 11 137
3 13 137 138
3 13 138 14
3 127 128 139
3 128 140 139
3 141 142 143
3 144 143 145
3 141 143 144
3 145 27 144
3 145 146 147
3 148 139 149
3 140 149 139
3 46 88 144
3 150 151 152
3 153 151 150
3 144 27 46
3 87 141 88
3 144 88 141
3 146 145 143
3 143 153 146
3 150 146 153
3 141 154 155
3 147 146 150
3 141 87 154
3 116 105 124
3 3 124 105
3 11 13 117
3 11 117 116
3 156 157 158
3 136 156 158
3 13 12 123
3 13 123 117
3 5 159 6
3 12 6 159
3 12 159 123
3 160 161 162
3 123 159 120
3 8 159 5
3 163 164 162
3 159 8 121
3 159 121 120
3 164 160 162
3 8 4 165
3 121 8 165
3 121 165 119
3 160 134 161
3 7 166 4
3 164 152 160
3 165 4 166
3 14 118 166
3 152 151 160
3 118 119 166
3 165 166 119
3 14 166 7
3 167 168 169
3 170 171 172
3 157 172 171
3 170 172 90
3 91 90 172
3 173 77 174
3 174 77 76
3 149 158 171
3 173 175 77
3 140 158 149
3 140 136 158
3 163 176 177
3 128 136 140
3 93 107 106
3 139 156 127
3 132 127 156
3 106 98 93
3 156 139 157
3 1 11 2
3 157 139 148
3 178 135 153
3 157 148 172
3 153 135 151
3 114 170 90
3 179 170 114
3 11 1 101
3 11 101 99
3 11 99 98
3 98 106 11
3 11 106 9
3 179 171 170
3 96 107 92
3 93 92 107
3 180 176 181
3 179 149 171
3 43 44 182
3 183 182 44
3 162 161 181
3 184 181 161
3 182 185 45
3 182 45 43
3 172 148 186
3 42 45 187
3 185 187 45
3 42 187 49
3 181 188 180
3 172 186 115
3 172 115 91
3 181 184 189
3 51 49 190
3 189 188 181
3 190 56 52
3 190 52 51
3 56 60 57
3 189 178 188
3 191 58 192
3 60 192 58
3 189 135 178
3 141 193 142
3 191 192 77
3 169 168 142
3 194 195 196
3 116 74 105
3 177 197 168
3 177 168 167
3 97 187 95
3 187 185 95
3 102 190 100
3 100 49 97
3 108 95 185
3 109 108 185
3 185 182 109
3 176 197 177
3 163 162 176
3 162 181 176
3 183 198 182
3 187 97 49
3 199 200 201
3 49 100 190
3 190 102 56
3 102 104 56
3 199 196 195
3 60 56 104
3 199 195 200
3 104 105 60
3 192 60 105
3 192 105 74
3 200 16 201
3 15 201 16
3 98 94 93
3 24 23 202
3 24 202 203
3 23 204 202
3 179 114 186
3 149 179 148
3 186 148 179
3 115 186 114
3 156 131 132
3 202 196 203
3 194 202 204
3 194 196 202
3 205 204 30
3 23 30 204
3 30 31 206
3 30 206 205
3 171 158 157
3 131 156 136
3 207 206 31
3 205 194 204
3 89 80 69
3 80 208 69
3 40 54 48
3 25 203 209
3 25 24 203
3 36 48 54
3 71 70 69
3 203 199 209
3 196 199 203
3 71 69 59
3 57 59 69
3 209 20 19
3 19 25 209
3 208 67 66
3 20 201 21
3 66 76 208
3 201 15 21
3 209 201 20
3 201 209 199
3 31 54 207
3 208 80 67
3 54 210 207
3 195 194 205
3 206 195 205
3 206 207 195
3 195 207 200
3 57 69 48
3 208 48 69
3 207 210 200
3 48 36 57
3 54 40 210
3 38 210 40
3 38 200 210
3 208 75 48
3 38 16 200
3 22 28 23
3 71 59 62
3 71 62 72
3 85 118 122
3 211 70 72
3 122 154 87
3 62 61 211
3 62 211 72
3 137 154 122
3 212 137 213
3 137 212 154
3 155 154 212
3 61 63 211
3 118 14 138
3 118 138 122
3 122 138 137
3 188 178 153
3 153 143 188
3 180 188 143
3 176 180 143
3 168 197 143
3 176 143 197
3 143 142 168
3 213 214 215
3 64 175 63
3 214 11 10
3 213 11 214
3 137 11 213
3 216 217 215
3 77 175 191
3 175 64 191
3 58 191 64
3 193 169 142
3 193 167 169
3 218 167 193
3 44 218 183
3 70 211 67
3 155 219 218
3 141 155 193
3 76 66 65
3 76 65 174
3 193 155 218
3 198 183 219
3 109 182 198
3 218 219 183
3 217 212 213
3 65 67 220
3 217 155 212
3 213 215 217
3 65 220 174
3 219 155 216
3 217 216 155
3 216 215 214
3 219 216 198
3 10 198 216
3 10 216 214
3 220 173 174
3 9 109 198
3 9 198 10
3 220 67 211
3 145 147 221
3 218 221 147
3 218 147 167
3 63 173 211
3 220 211 173
3 27 145 221
3 22 27 221
3 218 44 221
3 75 208 76
3 44 22 221
3 175 173 63
3 164 167 152
3 150 152 167
3 74 77 192
3 163 177 167
3 147 150 167
3 164 163 167
3 135 189 184
3 133 135 184
3 134 130 129
3 151 134 160
3 129 161 134
3 131 133 129
3 133 184 129
3 184 161 129
3 135 134 151
3 133 125 135
3 126 125 133
