ply
format ascii 1.0
comment Exported by Aspose.3D 23.9.0
element vertex 24
property float x
property float y
property float z
property float nx
property float ny
property float nz
element face 44
property list uchar int vertex_index
end_header
-55.38053894042969 7.432311534881592 10.692300796508789 -0.5345644824206829 -0.48759093284606936 -0.2
-56.56785202026367 9.604707717895508 10.692300796508789 -0.2790493542949358 0.1731983075539271 -0.3333333333333333
-52.8815803527832 7.331411361694336 10.692300796508789 0.3249637692102364 -0.5509012000901358 -0.28571482603511605
-51.25756072998047 9.390294075012207 10.692300796508789 0.40265873074531555 -0.05985938012599945 -0.25000094556145314
-51.25756072998047 9.390294075012207 13 0.4026591656729579 -0.059858555405881475 0.25000047278149395
-56.56785202026367 9.604707717895508 13 -0.2790495262791713 0.1731987182898346 0.3333333333333333
-52.8815803527832 7.331411361694336 13 0.30598905533552173 -0.4475619155641766 0.4000003782251952
-55.38053894042969 7.432311534881592 13 -0.36713478043675424 -0.591510158777237 0.2
-51 18.181209564208984 11.07691764831543 0.5098716132342815 0.23515348025272953 -0.25
-51 18.181209564208984 12.230767250061035 0.2700649257749319 0.49227145640179515 0.25
-51.25756072998047 9.390294075012207 12.230767250061035 0.42939433745212024 0.14346725748787825 0.3333333333333333
-51.25756072998047 9.390294075012207 11.07691764831543 0.42939411434862346 0.14346752162878454 -0.3333333333333333
-56.3102912902832 18.3956241607666 12.230767250061035 -0.39175956696271896 0.21155154816806318 0.4
-56.3102912902832 18.3956241607666 11.07691764831543 -0.183776493370533 0.4055315303105964 -0.4
-56.56785202026367 9.604707717895508 11.07691764831543 -0.5479801786797387 0.08677852952054568 -0.2857142857142857
-56.56785202026367 9.604707717895508 12.230767250061035 -0.5479802851166043 0.08677830041519233 0.2857142857142857
-56.39823532104492 9.294364929199219 11.07691764831543 -0.4521927845974763 -0.5728571812311808 -0.16666666666666666
-56.39823532104492 9.294364929199219 12.230767250061035 -0.5917177728066841 -0.4862574686606725 0.16666666666666666
-56.57673263549805 9.3015718460083 11.07691764831543 -0.5098716290667653 -0.2351548271253705 -0.25
-56.57673263549805 9.3015718460083 12.230767250061035 -0.27006262727081776 -0.49227222288027406 0.25
-51.266441345214844 9.087158203125 11.07691764831543 0.22972062043845654 -0.5069137564860284 -0.25
-51.48956298828125 9.09616756439209 11.07691764831543 0.46301819011569023 -0.5714242935180665 -0.20000075644916251
-51.48956298828125 9.09616756439209 12.230767250061035 0.43712761465992245 -0.6393742416780697 0.14285741301799654
-51.266441345214844 9.087158203125 12.230767250061035 0.4896994670853019 -0.26443877242184044 0.25
3 0 1 2
3 3 2 1
3 4 5 6
3 7 6 5
3 8 9 10
3 8 10 11
3 12 13 14
3 12 14 15
3 9 12 10
3 15 10 12
3 13 8 11
3 13 11 14
3 14 1 16
3 1 0 16
3 9 8 13
3 9 13 12
3 0 17 16
3 15 5 10
3 4 10 5
3 7 0 2
3 7 2 6
3 18 19 15
3 18 15 14
3 20 21 11
3 19 17 15
3 1 14 11
3 1 11 3
3 22 21 20
3 22 20 23
3 14 16 18
3 19 18 16
3 19 16 17
3 6 2 22
3 10 4 22
3 6 22 4
3 5 15 17
3 0 7 17
3 5 17 7
3 2 3 21
3 11 21 3
3 23 20 11
3 23 11 10
3 22 23 10
3 21 22 2
